<svg width="40" height="106" viewBox="0 0 40 106" fill="none" xmlns="http://www.w3.org/2000/svg">
<mask id="path-1-inside-1_1265_227487" fill="white">
<path d="M32.7297 0.527344C33.3454 0.527447 33.844 1.02693 33.844 1.64258V103.939C33.844 104.555 33.3325 105.054 32.717 105.055H17.844C17.2284 105.055 16.7961 104.555 16.7961 103.939V1.64258C16.7961 1.02697 17.2948 0.527512 17.9104 0.527344H32.7297Z"/>
</mask>
<path d="M32.7297 0.527344C33.3454 0.527447 33.844 1.02693 33.844 1.64258V103.939C33.844 104.555 33.3325 105.054 32.717 105.055H17.844C17.2284 105.055 16.7961 104.555 16.7961 103.939V1.64258C16.7961 1.02697 17.2948 0.527512 17.9104 0.527344H32.7297Z" fill="#FF6B6B"/>
<path d="M32.7297 0.527344L32.7298 -0.0300745H32.7297V0.527344ZM32.717 105.055V105.612H32.7173L32.717 105.055ZM17.844 105.055L17.8439 105.612H17.844V105.055ZM17.9104 0.527344V-0.0300745H17.9102L17.9104 0.527344ZM32.7297 0.527344L32.7296 1.08476C33.0369 1.08481 33.2866 1.33425 33.2866 1.64258H33.844H34.4014C34.4014 0.719624 33.6538 -0.029919 32.7298 -0.0300745L32.7297 0.527344ZM33.844 1.64258H33.2866V103.939H33.844H34.4014V1.64258H33.844ZM33.844 103.939H33.2866C33.2866 104.239 33.0325 104.497 32.7168 104.497L32.717 105.055L32.7173 105.612C33.6326 105.612 34.4014 104.871 34.4014 103.939H33.844ZM32.717 105.055V104.497H17.844V105.055V105.612H32.717V105.055ZM17.844 105.055L17.8441 104.497C17.5809 104.497 17.3536 104.294 17.3536 103.939H16.7961H16.2387C16.2387 104.816 16.876 105.612 17.8439 105.612L17.844 105.055ZM16.7961 103.939H17.3536V1.64258H16.7961H16.2387V103.939H16.7961ZM16.7961 1.64258H17.3536C17.3536 1.33434 17.6032 1.08485 17.9106 1.08476L17.9104 0.527344L17.9102 -0.0300745C16.9865 -0.0298223 16.2387 0.719606 16.2387 1.64258H16.7961ZM17.9104 0.527344V1.08476H32.7297V0.527344V-0.0300745H17.9104V0.527344Z" fill="black" fill-opacity="0.4" mask="url(#path-1-inside-1_1265_227487)"/>
<rect x="17.3201" y="66.5273" width="16" height="6" fill="black" fill-opacity="0.3"/>
<path d="M15.0937 36.2772L15.1343 67.4744C15.1357 68.5779 16.0308 69.4718 17.1343 69.4718L33.48 69.4718" stroke="#7E7E7E" stroke-width="3.34451" stroke-linecap="round"/>
<g filter="url(#filter0_i_1265_227487)">
<path d="M15.0937 36.2772L15.1343 67.4744C15.1357 68.5779 16.0308 69.4718 17.1343 69.4718L33.48 69.4718" stroke="url(#paint0_linear_1265_227487)" stroke-width="2.22967" stroke-linecap="round"/>
</g>
<defs>
<filter id="filter0_i_1265_227487" x="13.9789" y="35.1626" width="20.616" height="35.9812" filterUnits="userSpaceOnUse" color-interpolation-filters="sRGB">
<feFlood flood-opacity="0" result="BackgroundImageFix"/>
<feBlend mode="normal" in="SourceGraphic" in2="BackgroundImageFix" result="shape"/>
<feColorMatrix in="SourceAlpha" type="matrix" values="0 0 0 0 0 0 0 0 0 0 0 0 0 0 0 0 0 0 127 0" result="hardAlpha"/>
<feOffset dy="1.67225"/>
<feGaussianBlur stdDeviation="0.278709"/>
<feComposite in2="hardAlpha" operator="arithmetic" k2="-1" k3="1"/>
<feColorMatrix type="matrix" values="0 0 0 0 1 0 0 0 0 1 0 0 0 0 1 0 0 0 0.95 0"/>
<feBlend mode="normal" in2="shape" result="effect1_innerShadow_1265_227487"/>
</filter>
<linearGradient id="paint0_linear_1265_227487" x1="7.4901" y1="40.6672" x2="30.2607" y2="73.6666" gradientUnits="userSpaceOnUse">
<stop offset="0.0933079" stop-color="#7E7E7E"/>
<stop offset="0.506091" stop-color="#C6C6C6"/>
<stop offset="0.684951" stop-color="#E4E4E4"/>
<stop offset="0.952353" stop-color="#7E7E7E"/>
</linearGradient>
</defs>
</svg>
