<svg width="40" height="106" viewBox="0 0 40 106" fill="none" xmlns="http://www.w3.org/2000/svg">
<mask id="path-1-inside-1_1759_13696" fill="white">
<path d="M32.7297 0.582031C33.3454 0.582135 33.844 1.08162 33.844 1.69727V103.994C33.844 104.61 33.3325 105.109 32.717 105.109H17.844C17.2284 105.109 16.7961 104.61 16.7961 103.994V1.69727C16.7961 1.08166 17.2948 0.582199 17.9104 0.582031H32.7297Z"/>
</mask>
<path d="M32.7297 0.582031C33.3454 0.582135 33.844 1.08162 33.844 1.69727V103.994C33.844 104.61 33.3325 105.109 32.717 105.109H17.844C17.2284 105.109 16.7961 104.61 16.7961 103.994V1.69727C16.7961 1.08166 17.2948 0.582199 17.9104 0.582031H32.7297Z" fill="#698CFF"/>
<path d="M32.7297 0.582031L32.7298 0.024613H32.7297V0.582031ZM32.717 105.109V105.667H32.7173L32.717 105.109ZM17.844 105.109L17.8439 105.667H17.844V105.109ZM17.9104 0.582031V0.024613H17.9102L17.9104 0.582031ZM32.7297 0.582031L32.7296 1.13945C33.0369 1.1395 33.2866 1.38893 33.2866 1.69727H33.844H34.4014C34.4014 0.774312 33.6538 0.0247685 32.7298 0.024613L32.7297 0.582031ZM33.844 1.69727H33.2866V103.994H33.844H34.4014V1.69727H33.844ZM33.844 103.994H33.2866C33.2866 104.294 33.0325 104.552 32.7168 104.552L32.717 105.109L32.7173 105.667C33.6326 105.666 34.4014 104.925 34.4014 103.994H33.844ZM32.717 105.109V104.552H17.844V105.109V105.667H32.717V105.109ZM17.844 105.109L17.8441 104.552C17.5809 104.552 17.3536 104.348 17.3536 103.994H16.7961H16.2387C16.2387 104.871 16.876 105.667 17.8439 105.667L17.844 105.109ZM16.7961 103.994H17.3536V1.69727H16.7961H16.2387V103.994H16.7961ZM16.7961 1.69727H17.3536C17.3536 1.38903 17.6032 1.13953 17.9106 1.13945L17.9104 0.582031L17.9102 0.024613C16.9865 0.0248652 16.2387 0.774293 16.2387 1.69727H16.7961ZM17.9104 0.582031V1.13945H32.7297V0.582031V0.024613H17.9104V0.582031Z" fill="black" fill-opacity="0.4" mask="url(#path-1-inside-1_1759_13696)"/>
<rect x="17.3201" y="66.582" width="16" height="6" fill="black" fill-opacity="0.3"/>
<path d="M15.0937 36.3319L15.1343 67.5291C15.1357 68.6326 16.0308 69.5264 17.1343 69.5264L33.48 69.5264" stroke="#7E7E7E" stroke-width="3.34451" stroke-linecap="round"/>
<g filter="url(#filter0_i_1759_13696)">
<path d="M15.0937 36.3319L15.1343 67.5291C15.1357 68.6326 16.0308 69.5264 17.1343 69.5264L33.48 69.5264" stroke="url(#paint0_linear_1759_13696)" stroke-width="2.22967" stroke-linecap="round"/>
</g>
<defs>
<filter id="filter0_i_1759_13696" x="13.9789" y="35.2173" width="20.616" height="35.9812" filterUnits="userSpaceOnUse" color-interpolation-filters="sRGB">
<feFlood flood-opacity="0" result="BackgroundImageFix"/>
<feBlend mode="normal" in="SourceGraphic" in2="BackgroundImageFix" result="shape"/>
<feColorMatrix in="SourceAlpha" type="matrix" values="0 0 0 0 0 0 0 0 0 0 0 0 0 0 0 0 0 0 127 0" result="hardAlpha"/>
<feOffset dy="1.67225"/>
<feGaussianBlur stdDeviation="0.278709"/>
<feComposite in2="hardAlpha" operator="arithmetic" k2="-1" k3="1"/>
<feColorMatrix type="matrix" values="0 0 0 0 1 0 0 0 0 1 0 0 0 0 1 0 0 0 0.95 0"/>
<feBlend mode="normal" in2="shape" result="effect1_innerShadow_1759_13696"/>
</filter>
<linearGradient id="paint0_linear_1759_13696" x1="7.4901" y1="40.7219" x2="30.2607" y2="73.7213" gradientUnits="userSpaceOnUse">
<stop offset="0.0933079" stop-color="#7E7E7E"/>
<stop offset="0.506091" stop-color="#C6C6C6"/>
<stop offset="0.684951" stop-color="#E4E4E4"/>
<stop offset="0.952353" stop-color="#7E7E7E"/>
</linearGradient>
</defs>
</svg>
