<svg width="1036" height="1876" viewBox="0 0 1036 1876" fill="none" xmlns="http://www.w3.org/2000/svg">
<path d="M1035 1V1875H1V1H1035Z" stroke="#000A61" stroke-width="2"/>
<path d="M18 18H1018V1858H18V18Z" stroke="#000A61" stroke-width="5"/>
<path d="M18 18H1018V1858H18V18Z" stroke="#FFFDF6" stroke-width="3"/>
<path d="M18 18H1018V1858H18V18Z" stroke="#000A61" stroke-width="3" stroke-dasharray="32 32"/>
<path d="M1030.5 5.5V1870.5H5.5V5.5H1030.5Z" stroke="#000A61"/>
<path d="M693.428 169.234C693.623 169.039 693.623 168.723 693.428 168.527L690.246 165.345C690.05 165.15 689.734 165.15 689.538 165.345C689.343 165.541 689.343 165.857 689.538 166.052L692.367 168.881L689.538 171.709C689.343 171.905 689.343 172.221 689.538 172.416C689.734 172.612 690.05 172.612 690.246 172.416L693.428 169.234ZM439.18 168.881V169.381H693.074V168.881V168.381H439.18V168.881Z" fill="#8F8F8F"/>
<path d="M654.996 34.1119C655.059 33.8425 654.891 33.5738 654.622 33.5118L650.243 32.5007C649.974 32.4386 649.706 32.6067 649.644 32.876C649.581 33.1454 649.749 33.4141 650.018 33.4761L653.911 34.3749L653.01 38.2768C652.948 38.5461 653.115 38.8148 653.384 38.8769C653.653 38.9389 653.921 38.7708 653.983 38.5015L654.996 34.1119ZM439.195 168.881L439.46 169.305L439.916 169.019L439.651 168.595L439.387 168.171L438.931 168.457L439.195 168.881ZM440.564 168.024L440.828 168.448L441.741 167.876L441.476 167.452L441.212 167.028L440.299 167.599L440.564 168.024ZM442.389 166.881L442.653 167.305L443.565 166.733L443.301 166.309L443.036 165.885L442.124 166.456L442.389 166.881ZM444.213 165.737L444.478 166.162L445.39 165.59L445.126 165.166L444.861 164.742L443.949 165.313L444.213 165.737ZM446.038 164.594L446.302 165.019L447.215 164.447L446.95 164.023L446.686 163.599L445.773 164.17L446.038 164.594ZM447.863 163.451L448.127 163.876L449.039 163.304L448.775 162.88L448.511 162.455L447.598 163.027L447.863 163.451ZM449.687 162.308L449.952 162.733L450.864 162.161L450.6 161.737L450.335 161.312L449.423 161.884L449.687 162.308ZM451.512 161.165L451.777 161.59L452.689 161.018L452.424 160.594L452.16 160.169L451.248 160.741L451.512 161.165ZM453.337 160.022L453.601 160.446L454.514 159.875L454.249 159.451L453.985 159.026L453.072 159.598L453.337 160.022ZM455.161 158.879L455.426 159.303L456.338 158.732L456.074 158.308L455.809 157.883L454.897 158.455L455.161 158.879ZM456.986 157.736L457.251 158.16L458.163 157.589L457.898 157.164L457.634 156.74L456.722 157.312L456.986 157.736ZM458.811 156.593L459.075 157.017L459.988 156.446L459.723 156.021L459.459 155.597L458.546 156.169L458.811 156.593ZM460.636 155.45L460.9 155.874L461.812 155.303L461.548 154.878L461.283 154.454L460.371 155.026L460.636 155.45ZM462.46 154.307L462.725 154.731L463.637 154.16L463.373 153.735L463.108 153.311L462.196 153.882L462.46 154.307ZM464.285 153.164L464.549 153.588L465.462 153.017L465.197 152.592L464.933 152.168L464.02 152.739L464.285 153.164ZM466.11 152.021L466.374 152.445L467.286 151.873L467.022 151.449L466.757 151.025L465.845 151.596L466.11 152.021ZM467.934 150.878L468.199 151.302L469.111 150.73L468.847 150.306L468.582 149.882L467.67 150.453L467.934 150.878ZM469.759 149.735L470.024 150.159L470.936 149.587L470.671 149.163L470.407 148.739L469.495 149.31L469.759 149.735ZM471.584 148.592L471.848 149.016L472.761 148.444L472.496 148.02L472.232 147.596L471.319 148.167L471.584 148.592ZM473.408 147.448L473.673 147.873L474.585 147.301L474.321 146.877L474.056 146.453L473.144 147.024L473.408 147.448ZM475.233 146.305L475.498 146.73L476.41 146.158L476.145 145.734L475.881 145.31L474.969 145.881L475.233 146.305ZM477.058 145.162L477.322 145.587L478.235 145.015L477.97 144.591L477.706 144.166L476.793 144.738L477.058 145.162ZM478.883 144.019L479.147 144.444L480.059 143.872L479.795 143.448L479.53 143.023L478.618 143.595L478.883 144.019ZM480.707 142.876L480.972 143.301L481.884 142.729L481.62 142.305L481.355 141.88L480.443 142.452L480.707 142.876ZM482.532 141.733L482.796 142.157L483.709 141.586L483.444 141.162L483.18 140.737L482.267 141.309L482.532 141.733ZM484.357 140.59L484.621 141.014L485.533 140.443L485.269 140.019L485.005 139.594L484.092 140.166L484.357 140.59ZM486.181 139.447L486.446 139.871L487.358 139.3L487.094 138.875L486.829 138.451L485.917 139.023L486.181 139.447ZM488.006 138.304L488.271 138.728L489.183 138.157L488.918 137.732L488.654 137.308L487.742 137.88L488.006 138.304ZM489.831 137.161L490.095 137.585L491.008 137.014L490.743 136.589L490.479 136.165L489.566 136.737L489.831 137.161ZM491.655 136.018L491.92 136.442L492.832 135.871L492.568 135.446L492.303 135.022L491.391 135.593L491.655 136.018ZM493.48 134.875L493.745 135.299L494.657 134.728L494.393 134.303L494.128 133.879L493.216 134.45L493.48 134.875ZM495.305 133.732L495.569 134.156L496.482 133.584L496.217 133.16L495.953 132.736L495.04 133.307L495.305 133.732ZM497.13 132.589L497.394 133.013L498.306 132.441L498.042 132.017L497.777 131.593L496.865 132.164L497.13 132.589ZM498.954 131.446L499.219 131.87L500.131 131.298L499.867 130.874L499.602 130.45L498.69 131.021L498.954 131.446ZM500.779 130.302L501.043 130.727L501.956 130.155L501.691 129.731L501.427 129.307L500.514 129.878L500.779 130.302ZM502.604 129.159L502.868 129.584L503.78 129.012L503.516 128.588L503.252 128.164L502.339 128.735L502.604 129.159ZM504.428 128.016L504.693 128.441L505.605 127.869L505.341 127.445L505.076 127.021L504.164 127.592L504.428 128.016ZM506.253 126.873L506.518 127.298L507.43 126.726L507.165 126.302L506.901 125.877L505.989 126.449L506.253 126.873ZM508.078 125.73L508.342 126.155L509.255 125.583L508.99 125.159L508.726 124.734L507.813 125.306L508.078 125.73ZM509.902 124.587L510.167 125.011L511.079 124.44L510.815 124.016L510.55 123.591L509.638 124.163L509.902 124.587ZM511.727 123.444L511.992 123.868L512.904 123.297L512.64 122.873L512.375 122.448L511.463 123.02L511.727 123.444ZM513.552 122.301L513.816 122.725L514.729 122.154L514.464 121.73L514.2 121.305L513.287 121.877L513.552 122.301ZM515.377 121.158L515.641 121.582L516.553 121.011L516.289 120.586L516.024 120.162L515.112 120.734L515.377 121.158ZM517.201 120.015L517.466 120.439L518.378 119.868L518.114 119.443L517.849 119.019L516.937 119.591L517.201 120.015ZM519.026 118.872L519.29 119.296L520.203 118.725L519.938 118.3L519.674 117.876L518.761 118.448L519.026 118.872ZM520.851 117.729L521.115 118.153L522.028 117.582L521.763 117.157L521.499 116.733L520.586 117.304L520.851 117.729ZM522.675 116.586L522.94 117.01L523.852 116.439L523.588 116.014L523.323 115.59L522.411 116.161L522.675 116.586ZM524.5 115.443L524.765 115.867L525.677 115.295L525.412 114.871L525.148 114.447L524.236 115.018L524.5 115.443ZM526.325 114.3L526.589 114.724L527.502 114.152L527.237 113.728L526.973 113.304L526.06 113.875L526.325 114.3ZM528.149 113.157L528.414 113.581L529.326 113.009L529.062 112.585L528.797 112.161L527.885 112.732L528.149 113.157ZM529.974 112.013L530.239 112.438L531.151 111.866L530.887 111.442L530.622 111.018L529.71 111.589L529.974 112.013ZM531.799 110.87L532.063 111.295L532.976 110.723L532.711 110.299L532.447 109.875L531.534 110.446L531.799 110.87ZM533.624 109.727L533.888 110.152L534.8 109.58L534.536 109.156L534.271 108.731L533.359 109.303L533.624 109.727ZM535.448 108.584L535.713 109.009L536.625 108.437L536.361 108.013L536.096 107.588L535.184 108.16L535.448 108.584ZM537.273 107.441L537.537 107.866L538.45 107.294L538.185 106.87L537.921 106.445L537.009 107.017L537.273 107.441ZM539.098 106.298L539.362 106.722L540.275 106.151L540.01 105.727L539.746 105.302L538.833 105.874L539.098 106.298ZM540.922 105.155L541.187 105.579L542.099 105.008L541.835 104.584L541.57 104.159L540.658 104.731L540.922 105.155ZM542.747 104.012L543.012 104.436L543.924 103.865L543.659 103.44L543.395 103.016L542.483 103.588L542.747 104.012ZM544.572 102.869L544.836 103.293L545.749 102.722L545.484 102.297L545.22 101.873L544.307 102.445L544.572 102.869ZM546.397 101.726L546.661 102.15L547.573 101.579L547.309 101.154L547.044 100.73L546.132 101.302L546.397 101.726ZM548.221 100.583L548.486 101.007L549.398 100.436L549.134 100.011L548.869 99.587L547.957 100.159L548.221 100.583ZM550.046 99.4398L550.31 99.8641L551.223 99.2926L550.958 98.8682L550.694 98.4439L549.781 99.0155L550.046 99.4398ZM551.871 98.2967L552.135 98.721L553.047 98.1495L552.783 97.7252L552.518 97.3009L551.606 97.8724L551.871 98.2967ZM553.695 97.1536L553.96 97.578L554.872 97.0064L554.608 96.5821L554.343 96.1578L553.431 96.7293L553.695 97.1536ZM555.52 96.0106L555.784 96.4349L556.697 95.8634L556.432 95.4391L556.168 95.0147L555.256 95.5863L555.52 96.0106ZM557.345 94.8675L557.609 95.2918L558.522 94.7203L558.257 94.296L557.993 93.8717L557.08 94.4432L557.345 94.8675ZM559.169 93.7245L559.434 94.1488L560.346 93.5772L560.082 93.1529L559.817 92.7286L558.905 93.3001L559.169 93.7245ZM560.994 92.5814L561.259 93.0057L562.171 92.4342L561.906 92.0099L561.642 91.5855L560.73 92.1571L560.994 92.5814ZM562.819 91.4383L563.083 91.8626L563.996 91.2911L563.731 90.8668L563.467 90.4425L562.554 91.014L562.819 91.4383ZM564.644 90.2953L564.908 90.7196L565.82 90.1481L565.556 89.7237L565.291 89.2994L564.379 89.8709L564.644 90.2953ZM566.468 89.1522L566.733 89.5765L567.645 89.005L567.381 88.5807L567.116 88.1563L566.204 88.7279L566.468 89.1522ZM568.293 88.0091L568.557 88.4335L569.47 87.8619L569.205 87.4376L568.941 87.0133L568.028 87.5848L568.293 88.0091ZM570.118 86.8661L570.382 87.2904L571.294 86.7189L571.03 86.2945L570.765 85.8702L569.853 86.4417L570.118 86.8661ZM571.942 85.723L572.207 86.1473L573.119 85.5758L572.855 85.1515L572.59 84.7272L571.678 85.2987L571.942 85.723ZM573.767 84.5799L574.032 85.0043L574.944 84.4327L574.679 84.0084L574.415 83.5841L573.503 84.1556L573.767 84.5799ZM575.592 83.4369L575.856 83.8612L576.769 83.2897L576.504 82.8653L576.24 82.441L575.327 83.0126L575.592 83.4369ZM577.416 82.2938L577.681 82.7181L578.593 82.1466L578.329 81.7223L578.064 81.298L577.152 81.8695L577.416 82.2938ZM579.241 81.1508L579.506 81.5751L580.418 81.0035L580.153 80.5792L579.889 80.1549L578.977 80.7264L579.241 81.1508ZM581.066 80.0077L581.33 80.432L582.243 79.8605L581.978 79.4362L581.714 79.0118L580.801 79.5834L581.066 80.0077ZM582.891 78.8646L583.155 79.2889L584.067 78.7174L583.803 78.2931L583.538 77.8688L582.626 78.4403L582.891 78.8646ZM584.715 77.7216L584.98 78.1459L585.892 77.5744L585.628 77.15L585.363 76.7257L584.451 77.2972L584.715 77.7216ZM586.54 76.5785L586.804 77.0028L587.717 76.4313L587.452 76.007L587.188 75.5826L586.275 76.1542L586.54 76.5785ZM588.365 75.4354L588.629 75.8598L589.541 75.2882L589.277 74.8639L589.013 74.4396L588.1 75.0111L588.365 75.4354ZM590.189 74.2924L590.454 74.7167L591.366 74.1452L591.102 73.7208L590.837 73.2965L589.925 73.8681L590.189 74.2924ZM592.014 73.1493L592.279 73.5736L593.191 73.0021L592.926 72.5778L592.662 72.1535L591.75 72.725L592.014 73.1493ZM593.839 72.0063L594.103 72.4306L595.016 71.859L594.751 71.4347L594.487 71.0104L593.574 71.5819L593.839 72.0063ZM595.663 70.8632L595.928 71.2875L596.84 70.716L596.576 70.2917L596.311 69.8673L595.399 70.4389L595.663 70.8632ZM597.488 69.7201L597.753 70.1444L598.665 69.5729L598.401 69.1486L598.136 68.7243L597.224 69.2958L597.488 69.7201ZM599.313 68.5771L599.577 69.0014L600.49 68.4298L600.225 68.0055L599.961 67.5812L599.048 68.1527L599.313 68.5771ZM601.138 67.434L601.402 67.8583L602.314 67.2868L602.05 66.8625L601.785 66.4381L600.873 67.0097L601.138 67.434ZM602.962 66.2909L603.227 66.7153L604.139 66.1437L603.875 65.7194L603.61 65.2951L602.698 65.8666L602.962 66.2909ZM604.787 65.1479L605.051 65.5722L605.964 65.0007L605.699 64.5763L605.435 64.152L604.522 64.7235L604.787 65.1479ZM606.612 64.0048L606.876 64.4291L607.788 63.8576L607.524 63.4333L607.26 63.009L606.347 63.5805L606.612 64.0048ZM608.436 62.8617L608.701 63.2861L609.613 62.7145L609.349 62.2902L609.084 61.8659L608.172 62.4374L608.436 62.8617ZM610.261 61.7187L610.526 62.143L611.438 61.5715L611.173 61.1471L610.909 60.7228L609.997 61.2944L610.261 61.7187ZM612.086 60.5756L612.35 60.9999L613.263 60.4284L612.998 60.0041L612.734 59.5798L611.821 60.1513L612.086 60.5756ZM613.91 59.4325L614.175 59.8569L615.087 59.2853L614.823 58.861L614.558 58.4367L613.646 59.0082L613.91 59.4325ZM615.735 58.2895L616 58.7138L616.912 58.1423L616.648 57.718L616.383 57.2936L615.471 57.8652L615.735 58.2895ZM617.56 57.1464L617.824 57.5707L618.737 56.9992L618.472 56.5749L618.208 56.1506L617.295 56.7221L617.56 57.1464ZM619.385 56.0034L619.649 56.4277L620.561 55.8561L620.297 55.4318L620.032 55.0075L619.12 55.579L619.385 56.0034ZM621.209 54.8603L621.474 55.2846L622.386 54.7131L622.122 54.2888L621.857 53.8644L620.945 54.436L621.209 54.8603ZM623.034 53.7172L623.298 54.1416L624.211 53.57L623.946 53.1457L623.682 52.7214L622.769 53.2929L623.034 53.7172ZM624.859 52.5742L625.123 52.9985L626.036 52.427L625.771 52.0026L625.507 51.5783L624.594 52.1498L624.859 52.5742ZM626.683 51.4311L626.948 51.8554L627.86 51.2839L627.596 50.8596L627.331 50.4352L626.419 51.0068L626.683 51.4311ZM628.508 50.288L628.773 50.7124L629.685 50.1408L629.42 49.7165L629.156 49.2922L628.244 49.8637L628.508 50.288ZM630.333 49.145L630.597 49.5693L631.51 48.9978L631.245 48.5734L630.981 48.1491L630.068 48.7207L630.333 49.145ZM632.157 48.0019L632.422 48.4262L633.334 47.8547L633.07 47.4304L632.805 47.0061L631.893 47.5776L632.157 48.0019ZM633.982 46.8588L634.247 47.2832L635.159 46.7116L634.895 46.2873L634.63 45.863L633.718 46.4345L633.982 46.8588ZM635.807 45.7158L636.071 46.1401L636.984 45.5686L636.719 45.1443L636.455 44.7199L635.542 45.2915L635.807 45.7158ZM637.632 44.5727L637.896 44.997L638.808 44.4255L638.544 44.0012L638.279 43.5769L637.367 44.1484L637.632 44.5727ZM639.456 43.4297L639.721 43.854L640.633 43.2824L640.369 42.8581L640.104 42.4338L639.192 43.0053L639.456 43.4297ZM641.281 42.2866L641.545 42.7109L642.458 42.1394L642.193 41.7151L641.929 41.2907L641.017 41.8623L641.281 42.2866ZM643.106 41.1435L643.37 41.5679L644.283 40.9963L644.018 40.572L643.754 40.1477L642.841 40.7192L643.106 41.1435ZM644.93 40.0005L645.195 40.4248L646.107 39.8533L645.843 39.4289L645.578 39.0046L644.666 39.5761L644.93 40.0005ZM646.755 38.8574L647.02 39.2817L647.932 38.7102L647.667 38.2859L647.403 37.8615L646.491 38.4331L646.755 38.8574ZM648.58 37.7143L648.844 38.1387L649.757 37.5671L649.492 37.1428L649.228 36.7185L648.315 37.29L648.58 37.7143ZM650.405 36.5713L650.669 36.9956L651.581 36.4241L651.317 35.9997L651.052 35.5754L650.14 36.147L650.405 36.5713ZM652.229 35.4282L652.494 35.8525L653.406 35.281L653.142 34.8567L652.877 34.4324L651.965 35.0039L652.229 35.4282ZM654.054 34.2851L654.318 34.7095L654.774 34.4238L654.51 33.9995L654.245 33.5752L653.789 33.8608L654.054 34.2851Z" fill="#698CFF"/>
<path d="M691.018 133.758C691.184 133.537 691.14 133.224 690.92 133.057L687.327 130.35C687.107 130.184 686.793 130.228 686.627 130.449C686.461 130.669 686.505 130.983 686.725 131.149L689.919 133.556L687.51 136.751C687.344 136.972 687.388 137.285 687.609 137.451C687.829 137.618 688.143 137.573 688.309 137.353L691.018 133.758ZM439.195 168.881L439.265 169.376L690.688 133.952L690.619 133.457L690.549 132.962L439.126 168.386L439.195 168.881Z" fill="#698CFF"/>
<path d="M683.497 239.477C683.738 239.343 683.825 239.039 683.691 238.797L681.508 234.859C681.374 234.617 681.07 234.53 680.828 234.663C680.587 234.797 680.5 235.101 680.634 235.343L682.575 238.844L679.078 240.782C678.837 240.916 678.75 241.22 678.884 241.462C679.018 241.703 679.322 241.791 679.564 241.657L683.497 239.477ZM439.195 168.881L439.058 169.362L683.117 239.52L683.254 239.039L683.392 238.559L439.333 168.4L439.195 168.881Z" fill="#FF6B6B"/>
<path d="M683.691 98.9646C683.825 98.7229 683.738 98.4186 683.497 98.2848L679.564 96.1046C679.322 95.9708 679.018 96.0583 678.884 96.2999C678.75 96.5416 678.837 96.846 679.078 96.9798L682.575 98.9177L680.634 102.419C680.5 102.66 680.587 102.965 680.828 103.098C681.07 103.232 681.374 103.145 681.508 102.903L683.691 98.9646ZM439.195 168.881L439.333 169.362L683.392 99.2031L683.254 98.7224L683.117 98.2417L439.058 168.4L439.195 168.881Z" fill="#698CFF"/>
<path d="M690.943 204.704C691.164 204.538 691.208 204.225 691.041 204.004L688.332 200.409C688.166 200.188 687.852 200.144 687.632 200.31C687.412 200.476 687.368 200.79 687.534 201.011L689.942 204.206L686.749 206.613C686.528 206.779 686.484 207.092 686.65 207.313C686.817 207.534 687.13 207.578 687.351 207.412L690.943 204.704ZM439.219 168.881L439.149 169.376L690.573 204.8L690.642 204.305L690.712 203.81L439.288 168.386L439.219 168.881Z" fill="#FF6B6B"/>
<path d="M671.319 272.872C671.576 272.773 671.705 272.483 671.606 272.225L669.991 268.02C669.892 267.762 669.603 267.633 669.346 267.732C669.088 267.831 668.96 268.12 669.059 268.378L670.494 272.116L666.763 273.548C666.505 273.647 666.377 273.937 666.476 274.195C666.575 274.453 666.864 274.582 667.121 274.483L671.319 272.872ZM439.195 168.877L438.992 169.334L670.936 272.861L671.139 272.404L671.342 271.947L439.398 168.42L439.195 168.877Z" fill="#FF6B6B"/>
<path d="M671.606 65.5178C671.705 65.2598 671.576 64.9704 671.319 64.8716L667.121 63.2604C666.864 63.1615 666.575 63.2906 666.476 63.5486C666.377 63.8067 666.505 64.096 666.763 64.1949L670.494 65.627L669.059 69.3648C668.96 69.6228 669.088 69.9122 669.346 70.011C669.603 70.1099 669.892 69.9809 669.991 69.7228L671.606 65.5178ZM439.195 168.866L439.398 169.323L671.342 65.7957L671.139 65.3388L670.936 64.8818L438.992 168.409L439.195 168.866Z" fill="#698CFF"/>
<path d="M654.622 304.25C654.891 304.188 655.059 303.919 654.996 303.65L653.983 299.26C653.921 298.991 653.653 298.823 653.384 298.885C653.115 298.947 652.948 299.216 653.01 299.485L653.911 303.387L650.018 304.286C649.749 304.348 649.581 304.616 649.644 304.886C649.706 305.155 649.974 305.323 650.243 305.261L654.622 304.25ZM439.195 168.881L438.931 169.305L439.387 169.591L439.651 169.167L439.916 168.742L439.46 168.457L439.195 168.881ZM440.564 169.738L440.299 170.162L441.212 170.734L441.476 170.31L441.741 169.885L440.828 169.314L440.564 169.738ZM442.389 170.881L442.124 171.306L443.036 171.877L443.301 171.453L443.565 171.028L442.653 170.457L442.389 170.881ZM444.213 172.024L443.949 172.449L444.861 173.02L445.126 172.596L445.39 172.171L444.478 171.6L444.213 172.024ZM446.038 173.167L445.773 173.592L446.686 174.163L446.95 173.739L447.215 173.315L446.302 172.743L446.038 173.167ZM447.863 174.31L447.598 174.735L448.511 175.306L448.775 174.882L449.039 174.458L448.127 173.886L447.863 174.31ZM449.687 175.453L449.423 175.878L450.335 176.449L450.6 176.025L450.864 175.601L449.952 175.029L449.687 175.453ZM451.512 176.597L451.248 177.021L452.16 177.592L452.424 177.168L452.689 176.744L451.777 176.172L451.512 176.597ZM453.337 177.74L453.072 178.164L453.985 178.735L454.249 178.311L454.514 177.887L453.601 177.315L453.337 177.74ZM455.161 178.883L454.897 179.307L455.809 179.879L456.074 179.454L456.338 179.03L455.426 178.458L455.161 178.883ZM456.986 180.026L456.722 180.45L457.634 181.022L457.898 180.597L458.163 180.173L457.251 179.601L456.986 180.026ZM458.811 181.169L458.546 181.593L459.459 182.165L459.723 181.74L459.988 181.316L459.075 180.744L458.811 181.169ZM460.636 182.312L460.371 182.736L461.283 183.308L461.548 182.883L461.812 182.459L460.9 181.888L460.636 182.312ZM462.46 183.455L462.196 183.879L463.108 184.451L463.373 184.026L463.637 183.602L462.725 183.031L462.46 183.455ZM464.285 184.598L464.02 185.022L464.933 185.594L465.197 185.169L465.462 184.745L464.549 184.174L464.285 184.598ZM466.11 185.741L465.845 186.165L466.757 186.737L467.022 186.313L467.286 185.888L466.374 185.317L466.11 185.741ZM467.934 186.884L467.67 187.308L468.582 187.88L468.847 187.456L469.111 187.031L468.199 186.46L467.934 186.884ZM469.759 188.027L469.495 188.451L470.407 189.023L470.671 188.599L470.936 188.174L470.024 187.603L469.759 188.027ZM471.584 189.17L471.319 189.595L472.232 190.166L472.496 189.742L472.761 189.317L471.848 188.746L471.584 189.17ZM473.408 190.313L473.144 190.738L474.056 191.309L474.321 190.885L474.585 190.46L473.673 189.889L473.408 190.313ZM475.233 191.456L474.969 191.881L475.881 192.452L476.145 192.028L476.41 191.604L475.498 191.032L475.233 191.456ZM477.058 192.599L476.793 193.024L477.706 193.595L477.97 193.171L478.235 192.747L477.322 192.175L477.058 192.599ZM478.883 193.742L478.618 194.167L479.53 194.738L479.795 194.314L480.059 193.89L479.147 193.318L478.883 193.742ZM480.707 194.886L480.443 195.31L481.355 195.881L481.62 195.457L481.884 195.033L480.972 194.461L480.707 194.886ZM482.532 196.029L482.267 196.453L483.18 197.024L483.444 196.6L483.709 196.176L482.796 195.604L482.532 196.029ZM484.357 197.172L484.092 197.596L485.005 198.168L485.269 197.743L485.533 197.319L484.621 196.747L484.357 197.172ZM486.181 198.315L485.917 198.739L486.829 199.311L487.094 198.886L487.358 198.462L486.446 197.89L486.181 198.315ZM488.006 199.458L487.742 199.882L488.654 200.454L488.918 200.029L489.183 199.605L488.271 199.033L488.006 199.458ZM489.831 200.601L489.566 201.025L490.479 201.597L490.743 201.172L491.008 200.748L490.095 200.177L489.831 200.601ZM491.655 201.744L491.391 202.168L492.303 202.74L492.568 202.315L492.832 201.891L491.92 201.32L491.655 201.744ZM493.48 202.887L493.216 203.311L494.128 203.883L494.393 203.459L494.657 203.034L493.745 202.463L493.48 202.887ZM495.305 204.03L495.04 204.454L495.953 205.026L496.217 204.602L496.482 204.177L495.569 203.606L495.305 204.03ZM497.13 205.173L496.865 205.597L497.777 206.169L498.042 205.745L498.306 205.32L497.394 204.749L497.13 205.173ZM498.954 206.316L498.69 206.74L499.602 207.312L499.867 206.888L500.131 206.463L499.219 205.892L498.954 206.316ZM500.779 207.459L500.514 207.884L501.427 208.455L501.691 208.031L501.956 207.606L501.043 207.035L500.779 207.459ZM502.604 208.602L502.339 209.027L503.252 209.598L503.516 209.174L503.78 208.75L502.868 208.178L502.604 208.602ZM504.428 209.745L504.164 210.17L505.076 210.741L505.341 210.317L505.605 209.893L504.693 209.321L504.428 209.745ZM506.253 210.888L505.989 211.313L506.901 211.884L507.165 211.46L507.43 211.036L506.518 210.464L506.253 210.888ZM508.078 212.031L507.813 212.456L508.726 213.027L508.99 212.603L509.255 212.179L508.342 211.607L508.078 212.031ZM509.902 213.175L509.638 213.599L510.55 214.17L510.815 213.746L511.079 213.322L510.167 212.75L509.902 213.175ZM511.727 214.318L511.463 214.742L512.375 215.313L512.64 214.889L512.904 214.465L511.992 213.893L511.727 214.318ZM513.552 215.461L513.287 215.885L514.2 216.457L514.464 216.032L514.729 215.608L513.816 215.036L513.552 215.461ZM515.377 216.604L515.112 217.028L516.024 217.6L516.289 217.175L516.553 216.751L515.641 216.179L515.377 216.604ZM517.201 217.747L516.937 218.171L517.849 218.743L518.114 218.318L518.378 217.894L517.466 217.322L517.201 217.747ZM519.026 218.89L518.761 219.314L519.674 219.886L519.938 219.461L520.203 219.037L519.29 218.466L519.026 218.89ZM520.851 220.033L520.586 220.457L521.499 221.029L521.763 220.604L522.028 220.18L521.115 219.609L520.851 220.033ZM522.675 221.176L522.411 221.6L523.323 222.172L523.588 221.748L523.852 221.323L522.94 220.752L522.675 221.176ZM524.5 222.319L524.236 222.743L525.148 223.315L525.412 222.891L525.677 222.466L524.765 221.895L524.5 222.319ZM526.325 223.462L526.06 223.886L526.973 224.458L527.237 224.034L527.502 223.609L526.589 223.038L526.325 223.462ZM528.149 224.605L527.885 225.03L528.797 225.601L529.062 225.177L529.326 224.752L528.414 224.181L528.149 224.605ZM529.974 225.748L529.71 226.173L530.622 226.744L530.887 226.32L531.151 225.895L530.239 225.324L529.974 225.748ZM531.799 226.891L531.534 227.316L532.447 227.887L532.711 227.463L532.976 227.039L532.063 226.467L531.799 226.891ZM533.624 228.034L533.359 228.459L534.271 229.03L534.536 228.606L534.8 228.182L533.888 227.61L533.624 228.034ZM535.448 229.177L535.184 229.602L536.096 230.173L536.361 229.749L536.625 229.325L535.713 228.753L535.448 229.177ZM537.273 230.321L537.009 230.745L537.921 231.316L538.185 230.892L538.45 230.468L537.537 229.896L537.273 230.321ZM539.098 231.464L538.833 231.888L539.746 232.459L540.01 232.035L540.275 231.611L539.362 231.039L539.098 231.464ZM540.922 232.607L540.658 233.031L541.57 233.602L541.835 233.178L542.099 232.754L541.187 232.182L540.922 232.607ZM542.747 233.75L542.483 234.174L543.395 234.746L543.659 234.321L543.924 233.897L543.012 233.325L542.747 233.75ZM544.572 234.893L544.307 235.317L545.22 235.889L545.484 235.464L545.749 235.04L544.836 234.468L544.572 234.893ZM546.397 236.036L546.132 236.46L547.044 237.032L547.309 236.607L547.573 236.183L546.661 235.611L546.397 236.036ZM548.221 237.179L547.957 237.603L548.869 238.175L549.134 237.75L549.398 237.326L548.486 236.755L548.221 237.179ZM550.046 238.322L549.781 238.746L550.694 239.318L550.958 238.893L551.223 238.469L550.31 237.898L550.046 238.322ZM551.871 239.465L551.606 239.889L552.518 240.461L552.783 240.037L553.047 239.612L552.135 239.041L551.871 239.465ZM553.695 240.608L553.431 241.032L554.343 241.604L554.608 241.18L554.872 240.755L553.96 240.184L553.695 240.608ZM555.52 241.751L555.256 242.175L556.168 242.747L556.432 242.323L556.697 241.898L555.784 241.327L555.52 241.751ZM557.345 242.894L557.08 243.319L557.993 243.89L558.257 243.466L558.522 243.041L557.609 242.47L557.345 242.894ZM559.169 244.037L558.905 244.462L559.817 245.033L560.082 244.609L560.346 244.184L559.434 243.613L559.169 244.037ZM560.994 245.18L560.73 245.605L561.642 246.176L561.906 245.752L562.171 245.328L561.259 244.756L560.994 245.18ZM562.819 246.323L562.554 246.748L563.467 247.319L563.731 246.895L563.996 246.471L563.083 245.899L562.819 246.323ZM564.644 247.466L564.379 247.891L565.291 248.462L565.556 248.038L565.82 247.614L564.908 247.042L564.644 247.466ZM566.468 248.61L566.204 249.034L567.116 249.605L567.381 249.181L567.645 248.757L566.733 248.185L566.468 248.61ZM568.293 249.753L568.028 250.177L568.941 250.748L569.205 250.324L569.47 249.9L568.557 249.328L568.293 249.753ZM570.118 250.896L569.853 251.32L570.765 251.892L571.03 251.467L571.294 251.043L570.382 250.471L570.118 250.896ZM571.942 252.039L571.678 252.463L572.59 253.035L572.855 252.61L573.119 252.186L572.207 251.614L571.942 252.039ZM573.767 253.182L573.503 253.606L574.415 254.178L574.679 253.753L574.944 253.329L574.032 252.757L573.767 253.182ZM575.592 254.325L575.327 254.749L576.24 255.321L576.504 254.896L576.769 254.472L575.856 253.901L575.592 254.325ZM577.416 255.468L577.152 255.892L578.064 256.464L578.329 256.039L578.593 255.615L577.681 255.044L577.416 255.468ZM579.241 256.611L578.977 257.035L579.889 257.607L580.153 257.182L580.418 256.758L579.506 256.187L579.241 256.611ZM581.066 257.754L580.801 258.178L581.714 258.75L581.978 258.326L582.243 257.901L581.33 257.33L581.066 257.754ZM582.891 258.897L582.626 259.321L583.538 259.893L583.803 259.469L584.067 259.044L583.155 258.473L582.891 258.897ZM584.715 260.04L584.451 260.464L585.363 261.036L585.628 260.612L585.892 260.187L584.98 259.616L584.715 260.04ZM586.54 261.183L586.275 261.608L587.188 262.179L587.452 261.755L587.717 261.33L586.804 260.759L586.54 261.183ZM588.365 262.326L588.1 262.751L589.013 263.322L589.277 262.898L589.541 262.473L588.629 261.902L588.365 262.326ZM590.189 263.469L589.925 263.894L590.837 264.465L591.102 264.041L591.366 263.617L590.454 263.045L590.189 263.469ZM592.014 264.612L591.75 265.037L592.662 265.608L592.926 265.184L593.191 264.76L592.279 264.188L592.014 264.612ZM593.839 265.755L593.574 266.18L594.487 266.751L594.751 266.327L595.016 265.903L594.103 265.331L593.839 265.755ZM595.663 266.899L595.399 267.323L596.311 267.894L596.576 267.47L596.84 267.046L595.928 266.474L595.663 266.899ZM597.488 268.042L597.224 268.466L598.136 269.037L598.401 268.613L598.665 268.189L597.753 267.617L597.488 268.042ZM599.313 269.185L599.048 269.609L599.961 270.181L600.225 269.756L600.49 269.332L599.577 268.76L599.313 269.185ZM601.138 270.328L600.873 270.752L601.785 271.324L602.05 270.899L602.314 270.475L601.402 269.903L601.138 270.328ZM602.962 271.471L602.698 271.895L603.61 272.467L603.875 272.042L604.139 271.618L603.227 271.046L602.962 271.471ZM604.787 272.614L604.522 273.038L605.435 273.61L605.699 273.185L605.964 272.761L605.051 272.19L604.787 272.614ZM606.612 273.757L606.347 274.181L607.26 274.753L607.524 274.328L607.788 273.904L606.876 273.333L606.612 273.757ZM608.436 274.9L608.172 275.324L609.084 275.896L609.349 275.472L609.613 275.047L608.701 274.476L608.436 274.9ZM610.261 276.043L609.997 276.467L610.909 277.039L611.173 276.615L611.438 276.19L610.526 275.619L610.261 276.043ZM612.086 277.186L611.821 277.61L612.734 278.182L612.998 277.758L613.263 277.333L612.35 276.762L612.086 277.186ZM613.91 278.329L613.646 278.753L614.558 279.325L614.823 278.901L615.087 278.476L614.175 277.905L613.91 278.329ZM615.735 279.472L615.471 279.897L616.383 280.468L616.648 280.044L616.912 279.619L616 279.048L615.735 279.472ZM617.56 280.615L617.295 281.04L618.208 281.611L618.472 281.187L618.737 280.763L617.824 280.191L617.56 280.615ZM619.385 281.758L619.12 282.183L620.032 282.754L620.297 282.33L620.561 281.906L619.649 281.334L619.385 281.758ZM621.209 282.901L620.945 283.326L621.857 283.897L622.122 283.473L622.386 283.049L621.474 282.477L621.209 282.901ZM623.034 284.044L622.769 284.469L623.682 285.04L623.946 284.616L624.211 284.192L623.298 283.62L623.034 284.044ZM624.859 285.188L624.594 285.612L625.507 286.183L625.771 285.759L626.036 285.335L625.123 284.763L624.859 285.188ZM626.683 286.331L626.419 286.755L627.331 287.326L627.596 286.902L627.86 286.478L626.948 285.906L626.683 286.331ZM628.508 287.474L628.244 287.898L629.156 288.47L629.42 288.045L629.685 287.621L628.773 287.049L628.508 287.474ZM630.333 288.617L630.068 289.041L630.981 289.613L631.245 289.188L631.51 288.764L630.597 288.192L630.333 288.617ZM632.157 289.76L631.893 290.184L632.805 290.756L633.07 290.331L633.334 289.907L632.422 289.335L632.157 289.76ZM633.982 290.903L633.718 291.327L634.63 291.899L634.895 291.474L635.159 291.05L634.247 290.479L633.982 290.903ZM635.807 292.046L635.542 292.47L636.455 293.042L636.719 292.617L636.984 292.193L636.071 291.622L635.807 292.046ZM637.632 293.189L637.367 293.613L638.279 294.185L638.544 293.761L638.808 293.336L637.896 292.765L637.632 293.189ZM639.456 294.332L639.192 294.756L640.104 295.328L640.369 294.904L640.633 294.479L639.721 293.908L639.456 294.332ZM641.281 295.475L641.017 295.899L641.929 296.471L642.193 296.047L642.458 295.622L641.545 295.051L641.281 295.475ZM643.106 296.618L642.841 297.043L643.754 297.614L644.018 297.19L644.283 296.765L643.37 296.194L643.106 296.618ZM644.93 297.761L644.666 298.186L645.578 298.757L645.843 298.333L646.107 297.908L645.195 297.337L644.93 297.761ZM646.755 298.904L646.491 299.329L647.403 299.9L647.667 299.476L647.932 299.052L647.02 298.48L646.755 298.904ZM648.58 300.047L648.315 300.472L649.228 301.043L649.492 300.619L649.757 300.195L648.844 299.623L648.58 300.047ZM650.405 301.19L650.14 301.615L651.052 302.186L651.317 301.762L651.581 301.338L650.669 300.766L650.405 301.19ZM652.229 302.334L651.965 302.758L652.877 303.329L653.142 302.905L653.406 302.481L652.494 301.909L652.229 302.334ZM654.054 303.477L653.789 303.901L654.245 304.187L654.51 303.762L654.774 303.338L654.318 303.052L654.054 303.477Z" fill="#FF6B6B"/>
<path d="M490.72 126.414C488.819 126.414 487.14 126.141 485.681 125.594C484.223 125.047 483.077 124.253 482.244 123.211C481.437 122.169 481.033 120.92 481.033 119.461C481.033 118.107 481.385 116.883 482.088 115.79C482.817 114.696 483.819 113.706 485.095 112.821C486.397 111.91 487.921 111.063 489.666 110.282C491.436 109.475 493.35 108.694 495.407 107.938L496.345 114.11C494.6 114.527 493.142 114.969 491.97 115.438C490.824 115.881 489.913 116.336 489.236 116.805C488.559 117.248 488.064 117.678 487.752 118.094C487.465 118.485 487.322 118.823 487.322 119.11C487.322 119.448 487.543 119.735 487.986 119.969C488.429 120.177 489.262 120.282 490.486 120.282C490.746 120.282 491.124 120.269 491.619 120.243C492.113 120.216 492.686 120.164 493.337 120.086C493.988 119.982 494.678 119.839 495.407 119.657L496.853 124.813C495.811 125.307 494.822 125.698 493.884 125.984C492.973 126.271 491.918 126.414 490.72 126.414ZM500.251 127C498.584 127 497.243 126.779 496.228 126.336C495.238 125.867 494.483 125.281 493.962 124.578C493.467 123.849 493.129 123.068 492.947 122.235C492.79 121.401 492.712 120.62 492.712 119.891V106.142H499.001V118.133C499.001 119.149 499.261 119.865 499.782 120.282C500.329 120.672 501.201 120.867 502.399 120.867H503.688V127H500.251ZM487.791 103.954L483.689 99.8138L487.556 95.6343L491.658 99.8138L487.791 103.954ZM494.665 103.954L490.564 99.8138L494.47 95.6343L498.571 99.8138L494.665 103.954ZM503.674 127V120.867H528.165C528.243 119.748 528.139 118.732 527.853 117.821C527.566 116.883 527.058 116.141 526.329 115.594C525.6 115.021 524.558 114.735 523.204 114.735C521.85 114.735 520.379 115.139 518.79 115.946C517.202 116.753 515.705 118.029 514.298 119.774C512.892 121.492 511.76 123.758 510.9 126.57L509.338 120.985C510.431 118.25 511.747 115.972 513.283 114.149C514.819 112.326 516.499 110.959 518.322 110.048C520.145 109.11 522.032 108.641 523.986 108.641C526.485 108.641 528.53 109.162 530.118 110.204C531.707 111.219 532.865 112.6 533.594 114.344C534.324 116.089 534.675 118.055 534.649 120.243C534.623 122.43 534.245 124.682 533.516 127H503.674ZM507.268 127V98.0951H513.556V127H507.268ZM503.674 120.867H504.065V127H503.674C502.893 127 502.502 125.984 502.502 123.953C502.502 121.896 502.893 120.867 503.674 120.867ZM541.116 137C539.944 137 538.668 136.778 537.288 136.335C535.934 135.893 534.632 135.112 533.382 133.992L535.335 130.047C536.22 130.385 537.054 130.607 537.835 130.711C538.616 130.815 539.319 130.867 539.944 130.867C541.429 130.867 542.705 130.607 543.772 130.086C544.84 129.565 545.66 128.81 546.233 127.82C546.832 126.831 547.131 125.646 547.131 124.266C547.131 123.589 546.962 122.925 546.624 122.274C546.311 121.597 545.764 120.776 544.983 119.813C544.202 118.823 543.147 117.534 541.819 115.946L546.819 109.813C548.199 111.714 549.319 113.472 550.178 115.086C551.037 116.701 551.662 118.224 552.053 119.657C552.47 121.063 552.678 122.456 552.678 123.836C552.678 124.8 552.561 125.867 552.326 127.039C552.092 128.211 551.701 129.37 551.155 130.515C550.634 131.687 549.931 132.755 549.045 133.718C548.16 134.708 547.053 135.502 545.725 136.101C544.423 136.7 542.887 137 541.116 137ZM564.793 127C563.491 127 562.371 126.87 561.433 126.609C560.496 126.349 559.715 125.945 559.09 125.399C558.491 124.826 558.035 124.096 557.723 123.211C557.436 122.326 557.293 121.258 557.293 120.008V98.0951H563.582V117.743C563.582 118.316 563.621 118.81 563.699 119.227C563.777 119.618 563.92 119.943 564.129 120.203C564.337 120.438 564.623 120.607 564.988 120.711C565.379 120.815 565.886 120.867 566.511 120.867H568.035V127H564.793ZM568.025 127V120.867H568.923C571.293 120.867 573.285 120.815 574.9 120.711C576.514 120.607 577.881 120.451 579.001 120.243C580.121 120.008 581.097 119.722 581.93 119.383C582.764 119.045 583.584 118.641 584.391 118.172C584.574 118.068 584.73 117.977 584.86 117.899C584.99 117.821 585.107 117.756 585.212 117.704C585.342 117.625 585.446 117.573 585.524 117.547C584.561 117.053 583.688 116.636 582.907 116.297C582.126 115.933 581.384 115.646 580.681 115.438C580.003 115.204 579.352 115.034 578.728 114.93C578.129 114.826 577.517 114.774 576.892 114.774C576.084 114.774 575.342 114.995 574.665 115.438C573.988 115.881 573.272 116.649 572.517 117.743L568.494 115.672C569.379 113.824 570.329 112.391 571.345 111.376C572.361 110.36 573.415 109.657 574.509 109.266C575.603 108.85 576.683 108.641 577.751 108.641C579.157 108.641 580.446 108.85 581.618 109.266C582.816 109.683 583.936 110.204 584.977 110.829C586.019 111.454 587.034 112.079 588.024 112.704C589.013 113.303 590.003 113.811 590.993 114.227C591.982 114.644 593.037 114.839 594.156 114.813L594.039 120.125C593.362 120.308 592.529 120.581 591.539 120.946C590.55 121.284 589.404 121.792 588.102 122.469C587.06 123.016 585.967 123.563 584.821 124.11C583.675 124.63 582.36 125.112 580.876 125.555C579.392 125.997 577.647 126.349 575.642 126.609C573.637 126.87 571.267 127 568.533 127H568.025ZM568.025 120.867H568.415V127H568.025C567.244 127 566.853 125.984 566.853 123.953C566.853 121.896 567.244 120.867 568.025 120.867ZM577.868 105.36L573.728 101.22L577.673 97.0405L581.774 101.22L577.868 105.36Z" fill="#4E02B2"/>
<path d="M397.882 197.515L375.773 197.554V183.57H373.117V178.023H390.226C394.991 178.023 397.882 180.758 397.882 185.367V197.515ZM381.554 183.57V191.929H392.101V186.5C392.101 184.273 391.515 183.57 389.444 183.57H381.554ZM406.255 189.429H400.24V178.023H406.255V189.429ZM408.436 178.023H426.99V183.57H424.06V197.554H418.318V183.57H408.436V178.023ZM435.208 189.429H429.192V178.023H435.208V189.429ZM439.224 197.905H436.997V192.398C440.747 192.359 441.88 191.929 441.88 189.156V183.57H437.622V178.023H461.957V197.554H456.254V183.57H447.505L447.583 190.249C447.622 194.624 444.731 197.905 439.224 197.905ZM478.539 197.554H464.009V191.968H467.446V178.023H473.11V191.968H477.68C479.906 191.968 481.195 191.226 481.195 188.296V178.023H486.859V189.742C486.859 194.663 483.266 197.554 478.539 197.554ZM509.588 197.554H503.846V183.57H489.237V178.023H509.588V197.554ZM495.214 197.554H489.433V186.968H495.214V197.554Z" fill="#930B9D"/>
<path d="M522.386 197.554C522.091 197.554 521.944 197.406 521.944 197.112V178.446C521.944 178.151 522.091 178.004 522.386 178.004H541.766C542.06 178.004 542.208 178.151 542.208 178.446V181.846C542.208 182.14 542.06 182.288 541.766 182.288H528.2C527.905 182.288 527.758 182.435 527.758 182.73V185.552C527.758 185.846 527.905 185.994 528.2 185.994H540.882C541.176 185.994 541.324 186.141 541.324 186.436V189.836C541.324 190.13 541.176 190.278 540.882 190.278H528.2C527.905 190.278 527.758 190.425 527.758 190.72V197.112C527.758 197.406 527.61 197.554 527.316 197.554H522.386ZM555.134 197.724C552.482 197.724 550.442 197.44 549.014 196.874C547.586 196.307 546.6 195.446 546.056 194.29C545.535 193.134 545.274 191.57 545.274 189.598V178.446C545.274 178.151 545.422 178.004 545.716 178.004H550.646C550.941 178.004 551.088 178.151 551.088 178.446V189.292C551.088 190.584 551.383 191.536 551.972 192.148C552.584 192.76 553.536 193.066 554.828 193.066H559.486C560.756 193.066 561.685 192.76 562.274 192.148C562.886 191.536 563.192 190.584 563.192 189.292V178.446C563.192 178.151 563.34 178.004 563.634 178.004H568.564C568.859 178.004 569.006 178.151 569.006 178.446V189.598C569.006 191.57 568.734 193.134 568.19 194.29C567.669 195.446 566.694 196.307 565.266 196.874C563.861 197.44 561.832 197.724 559.18 197.724H555.134ZM581.275 197.554C580.981 197.554 580.833 197.406 580.833 197.112V183.444C580.833 183.149 580.686 183.002 580.391 183.002H572.163C571.869 183.002 571.721 182.854 571.721 182.56V178.446C571.721 178.151 571.869 178.004 572.163 178.004H595.283C595.578 178.004 595.725 178.151 595.725 178.446V182.56C595.725 182.854 595.578 183.002 595.283 183.002H587.055C586.761 183.002 586.613 183.149 586.613 183.444V197.112C586.613 197.406 586.466 197.554 586.171 197.554H581.275ZM608.292 197.724C605.64 197.724 603.6 197.44 602.172 196.874C600.744 196.307 599.758 195.446 599.214 194.29C598.693 193.134 598.432 191.57 598.432 189.598V178.446C598.432 178.151 598.58 178.004 598.874 178.004H603.804C604.099 178.004 604.246 178.151 604.246 178.446V189.292C604.246 190.584 604.541 191.536 605.13 192.148C605.742 192.76 606.694 193.066 607.986 193.066H612.644C613.914 193.066 614.843 192.76 615.432 192.148C616.044 191.536 616.35 190.584 616.35 189.292V178.446C616.35 178.151 616.498 178.004 616.792 178.004H621.722C622.017 178.004 622.164 178.151 622.164 178.446V189.598C622.164 191.57 621.892 193.134 621.348 194.29C620.827 195.446 619.852 196.307 618.424 196.874C617.019 197.44 614.99 197.724 612.338 197.724H608.292ZM626.477 197.554C626.183 197.554 626.035 197.406 626.035 197.112V178.446C626.035 178.151 626.183 178.004 626.477 178.004H640.757C642.729 178.004 644.339 178.208 645.585 178.616C646.855 179.024 647.807 179.738 648.441 180.758C649.099 181.778 649.427 183.183 649.427 184.974V185.586C649.427 186.832 649.087 187.898 648.407 188.782C647.727 189.666 646.741 190.323 645.449 190.754C645.2 190.844 645.155 191.003 645.313 191.23L650.209 197.214L650.311 197.418C650.311 197.508 650.221 197.554 650.039 197.554H644.361C644.089 197.554 643.851 197.44 643.647 197.214L639.771 192.148C639.567 191.921 639.329 191.808 639.057 191.808H632.155C631.861 191.808 631.713 191.955 631.713 192.25V197.112C631.713 197.406 631.566 197.554 631.271 197.554H626.477ZM640.757 187.49C641.732 187.49 642.446 187.308 642.899 186.946C643.353 186.583 643.579 186.05 643.579 185.348V185.144C643.579 184.328 643.364 183.716 642.933 183.308C642.503 182.877 641.777 182.662 640.757 182.662H632.155C631.861 182.662 631.713 182.809 631.713 183.104V187.048C631.713 187.342 631.861 187.49 632.155 187.49H640.757ZM653.106 197.554C652.812 197.554 652.664 197.406 652.664 197.112V178.446C652.664 178.151 652.812 178.004 653.106 178.004H673.064C673.359 178.004 673.506 178.151 673.506 178.446V181.846C673.506 182.14 673.359 182.288 673.064 182.288H658.92C658.626 182.288 658.478 182.435 658.478 182.73V185.246C658.478 185.54 658.626 185.688 658.92 185.688H672.18C672.475 185.688 672.622 185.835 672.622 186.13V189.19C672.622 189.484 672.475 189.632 672.18 189.632H658.92C658.626 189.632 658.478 189.779 658.478 190.074V192.794C658.478 193.088 658.626 193.236 658.92 193.236H673.2C673.495 193.236 673.642 193.383 673.642 193.678V197.112C673.642 197.406 673.495 197.554 673.2 197.554H653.106ZM684.712 197.792C682.559 197.792 680.882 197.599 679.68 197.214C678.479 196.828 677.64 196.284 677.164 195.582C676.688 194.879 676.428 193.995 676.382 192.93L676.348 192.216C676.348 191.921 676.496 191.774 676.79 191.774H681.72C682.015 191.774 682.162 191.921 682.162 192.216V192.352C682.162 192.805 682.355 193.111 682.74 193.27C683.126 193.428 683.84 193.508 684.882 193.508H690.73C691.977 193.508 692.804 193.36 693.212 193.066C693.643 192.771 693.858 192.306 693.858 191.672C693.858 191.06 693.666 190.618 693.28 190.346C692.918 190.074 692.147 189.926 690.968 189.904L682.604 189.7C680.36 189.654 678.774 189.156 677.844 188.204C676.915 187.229 676.45 185.869 676.45 184.124C676.45 182.197 677.051 180.667 678.252 179.534C679.476 178.4 681.573 177.834 684.542 177.834H689.982C692.476 177.834 694.402 178.015 695.762 178.378C697.122 178.718 698.074 179.262 698.618 180.01C699.185 180.758 699.468 181.766 699.468 183.036V183.342C699.468 183.636 699.321 183.784 699.026 183.784H693.96C693.666 183.784 693.518 183.636 693.518 183.342V183.172C693.518 182.446 692.872 182.084 691.58 182.084H684.712C683.874 182.084 683.273 182.231 682.91 182.526C682.57 182.82 682.4 183.251 682.4 183.818C682.4 184.407 682.559 184.826 682.876 185.076C683.216 185.302 683.885 185.427 684.882 185.45L693.11 185.722C694.878 185.79 696.238 186.016 697.19 186.402C698.165 186.764 698.845 187.354 699.23 188.17C699.638 188.963 699.842 190.074 699.842 191.502C699.842 192.952 699.593 194.131 699.094 195.038C698.618 195.944 697.746 196.636 696.476 197.112C695.23 197.565 693.45 197.792 691.138 197.792H684.712Z" fill="#000A61"/>
<path d="M383.641 162.355C379.735 162.355 376.936 161.652 375.243 160.246C373.577 158.814 372.744 156.809 372.744 154.231C372.744 153.085 372.952 151.77 373.368 150.286C373.785 148.801 374.527 147.096 375.595 145.169L380.204 147.239C379.787 148.411 379.488 149.413 379.306 150.247C379.123 151.054 379.032 151.783 379.032 152.434C379.032 153.45 379.254 154.231 379.696 154.778C380.139 155.325 380.751 155.702 381.532 155.91C382.339 156.119 383.264 156.223 384.305 156.223H398.484L399.227 162.355H383.641ZM394.578 162.355V156.223H401.453C401.245 155.312 400.841 154.296 400.242 153.176C399.643 152.056 398.888 150.924 397.977 149.778L403.601 144.036C404.383 145.52 405.06 147.148 405.633 148.919C406.205 150.689 406.492 152.681 406.492 154.895C406.518 157.082 406.049 159.569 405.086 162.355H394.578ZM394.578 156.223H394.969V162.355H394.578C393.797 162.355 393.407 161.34 393.407 159.309C393.407 157.252 393.797 156.223 394.578 156.223ZM386.493 144.583L382.391 140.442L386.258 136.263L390.36 140.442L386.493 144.583ZM393.368 144.583L389.266 140.442L393.172 136.263L397.274 140.442L393.368 144.583ZM425.412 158.957C424.839 158.072 424.123 157.16 423.264 156.223C422.405 155.285 421.441 154.322 420.373 153.332C419.332 152.343 418.212 151.34 417.014 150.325C415.842 149.283 414.618 148.242 413.342 147.2C412.093 146.132 410.83 145.078 409.554 144.036L410.725 137.161C412.991 139.14 415.009 140.95 416.78 142.591C418.551 144.205 420.113 145.664 421.467 146.966C422.847 148.268 424.019 149.426 424.983 150.442C425.972 151.458 426.792 152.343 427.443 153.098L425.412 158.957ZM410.843 162.355L409.632 156.223H417.327C417.717 156.223 418.251 156.184 418.928 156.106C419.605 156.002 420.295 155.806 420.998 155.52C421.728 155.207 422.352 154.739 422.873 154.114C423.42 153.489 423.733 152.629 423.811 151.536L428.42 149.075C428.628 151.054 428.68 152.786 428.576 154.27C428.498 155.754 428.186 157.017 427.639 158.059C427.118 159.074 426.298 159.908 425.178 160.559C424.084 161.184 422.626 161.639 420.803 161.926C418.98 162.212 416.741 162.355 414.085 162.355H410.843ZM431.115 162.355C429.37 162.355 427.977 162.134 426.936 161.691C425.894 161.223 425.113 160.637 424.592 159.934C424.071 159.205 423.733 158.423 423.576 157.59C423.42 156.757 423.342 155.976 423.342 155.246V133.451H429.631V153.489C429.631 154.374 429.787 155.051 430.1 155.52C430.412 155.989 431.18 156.223 432.404 156.223H432.873V162.355H431.115ZM432.881 162.355V156.223H438.31C438.415 155.78 438.506 155.181 438.584 154.426C438.662 153.671 438.727 152.916 438.779 152.161C438.831 151.379 438.844 150.728 438.818 150.208L446.162 147.63C445.693 149.531 445.224 151.314 444.755 152.981C444.313 154.621 443.779 156.21 443.154 157.746C442.555 159.257 441.774 160.793 440.81 162.355H432.881ZM448.896 162.355C447.099 162.355 445.576 162.186 444.326 161.848C443.102 161.483 442.073 161.066 441.24 160.598C440.407 160.103 439.691 159.647 439.092 159.231L442.412 155.364C442.776 155.546 443.206 155.702 443.701 155.832C444.196 155.963 444.742 156.067 445.341 156.145C445.94 156.197 446.565 156.223 447.216 156.223H448.896V162.355ZM432.881 156.223H433.272V162.355H432.881C432.1 162.355 431.709 161.34 431.709 159.309C431.709 157.252 432.1 156.223 432.881 156.223ZM440.732 172.863L436.592 168.683L440.537 164.543L444.638 168.683L440.732 172.863ZM448.902 162.355V156.223H454.527C454.449 156.249 454.344 156.288 454.214 156.34C454.11 156.392 453.98 156.444 453.824 156.496C453.693 156.522 453.563 156.548 453.433 156.574C452.86 155.819 452.47 155.051 452.261 154.27C452.053 153.489 451.949 152.694 451.949 151.887C451.949 150.82 452.144 149.791 452.535 148.801C452.925 147.812 453.511 146.913 454.292 146.106C455.074 145.299 456.037 144.661 457.183 144.192C458.355 143.724 459.696 143.489 461.206 143.489C462.743 143.489 464.084 143.724 465.229 144.192C466.401 144.661 467.378 145.299 468.159 146.106C468.94 146.913 469.526 147.812 469.917 148.801C470.333 149.791 470.542 150.82 470.542 151.887C470.542 152.721 470.424 153.528 470.19 154.309C469.982 155.064 469.591 155.819 469.018 156.574C468.784 156.522 468.654 156.47 468.628 156.418C468.602 156.366 468.471 156.301 468.237 156.223H472.807V162.355H471.831C469.982 162.355 468.445 162.342 467.221 162.316C465.998 162.264 464.943 162.173 464.058 162.043C463.198 161.913 462.352 161.691 461.519 161.379C461.128 161.509 460.75 161.639 460.386 161.77C460.021 161.874 459.579 161.978 459.058 162.082C458.563 162.16 457.899 162.225 457.066 162.277C456.258 162.329 455.191 162.355 453.863 162.355H448.902ZM461.206 156.535C461.831 156.249 462.352 155.897 462.769 155.481C463.185 155.064 463.498 154.595 463.706 154.075C463.914 153.554 464.019 153.007 464.019 152.434C464.019 151.913 463.901 151.445 463.667 151.028C463.459 150.611 463.146 150.273 462.73 150.012C462.313 149.752 461.805 149.622 461.206 149.622C460.633 149.622 460.138 149.752 459.722 150.012C459.305 150.273 458.98 150.624 458.745 151.067C458.537 151.484 458.433 151.939 458.433 152.434C458.433 153.007 458.537 153.554 458.745 154.075C458.954 154.569 459.266 155.025 459.683 155.442C460.099 155.858 460.607 156.223 461.206 156.535ZM448.902 156.223H449.293V162.355H448.902C448.121 162.355 447.73 161.34 447.73 159.309C447.73 157.252 448.121 156.223 448.902 156.223ZM457.886 140.208L453.785 136.068L457.652 131.888L461.753 136.068L457.886 140.208ZM464.761 140.208L460.659 136.068L464.565 131.888L468.667 136.068L464.761 140.208ZM472.819 162.355V156.223H479.147C479.251 155.78 479.342 155.181 479.42 154.426C479.498 153.671 479.564 152.916 479.616 152.161C479.668 151.379 479.681 150.728 479.655 150.208L486.998 147.63C486.529 149.531 486.061 151.314 485.592 152.981C485.149 154.621 484.615 156.21 483.99 157.746C483.391 159.257 482.61 160.793 481.647 162.355H472.819ZM489.225 162.355C487.428 162.355 485.904 162.186 484.654 161.848C483.404 161.483 482.363 161.066 481.53 160.598C480.722 160.103 480.019 159.647 479.42 159.231L482.662 155.364C483.053 155.546 483.496 155.702 483.99 155.832C484.485 155.963 485.032 156.067 485.631 156.145C486.23 156.197 486.868 156.223 487.545 156.223H490.084V162.355H489.225ZM472.819 156.223H473.21V162.355H472.819C472.038 162.355 471.647 161.34 471.647 159.309C471.647 157.252 472.038 156.223 472.819 156.223ZM480.006 145.364L475.905 141.224L479.772 137.044L483.873 141.224L480.006 145.364ZM486.881 145.364L482.78 141.224L486.686 137.044L490.787 141.224L486.881 145.364ZM516.152 162.355C514.355 162.355 512.832 162.186 511.582 161.848C510.358 161.483 509.33 161.066 508.496 160.598C507.663 160.103 506.947 159.647 506.348 159.231L509.629 155.364C510.827 155.937 512.428 156.223 514.434 156.223H519.355C519.095 155.728 518.834 155.22 518.574 154.7C518.314 154.153 518.014 153.554 517.676 152.903C517.363 152.252 516.973 151.523 516.504 150.715L523.769 145.833C523.977 147.395 524.134 149.062 524.238 150.833C524.368 152.577 524.329 154.413 524.121 156.34C523.938 158.241 523.496 160.246 522.793 162.355H516.152ZM490.099 162.355V156.223H493.849C493.927 155.676 493.992 155.116 494.044 154.543C494.096 153.97 494.109 153.358 494.083 152.707C494.083 152.056 494.044 151.353 493.966 150.598L501.387 148.059C501.023 149.882 500.671 151.432 500.333 152.707C499.994 153.983 499.617 155.116 499.2 156.106C498.783 157.095 498.289 158.072 497.716 159.035C497.169 159.999 496.479 161.106 495.645 162.355H490.099ZM502.208 162.355C500.255 162.355 498.601 162.186 497.247 161.848C495.893 161.483 494.812 161.079 494.005 160.637C493.224 160.168 492.677 159.804 492.364 159.543L494.669 154.973C495.32 155.364 496.114 155.676 497.052 155.91C498.015 156.119 499.07 156.223 500.216 156.223H504.981C505.059 155.832 505.124 155.351 505.176 154.778C505.228 154.179 505.254 153.528 505.254 152.825C505.254 152.096 505.215 151.353 505.137 150.598L512.598 148.059C512.207 149.882 511.83 151.432 511.465 152.707C511.126 153.983 510.749 155.116 510.332 156.106C509.942 157.095 509.46 158.072 508.887 159.035C508.314 159.999 507.624 161.106 506.817 162.355H502.208ZM527.402 162.355C526.022 162.355 524.785 162.238 523.691 162.004C522.623 161.77 521.686 161.47 520.879 161.106C520.071 160.715 519.368 160.337 518.769 159.973L521.152 155.325C521.465 155.481 521.803 155.611 522.168 155.715C522.532 155.819 522.91 155.91 523.3 155.989C523.691 156.067 524.108 156.132 524.55 156.184C524.993 156.21 525.449 156.223 525.917 156.223H527.597V162.355H527.402ZM490.099 156.223H490.489V162.355H490.099C489.318 162.355 488.927 161.34 488.927 159.309C488.927 157.252 489.318 156.223 490.099 156.223ZM527.596 162.355V156.223H527.713C528.025 156.223 528.312 156.158 528.572 156.028C528.858 155.897 529.158 155.676 529.47 155.364C529.783 155.051 530.121 154.621 530.486 154.075C530.877 153.502 531.332 152.786 531.853 151.926C532.608 150.676 533.337 149.622 534.041 148.762C534.744 147.877 535.434 147.174 536.111 146.653C536.814 146.132 537.517 145.755 538.22 145.52C538.923 145.286 539.639 145.169 540.368 145.169C541.566 145.169 542.647 145.429 543.61 145.95C544.574 146.471 545.472 147.304 546.306 148.45C547.139 149.57 547.959 151.08 548.766 152.981C549.209 153.944 549.626 154.661 550.016 155.129C550.433 155.598 550.889 155.897 551.383 156.028C551.878 156.158 552.464 156.223 553.141 156.223H553.571V162.355H551.618C550.498 162.355 549.509 162.173 548.649 161.809C547.816 161.444 547.087 160.962 546.462 160.363C545.837 159.738 545.29 159.074 544.821 158.371C544.379 157.668 544.001 156.978 543.689 156.301C543.194 155.259 542.751 154.361 542.36 153.606C541.97 152.851 541.592 152.278 541.228 151.887C540.863 151.471 540.473 151.262 540.056 151.262C539.822 151.262 539.509 151.405 539.118 151.692C538.728 151.952 538.272 152.395 537.751 153.02C537.257 153.645 536.671 154.504 535.994 155.598C535.317 156.718 534.718 157.668 534.197 158.449C533.676 159.231 533.181 159.882 532.712 160.402C532.244 160.897 531.775 161.288 531.306 161.574C530.838 161.861 530.33 162.069 529.783 162.199C529.236 162.303 528.598 162.355 527.869 162.355H527.596ZM548.337 160.598C547.425 161.639 546.371 162.355 545.173 162.746C544.001 163.137 542.777 163.293 541.501 163.215C540.251 163.137 539.027 162.889 537.829 162.473C536.658 162.056 535.59 161.535 534.626 160.91C533.689 160.285 532.947 159.634 532.4 158.957L535.564 155.246C535.902 155.533 536.423 155.858 537.126 156.223C537.855 156.588 538.702 156.926 539.665 157.239C540.655 157.525 541.709 157.72 542.829 157.824C543.949 157.903 545.082 157.811 546.227 157.551L548.337 160.598ZM527.596 156.223H527.986V162.355H527.596C526.814 162.355 526.424 161.34 526.424 159.309C526.424 157.252 526.814 156.223 527.596 156.223ZM553.572 162.355V156.223H557.361V133.451H563.65V162.355H553.572ZM553.572 156.223H553.963V162.355H553.572C552.791 162.355 552.401 161.34 552.401 159.309C552.401 157.252 552.791 156.223 553.572 156.223ZM569.046 133.451H575.335V162.355H569.046V133.451Z" fill="#4E02B2"/>
<path d="M589.676 162.707H587.45V157.199C591.2 157.16 592.332 156.731 592.332 153.957V148.372H588.075V142.825H612.41V162.355H606.707V148.372H597.957L598.035 155.051C598.074 159.426 595.184 162.707 589.676 162.707ZM628.953 162.355H615.047V156.809H627.976C630.203 156.809 630.632 156.145 630.632 153.684V148.45H620.789V153.879H615.047V142.825H636.452V154.895C636.452 159.465 633.562 162.355 628.953 162.355ZM647.629 162.355H641.887V148.372H638.762V142.825H656.262C661.105 142.825 664.113 145.52 664.113 150.129V162.355H651.379V156.731H658.41V151.34C658.41 148.919 657.668 148.372 655.519 148.372H647.629V162.355Z" fill="#930B9D"/>
<path d="M476.845 232.321C476.55 232.321 476.403 232.174 476.403 231.879V213.213C476.403 212.919 476.55 212.771 476.845 212.771H485.991C486.285 212.771 486.501 212.896 486.637 213.145L493.165 225.487C493.301 225.714 493.437 225.714 493.573 225.487L500.135 213.145C500.271 212.896 500.486 212.771 500.781 212.771H509.893C510.187 212.771 510.335 212.919 510.335 213.213V231.879C510.335 232.174 510.187 232.321 509.893 232.321H505.337C505.042 232.321 504.895 232.174 504.895 231.879V217.701C504.895 217.407 504.747 217.259 504.453 217.259H503.977C503.682 217.259 503.467 217.384 503.331 217.633L495.681 231.947C495.545 232.197 495.329 232.321 495.035 232.321H491.737C491.442 232.321 491.227 232.197 491.091 231.947L483.407 217.633C483.271 217.384 483.055 217.259 482.761 217.259H482.285C481.99 217.259 481.843 217.407 481.843 217.701V231.879C481.843 232.174 481.695 232.321 481.401 232.321H476.845ZM512.952 232.321C512.657 232.321 512.578 232.197 512.714 231.947L522.71 213.145C522.846 212.896 523.061 212.771 523.356 212.771H530.394C530.688 212.771 530.904 212.896 531.04 213.145L541.104 231.947C541.149 232.038 541.172 232.106 541.172 232.151C541.172 232.265 541.07 232.321 540.866 232.321H535.358C535.063 232.321 534.848 232.185 534.712 231.913L533.114 228.717C532.978 228.445 532.762 228.309 532.468 228.309H521.35C521.055 228.309 520.84 228.445 520.704 228.717L519.106 231.913C518.97 232.185 518.754 232.321 518.46 232.321H512.952ZM530.394 224.127C530.688 224.127 530.768 223.991 530.632 223.719L527.776 218.211C527.64 217.939 527.424 217.803 527.13 217.803H526.654C526.359 217.803 526.144 217.939 526.008 218.211L523.186 223.719C523.14 223.855 523.118 223.935 523.118 223.957C523.118 224.071 523.22 224.127 523.424 224.127H530.394ZM543.915 232.321C543.62 232.321 543.473 232.174 543.473 231.879V213.213C543.473 212.919 543.62 212.771 543.915 212.771H558.195C560.167 212.771 561.776 212.987 563.023 213.417C564.292 213.825 565.256 214.551 565.913 215.593C566.57 216.613 566.899 218.053 566.899 219.911V220.149C566.899 221.849 566.559 223.187 565.879 224.161C565.222 225.113 564.258 225.793 562.989 226.201C561.742 226.587 560.144 226.779 558.195 226.779H549.593C549.298 226.779 549.151 226.927 549.151 227.221V231.879C549.151 232.174 549.004 232.321 548.709 232.321H543.915ZM558.195 222.257C559.192 222.257 559.918 222.076 560.371 221.713C560.824 221.351 561.051 220.807 561.051 220.081V219.911C561.051 219.095 560.824 218.483 560.371 218.075C559.94 217.645 559.215 217.429 558.195 217.429H549.593C549.298 217.429 549.151 217.577 549.151 217.871V221.815C549.151 222.11 549.298 222.257 549.593 222.257H558.195Z" fill="#000A61"/>
</svg>
