<svg width="331" height="274" viewBox="0 0 331 274" fill="none" xmlns="http://www.w3.org/2000/svg">
<path d="M323.146 137.234C323.342 137.039 323.342 136.723 323.146 136.527L319.964 133.345C319.769 133.15 319.452 133.15 319.257 133.345C319.062 133.541 319.062 133.857 319.257 134.052L322.086 136.881L319.257 139.709C319.062 139.905 319.062 140.221 319.257 140.416C319.452 140.612 319.769 140.612 319.964 140.416L323.146 137.234ZM68.8984 136.881V137.381H322.793V136.881V136.381H68.8984V136.881Z" fill="#8F8F8F"/>
<path d="M284.715 2.11188C284.777 1.8425 284.61 1.57384 284.341 1.51179L279.961 0.500655C279.693 0.438609 279.424 0.606671 279.362 0.876041C279.3 1.14541 279.468 1.41408 279.736 1.47612L283.629 2.37491L282.729 6.27678C282.666 6.54615 282.834 6.81482 283.103 6.87686C283.371 6.93891 283.64 6.77085 283.702 6.50148L284.715 2.11188ZM68.9141 136.881L69.1785 137.305L69.6347 137.019L69.3702 136.595L69.1058 136.171L68.6496 136.457L68.9141 136.881ZM70.2826 136.024L70.5471 136.448L71.4594 135.876L71.1949 135.452L70.9305 135.028L70.0181 135.599L70.2826 136.024ZM72.1073 134.881L72.3718 135.305L73.2841 134.733L73.0196 134.309L72.7552 133.885L71.8428 134.456L72.1073 134.881ZM73.932 133.737L74.1965 134.162L75.1088 133.59L74.8443 133.166L74.5799 132.742L73.6675 133.313L73.932 133.737ZM75.7567 132.594L76.0212 133.019L76.9335 132.447L76.669 132.023L76.4046 131.599L75.4922 132.17L75.7567 132.594ZM77.5814 131.451L77.8459 131.876L78.7582 131.304L78.4937 130.88L78.2293 130.455L77.3169 131.027L77.5814 131.451ZM79.4061 130.308L79.6706 130.733L80.5829 130.161L80.3184 129.737L80.054 129.312L79.1416 129.884L79.4061 130.308ZM81.2308 129.165L81.4953 129.59L82.4076 129.018L82.1431 128.594L81.8787 128.169L80.9663 128.741L81.2308 129.165ZM83.0555 128.022L83.32 128.446L84.2323 127.875L83.9678 127.451L83.7034 127.026L82.791 127.598L83.0555 128.022ZM84.8802 126.879L85.1447 127.303L86.057 126.732L85.7925 126.308L85.5281 125.883L84.6157 126.455L84.8802 126.879ZM86.7049 125.736L86.9694 126.16L87.8817 125.589L87.6172 125.164L87.3528 124.74L86.4404 125.312L86.7049 125.736ZM88.5296 124.593L88.7941 125.017L89.7064 124.446L89.4419 124.021L89.1774 123.597L88.2651 124.169L88.5296 124.593ZM90.3543 123.45L90.6188 123.874L91.5311 123.303L91.2666 122.878L91.0021 122.454L90.0898 123.026L90.3543 123.45ZM92.179 122.307L92.4435 122.731L93.3558 122.16L93.0913 121.735L92.8268 121.311L91.9145 121.882L92.179 122.307ZM94.0037 121.164L94.2682 121.588L95.1805 121.017L94.916 120.592L94.6515 120.168L93.7392 120.739L94.0037 121.164ZM95.8284 120.021L96.0929 120.445L97.0052 119.873L96.7407 119.449L96.4762 119.025L95.5639 119.596L95.8284 120.021ZM97.6531 118.878L97.9176 119.302L98.8299 118.73L98.5654 118.306L98.3009 117.882L97.3886 118.453L97.6531 118.878ZM99.4778 117.735L99.7423 118.159L100.655 117.587L100.39 117.163L100.126 116.739L99.2133 117.31L99.4778 117.735ZM101.302 116.592L101.567 117.016L102.479 116.444L102.215 116.02L101.95 115.596L101.038 116.167L101.302 116.592ZM103.127 115.448L103.392 115.873L104.304 115.301L104.04 114.877L103.775 114.453L102.863 115.024L103.127 115.448ZM104.952 114.305L105.216 114.73L106.129 114.158L105.864 113.734L105.6 113.31L104.687 113.881L104.952 114.305ZM106.777 113.162L107.041 113.587L107.953 113.015L107.689 112.591L107.424 112.166L106.512 112.738L106.777 113.162ZM108.601 112.019L108.866 112.444L109.778 111.872L109.514 111.448L109.249 111.023L108.337 111.595L108.601 112.019ZM110.426 110.876L110.69 111.301L111.603 110.729L111.338 110.305L111.074 109.88L110.162 110.452L110.426 110.876ZM112.251 109.733L112.515 110.157L113.428 109.586L113.163 109.162L112.899 108.737L111.986 109.309L112.251 109.733ZM114.075 108.59L114.34 109.014L115.252 108.443L114.988 108.019L114.723 107.594L113.811 108.166L114.075 108.59ZM115.9 107.447L116.165 107.871L117.077 107.3L116.812 106.875L116.548 106.451L115.636 107.023L115.9 107.447ZM117.725 106.304L117.989 106.728L118.902 106.157L118.637 105.732L118.373 105.308L117.46 105.88L117.725 106.304ZM119.55 105.161L119.814 105.585L120.726 105.014L120.462 104.589L120.197 104.165L119.285 104.737L119.55 105.161ZM121.374 104.018L121.639 104.442L122.551 103.871L122.287 103.446L122.022 103.022L121.11 103.593L121.374 104.018ZM123.199 102.875L123.463 103.299L124.376 102.728L124.111 102.303L123.847 101.879L122.934 102.45L123.199 102.875ZM125.024 101.732L125.288 102.156L126.2 101.584L125.936 101.16L125.671 100.736L124.759 101.307L125.024 101.732ZM126.848 100.589L127.113 101.013L128.025 100.441L127.761 100.017L127.496 99.5928L126.584 100.164L126.848 100.589ZM128.673 99.4456L128.937 99.8699L129.85 99.2983L129.585 98.874L129.321 98.4497L128.409 99.0212L128.673 99.4456ZM130.498 98.3025L130.762 98.7268L131.675 98.1553L131.41 97.731L131.146 97.3066L130.233 97.8782L130.498 98.3025ZM132.322 97.1594L132.587 97.5837L133.499 97.0122L133.235 96.5879L132.97 96.1636L132.058 96.7351L132.322 97.1594ZM134.147 96.0164L134.412 96.4407L135.324 95.8691L135.059 95.4448L134.795 95.0205L133.883 95.592L134.147 96.0164ZM135.972 94.8733L136.236 95.2976L137.149 94.7261L136.884 94.3018L136.62 93.8774L135.707 94.449L135.972 94.8733ZM137.797 93.7302L138.061 94.1546L138.973 93.583L138.709 93.1587L138.444 92.7344L137.532 93.3059L137.797 93.7302ZM139.621 92.5872L139.886 93.0115L140.798 92.44L140.534 92.0156L140.269 91.5913L139.357 92.1628L139.621 92.5872ZM141.446 91.4441L141.71 91.8684L142.623 91.2969L142.358 90.8726L142.094 90.4483L141.181 91.0198L141.446 91.4441ZM143.271 90.301L143.535 90.7254L144.447 90.1538L144.183 89.7295L143.918 89.3052L143.006 89.8767L143.271 90.301ZM145.095 89.158L145.36 89.5823L146.272 89.0108L146.008 88.5864L145.743 88.1621L144.831 88.7337L145.095 89.158ZM146.92 88.0149L147.185 88.4392L148.097 87.8677L147.832 87.4434L147.568 87.0191L146.656 87.5906L146.92 88.0149ZM148.745 86.8719L149.009 87.2962L149.922 86.7246L149.657 86.3003L149.393 85.876L148.48 86.4475L148.745 86.8719ZM150.569 85.7288L150.834 86.1531L151.746 85.5816L151.482 85.1573L151.217 84.7329L150.305 85.3045L150.569 85.7288ZM152.394 84.5857L152.659 85.01L153.571 84.4385L153.306 84.0142L153.042 83.5899L152.13 84.1614L152.394 84.5857ZM154.219 83.4427L154.483 83.867L155.396 83.2955L155.131 82.8711L154.867 82.4468L153.954 83.0183L154.219 83.4427ZM156.044 82.2996L156.308 82.7239L157.22 82.1524L156.956 81.7281L156.691 81.3037L155.779 81.8753L156.044 82.2996ZM157.868 81.1565L158.133 81.5809L159.045 81.0093L158.781 80.585L158.516 80.1607L157.604 80.7322L157.868 81.1565ZM159.693 80.0135L159.957 80.4378L160.87 79.8663L160.605 79.4419L160.341 79.0176L159.428 79.5891L159.693 80.0135ZM161.518 78.8704L161.782 79.2947L162.694 78.7232L162.43 78.2989L162.166 77.8746L161.253 78.4461L161.518 78.8704ZM163.342 77.7273L163.607 78.1517L164.519 77.5801L164.255 77.1558L163.99 76.7315L163.078 77.303L163.342 77.7273ZM165.167 76.5843L165.432 77.0086L166.344 76.4371L166.079 76.0128L165.815 75.5884L164.903 76.16L165.167 76.5843ZM166.992 75.4412L167.256 75.8655L168.169 75.294L167.904 74.8697L167.64 74.4454L166.727 75.0169L166.992 75.4412ZM168.816 74.2982L169.081 74.7225L169.993 74.1509L169.729 73.7266L169.464 73.3023L168.552 73.8738L168.816 74.2982ZM170.641 73.1551L170.906 73.5794L171.818 73.0079L171.554 72.5836L171.289 72.1592L170.377 72.7308L170.641 73.1551ZM172.466 72.012L172.73 72.4363L173.643 71.8648L173.378 71.4405L173.114 71.0162L172.201 71.5877L172.466 72.012ZM174.291 70.869L174.555 71.2933L175.467 70.7218L175.203 70.2974L174.938 69.8731L174.026 70.4446L174.291 70.869ZM176.115 69.7259L176.38 70.1502L177.292 69.5787L177.028 69.1544L176.763 68.73L175.851 69.3016L176.115 69.7259ZM177.94 68.5828L178.204 69.0072L179.117 68.4356L178.852 68.0113L178.588 67.587L177.675 68.1585L177.94 68.5828ZM179.765 67.4398L180.029 67.8641L180.941 67.2926L180.677 66.8682L180.413 66.4439L179.5 67.0155L179.765 67.4398ZM181.589 66.2967L181.854 66.721L182.766 66.1495L182.502 65.7252L182.237 65.3009L181.325 65.8724L181.589 66.2967ZM183.414 65.1536L183.679 65.578L184.591 65.0064L184.326 64.5821L184.062 64.1578L183.15 64.7293L183.414 65.1536ZM185.239 64.0106L185.503 64.4349L186.416 63.8634L186.151 63.4391L185.887 63.0147L184.974 63.5863L185.239 64.0106ZM187.063 62.8675L187.328 63.2918L188.24 62.7203L187.976 62.296L187.711 61.8717L186.799 62.4432L187.063 62.8675ZM188.888 61.7245L189.153 62.1488L190.065 61.5772L189.801 61.1529L189.536 60.7286L188.624 61.3001L188.888 61.7245ZM190.713 60.5814L190.977 61.0057L191.89 60.4342L191.625 60.0099L191.361 59.5855L190.448 60.1571L190.713 60.5814ZM192.538 59.4383L192.802 59.8626L193.714 59.2911L193.45 58.8668L193.185 58.4425L192.273 59.014L192.538 59.4383ZM194.362 58.2953L194.627 58.7196L195.539 58.1481L195.275 57.7237L195.01 57.2994L194.098 57.8709L194.362 58.2953ZM196.187 57.1522L196.451 57.5765L197.364 57.005L197.099 56.5807L196.835 56.1563L195.922 56.7279L196.187 57.1522ZM198.012 56.0091L198.276 56.4335L199.189 55.8619L198.924 55.4376L198.66 55.0133L197.747 55.5848L198.012 56.0091ZM199.836 54.8661L200.101 55.2904L201.013 54.7189L200.749 54.2945L200.484 53.8702L199.572 54.4418L199.836 54.8661ZM201.661 53.723L201.926 54.1473L202.838 53.5758L202.573 53.1515L202.309 52.7272L201.397 53.2987L201.661 53.723ZM203.486 52.5799L203.75 53.0043L204.663 52.4327L204.398 52.0084L204.134 51.5841L203.221 52.1556L203.486 52.5799ZM205.31 51.4369L205.575 51.8612L206.487 51.2897L206.223 50.8654L205.958 50.441L205.046 51.0126L205.31 51.4369ZM207.135 50.2938L207.4 50.7181L208.312 50.1466L208.048 49.7223L207.783 49.298L206.871 49.8695L207.135 50.2938ZM208.96 49.1508L209.224 49.5751L210.137 49.0035L209.872 48.5792L209.608 48.1549L208.695 48.7264L208.96 49.1508ZM210.785 48.0077L211.049 48.432L211.961 47.8605L211.697 47.4362L211.432 47.0118L210.52 47.5834L210.785 48.0077ZM212.609 46.8646L212.874 47.289L213.786 46.7174L213.522 46.2931L213.257 45.8688L212.345 46.4403L212.609 46.8646ZM214.434 45.7216L214.698 46.1459L215.611 45.5744L215.346 45.15L215.082 44.7257L214.17 45.2972L214.434 45.7216ZM216.259 44.5785L216.523 45.0028L217.436 44.4313L217.171 44.007L216.907 43.5826L215.994 44.1542L216.259 44.5785ZM218.083 43.4354L218.348 43.8598L219.26 43.2882L218.996 42.8639L218.731 42.4396L217.819 43.0111L218.083 43.4354ZM219.908 42.2924L220.173 42.7167L221.085 42.1452L220.82 41.7208L220.556 41.2965L219.644 41.8681L219.908 42.2924ZM221.733 41.1493L221.997 41.5736L222.91 41.0021L222.645 40.5778L222.381 40.1535L221.468 40.725L221.733 41.1493ZM223.557 40.0063L223.822 40.4306L224.734 39.859L224.47 39.4347L224.205 39.0104L223.293 39.5819L223.557 40.0063ZM225.382 38.8632L225.647 39.2875L226.559 38.716L226.295 38.2917L226.03 37.8673L225.118 38.4389L225.382 38.8632ZM227.207 37.7201L227.471 38.1444L228.384 37.5729L228.119 37.1486L227.855 36.7243L226.942 37.2958L227.207 37.7201ZM229.032 36.5771L229.296 37.0014L230.208 36.4298L229.944 36.0055L229.679 35.5812L228.767 36.1527L229.032 36.5771ZM230.856 35.434L231.121 35.8583L232.033 35.2868L231.769 34.8625L231.504 34.4381L230.592 35.0097L230.856 35.434ZM232.681 34.2909L232.945 34.7153L233.858 34.1437L233.593 33.7194L233.329 33.2951L232.417 33.8666L232.681 34.2909ZM234.506 33.1479L234.77 33.5722L235.683 33.0007L235.418 32.5763L235.154 32.152L234.241 32.7235L234.506 33.1479ZM236.33 32.0048L236.595 32.4291L237.507 31.8576L237.243 31.4333L236.978 31.0089L236.066 31.5805L236.33 32.0048ZM238.155 30.8617L238.42 31.2861L239.332 30.7145L239.067 30.2902L238.803 29.8659L237.891 30.4374L238.155 30.8617ZM239.98 29.7187L240.244 30.143L241.157 29.5715L240.892 29.1471L240.628 28.7228L239.715 29.2944L239.98 29.7187ZM241.805 28.5756L242.069 28.9999L242.981 28.4284L242.717 28.0041L242.452 27.5798L241.54 28.1513L241.805 28.5756ZM243.629 27.4325L243.894 27.8569L244.806 27.2853L244.542 26.861L244.277 26.4367L243.365 27.0082L243.629 27.4325ZM245.454 26.2895L245.718 26.7138L246.631 26.1423L246.366 25.718L246.102 25.2936L245.189 25.8652L245.454 26.2895ZM247.279 25.1464L247.543 25.5707L248.455 24.9992L248.191 24.5749L247.926 24.1506L247.014 24.7221L247.279 25.1464ZM249.103 24.0034L249.368 24.4277L250.28 23.8561L250.016 23.4318L249.751 23.0075L248.839 23.579L249.103 24.0034ZM250.928 22.8603L251.193 23.2846L252.105 22.7131L251.84 22.2888L251.576 21.8644L250.664 22.436L250.928 22.8603ZM252.753 21.7172L253.017 22.1416L253.93 21.57L253.665 21.1457L253.401 20.7214L252.488 21.2929L252.753 21.7172ZM254.577 20.5742L254.842 20.9985L255.754 20.427L255.49 20.0026L255.225 19.5783L254.313 20.1498L254.577 20.5742ZM256.402 19.4311L256.667 19.8554L257.579 19.2839L257.314 18.8596L257.05 18.4352L256.138 19.0068L256.402 19.4311ZM258.227 18.288L258.491 18.7124L259.404 18.1408L259.139 17.7165L258.875 17.2922L257.962 17.8637L258.227 18.288ZM260.052 17.145L260.316 17.5693L261.228 16.9978L260.964 16.5734L260.699 16.1491L259.787 16.7207L260.052 17.145ZM261.876 16.0019L262.141 16.4262L263.053 15.8547L262.789 15.4304L262.524 15.0061L261.612 15.5776L261.876 16.0019ZM263.701 14.8588L263.965 15.2832L264.878 14.7116L264.613 14.2873L264.349 13.863L263.436 14.4345L263.701 14.8588ZM265.526 13.7158L265.79 14.1401L266.702 13.5686L266.438 13.1443L266.174 12.7199L265.261 13.2915L265.526 13.7158ZM267.35 12.5727L267.615 12.997L268.527 12.4255L268.263 12.0012L267.998 11.5769L267.086 12.1484L267.35 12.5727ZM269.175 11.4297L269.44 11.854L270.352 11.2824L270.087 10.8581L269.823 10.4338L268.911 11.0053L269.175 11.4297ZM271 10.2866L271.264 10.7109L272.177 10.1394L271.912 9.71506L271.648 9.29074L270.735 9.86227L271 10.2866ZM272.824 9.14353L273.089 9.56785L274.001 8.99632L273.737 8.572L273.472 8.14767L272.56 8.71921L272.824 9.14353ZM274.649 8.00047L274.914 8.42479L275.826 7.85326L275.562 7.42893L275.297 7.00461L274.385 7.57614L274.649 8.00047ZM276.474 6.8574L276.738 7.28172L277.651 6.71019L277.386 6.28587L277.122 5.86155L276.209 6.43308L276.474 6.8574ZM278.299 5.71434L278.563 6.13866L279.475 5.56713L279.211 5.14281L278.946 4.71848L278.034 5.29002L278.299 5.71434ZM280.123 4.57127L280.388 4.9956L281.3 4.42406L281.036 3.99974L280.771 3.57542L279.859 4.14695L280.123 4.57127ZM281.948 3.42821L282.212 3.85253L283.125 3.281L282.86 2.85668L282.596 2.43236L281.683 3.00389L281.948 3.42821ZM283.773 2.28515L284.037 2.70947L284.493 2.42385L284.229 1.99952L283.964 1.5752L283.508 1.86082L283.773 2.28515Z" fill="#698CFF"/>
<path d="M320.737 101.758C320.903 101.537 320.859 101.224 320.638 101.057L317.046 98.3502C316.825 98.1841 316.512 98.2282 316.346 98.4488C316.179 98.6695 316.223 98.983 316.444 99.1491L319.637 101.556L317.229 104.751C317.063 104.972 317.107 105.285 317.327 105.451C317.548 105.618 317.861 105.573 318.028 105.353L320.737 101.758ZM68.9141 136.881L68.9835 137.376L320.407 101.952L320.337 101.457L320.268 100.962L68.8446 136.386L68.9141 136.881Z" fill="#698CFF"/>
<path d="M313.215 207.477C313.457 207.343 313.544 207.039 313.41 206.797L311.227 202.859C311.093 202.617 310.789 202.53 310.547 202.663C310.306 202.797 310.219 203.101 310.353 203.343L312.293 206.844L308.797 208.782C308.556 208.916 308.469 209.22 308.603 209.462C308.737 209.703 309.041 209.791 309.282 209.657L313.215 207.477ZM68.9141 136.881L68.7766 137.362L312.835 207.52L312.973 207.039L313.11 206.559L69.0516 136.4L68.9141 136.881Z" fill="#FF6B6B"/>
<path d="M313.41 66.9646C313.544 66.7229 313.457 66.4186 313.215 66.2848L309.282 64.1046C309.041 63.9708 308.737 64.0583 308.603 64.2999C308.469 64.5416 308.556 64.846 308.797 64.9798L312.293 66.9177L310.353 70.4185C310.219 70.6602 310.306 70.9646 310.547 71.0984C310.789 71.2322 311.093 71.1447 311.227 70.903L313.41 66.9646ZM68.9141 136.881L69.0516 137.362L313.11 67.2031L312.973 66.7224L312.835 66.2417L68.7766 136.4L68.9141 136.881Z" fill="#698CFF"/>
<path d="M320.662 172.704C320.882 172.538 320.926 172.225 320.76 172.004L318.051 168.409C317.885 168.188 317.571 168.144 317.351 168.31C317.13 168.476 317.086 168.79 317.253 169.011L319.661 172.206L316.467 174.613C316.247 174.779 316.203 175.092 316.369 175.313C316.535 175.534 316.849 175.578 317.069 175.412L320.662 172.704ZM68.9375 136.881L68.8681 137.376L320.291 172.8L320.361 172.305L320.43 171.81L69.0069 136.386L68.9375 136.881Z" fill="#FF6B6B"/>
<path d="M301.037 240.872C301.295 240.773 301.423 240.483 301.324 240.225L299.71 236.02C299.611 235.762 299.322 235.633 299.065 235.732C298.807 235.831 298.678 236.12 298.778 236.378L300.212 240.116L296.481 241.548C296.224 241.647 296.095 241.937 296.194 242.195C296.294 242.453 296.583 242.582 296.84 242.483L301.037 240.872ZM68.9141 136.877L68.7111 137.334L300.655 240.861L300.858 240.404L301.061 239.947L69.117 136.42L68.9141 136.877Z" fill="#FF6B6B"/>
<path d="M301.324 33.5178C301.423 33.2598 301.295 32.9704 301.037 32.8716L296.84 31.2604C296.583 31.1615 296.293 31.2906 296.194 31.5486C296.095 31.8067 296.224 32.096 296.481 32.1949L300.212 33.627L298.777 37.3648C298.678 37.6228 298.807 37.9122 299.064 38.011C299.322 38.1099 299.611 37.9809 299.71 37.7228L301.324 33.5178ZM68.9141 136.866L69.117 137.323L301.061 33.7957L300.858 33.3388L300.655 32.8818L68.7111 136.409L68.9141 136.866Z" fill="#698CFF"/>
<path d="M284.341 272.25C284.61 272.188 284.777 271.919 284.715 271.65L283.702 267.26C283.64 266.991 283.371 266.823 283.103 266.885C282.834 266.947 282.666 267.216 282.729 267.485L283.629 271.387L279.736 272.286C279.468 272.348 279.3 272.616 279.362 272.886C279.424 273.155 279.693 273.323 279.961 273.261L284.341 272.25ZM68.9141 136.881L68.6496 137.305L69.1058 137.591L69.3702 137.167L69.6347 136.742L69.1785 136.457L68.9141 136.881ZM70.2826 137.738L70.0181 138.162L70.9305 138.734L71.1949 138.31L71.4594 137.885L70.5471 137.314L70.2826 137.738ZM72.1073 138.881L71.8428 139.306L72.7552 139.877L73.0196 139.453L73.2841 139.028L72.3718 138.457L72.1073 138.881ZM73.932 140.024L73.6675 140.449L74.5799 141.02L74.8443 140.596L75.1088 140.171L74.1965 139.6L73.932 140.024ZM75.7567 141.167L75.4922 141.592L76.4046 142.163L76.669 141.739L76.9335 141.315L76.0212 140.743L75.7567 141.167ZM77.5814 142.31L77.3169 142.735L78.2293 143.306L78.4937 142.882L78.7582 142.458L77.8459 141.886L77.5814 142.31ZM79.4061 143.453L79.1416 143.878L80.054 144.449L80.3184 144.025L80.5829 143.601L79.6706 143.029L79.4061 143.453ZM81.2308 144.597L80.9663 145.021L81.8787 145.592L82.1431 145.168L82.4076 144.744L81.4953 144.172L81.2308 144.597ZM83.0555 145.74L82.791 146.164L83.7034 146.735L83.9678 146.311L84.2323 145.887L83.32 145.315L83.0555 145.74ZM84.8802 146.883L84.6157 147.307L85.5281 147.879L85.7925 147.454L86.057 147.03L85.1447 146.458L84.8802 146.883ZM86.7049 148.026L86.4404 148.45L87.3528 149.022L87.6172 148.597L87.8817 148.173L86.9694 147.601L86.7049 148.026ZM88.5296 149.169L88.2651 149.593L89.1774 150.165L89.4419 149.74L89.7064 149.316L88.7941 148.744L88.5296 149.169ZM90.3543 150.312L90.0898 150.736L91.0021 151.308L91.2666 150.883L91.5311 150.459L90.6188 149.888L90.3543 150.312ZM92.179 151.455L91.9145 151.879L92.8268 152.451L93.0913 152.026L93.3558 151.602L92.4435 151.031L92.179 151.455ZM94.0037 152.598L93.7392 153.022L94.6515 153.594L94.916 153.169L95.1805 152.745L94.2682 152.174L94.0037 152.598ZM95.8284 153.741L95.5639 154.165L96.4762 154.737L96.7407 154.313L97.0052 153.888L96.0929 153.317L95.8284 153.741ZM97.6531 154.884L97.3886 155.308L98.3009 155.88L98.5654 155.456L98.8299 155.031L97.9176 154.46L97.6531 154.884ZM99.4778 156.027L99.2133 156.451L100.126 157.023L100.39 156.599L100.655 156.174L99.7423 155.603L99.4778 156.027ZM101.302 157.17L101.038 157.595L101.95 158.166L102.215 157.742L102.479 157.317L101.567 156.746L101.302 157.17ZM103.127 158.313L102.863 158.738L103.775 159.309L104.04 158.885L104.304 158.46L103.392 157.889L103.127 158.313ZM104.952 159.456L104.687 159.881L105.6 160.452L105.864 160.028L106.129 159.604L105.216 159.032L104.952 159.456ZM106.777 160.599L106.512 161.024L107.424 161.595L107.689 161.171L107.953 160.747L107.041 160.175L106.777 160.599ZM108.601 161.742L108.337 162.167L109.249 162.738L109.514 162.314L109.778 161.89L108.866 161.318L108.601 161.742ZM110.426 162.886L110.162 163.31L111.074 163.881L111.338 163.457L111.603 163.033L110.69 162.461L110.426 162.886ZM112.251 164.029L111.986 164.453L112.899 165.024L113.163 164.6L113.428 164.176L112.515 163.604L112.251 164.029ZM114.075 165.172L113.811 165.596L114.723 166.168L114.988 165.743L115.252 165.319L114.34 164.747L114.075 165.172ZM115.9 166.315L115.636 166.739L116.548 167.311L116.812 166.886L117.077 166.462L116.165 165.89L115.9 166.315ZM117.725 167.458L117.46 167.882L118.373 168.454L118.637 168.029L118.902 167.605L117.989 167.033L117.725 167.458ZM119.55 168.601L119.285 169.025L120.197 169.597L120.462 169.172L120.726 168.748L119.814 168.177L119.55 168.601ZM121.374 169.744L121.11 170.168L122.022 170.74L122.287 170.315L122.551 169.891L121.639 169.32L121.374 169.744ZM123.199 170.887L122.934 171.311L123.847 171.883L124.111 171.459L124.376 171.034L123.463 170.463L123.199 170.887ZM125.024 172.03L124.759 172.454L125.671 173.026L125.936 172.602L126.2 172.177L125.288 171.606L125.024 172.03ZM126.848 173.173L126.584 173.597L127.496 174.169L127.761 173.745L128.025 173.32L127.113 172.749L126.848 173.173ZM128.673 174.316L128.409 174.74L129.321 175.312L129.585 174.888L129.85 174.463L128.937 173.892L128.673 174.316ZM130.498 175.459L130.233 175.884L131.146 176.455L131.41 176.031L131.675 175.606L130.762 175.035L130.498 175.459ZM132.322 176.602L132.058 177.027L132.97 177.598L133.235 177.174L133.499 176.75L132.587 176.178L132.322 176.602ZM134.147 177.745L133.883 178.17L134.795 178.741L135.059 178.317L135.324 177.893L134.412 177.321L134.147 177.745ZM135.972 178.888L135.707 179.313L136.62 179.884L136.884 179.46L137.149 179.036L136.236 178.464L135.972 178.888ZM137.797 180.031L137.532 180.456L138.444 181.027L138.709 180.603L138.973 180.179L138.061 179.607L137.797 180.031ZM139.621 181.175L139.357 181.599L140.269 182.17L140.534 181.746L140.798 181.322L139.886 180.75L139.621 181.175ZM141.446 182.318L141.181 182.742L142.094 183.313L142.358 182.889L142.623 182.465L141.71 181.893L141.446 182.318ZM143.271 183.461L143.006 183.885L143.918 184.457L144.183 184.032L144.447 183.608L143.535 183.036L143.271 183.461ZM145.095 184.604L144.831 185.028L145.743 185.6L146.008 185.175L146.272 184.751L145.36 184.179L145.095 184.604ZM146.92 185.747L146.656 186.171L147.568 186.743L147.832 186.318L148.097 185.894L147.185 185.322L146.92 185.747ZM148.745 186.89L148.48 187.314L149.393 187.886L149.657 187.461L149.922 187.037L149.009 186.466L148.745 186.89ZM150.569 188.033L150.305 188.457L151.217 189.029L151.482 188.604L151.746 188.18L150.834 187.609L150.569 188.033ZM152.394 189.176L152.13 189.6L153.042 190.172L153.306 189.748L153.571 189.323L152.659 188.752L152.394 189.176ZM154.219 190.319L153.954 190.743L154.867 191.315L155.131 190.891L155.396 190.466L154.483 189.895L154.219 190.319ZM156.044 191.462L155.779 191.886L156.691 192.458L156.956 192.034L157.22 191.609L156.308 191.038L156.044 191.462ZM157.868 192.605L157.604 193.03L158.516 193.601L158.781 193.177L159.045 192.752L158.133 192.181L157.868 192.605ZM159.693 193.748L159.428 194.173L160.341 194.744L160.605 194.32L160.87 193.895L159.957 193.324L159.693 193.748ZM161.518 194.891L161.253 195.316L162.166 195.887L162.43 195.463L162.694 195.039L161.782 194.467L161.518 194.891ZM163.342 196.034L163.078 196.459L163.99 197.03L164.255 196.606L164.519 196.182L163.607 195.61L163.342 196.034ZM165.167 197.177L164.903 197.602L165.815 198.173L166.079 197.749L166.344 197.325L165.432 196.753L165.167 197.177ZM166.992 198.321L166.727 198.745L167.64 199.316L167.904 198.892L168.169 198.468L167.256 197.896L166.992 198.321ZM168.816 199.464L168.552 199.888L169.464 200.459L169.729 200.035L169.993 199.611L169.081 199.039L168.816 199.464ZM170.641 200.607L170.377 201.031L171.289 201.602L171.554 201.178L171.818 200.754L170.906 200.182L170.641 200.607ZM172.466 201.75L172.201 202.174L173.114 202.746L173.378 202.321L173.643 201.897L172.73 201.325L172.466 201.75ZM174.291 202.893L174.026 203.317L174.938 203.889L175.203 203.464L175.467 203.04L174.555 202.468L174.291 202.893ZM176.115 204.036L175.851 204.46L176.763 205.032L177.028 204.607L177.292 204.183L176.38 203.612L176.115 204.036ZM177.94 205.179L177.675 205.603L178.588 206.175L178.852 205.75L179.117 205.326L178.204 204.755L177.94 205.179ZM179.765 206.322L179.5 206.746L180.413 207.318L180.677 206.893L180.941 206.469L180.029 205.898L179.765 206.322ZM181.589 207.465L181.325 207.889L182.237 208.461L182.502 208.037L182.766 207.612L181.854 207.041L181.589 207.465ZM183.414 208.608L183.15 209.032L184.062 209.604L184.326 209.18L184.591 208.755L183.679 208.184L183.414 208.608ZM185.239 209.751L184.974 210.175L185.887 210.747L186.151 210.323L186.416 209.898L185.503 209.327L185.239 209.751ZM187.063 210.894L186.799 211.319L187.711 211.89L187.976 211.466L188.24 211.041L187.328 210.47L187.063 210.894ZM188.888 212.037L188.624 212.462L189.536 213.033L189.801 212.609L190.065 212.184L189.153 211.613L188.888 212.037ZM190.713 213.18L190.448 213.605L191.361 214.176L191.625 213.752L191.89 213.328L190.977 212.756L190.713 213.18ZM192.538 214.323L192.273 214.748L193.185 215.319L193.45 214.895L193.714 214.471L192.802 213.899L192.538 214.323ZM194.362 215.466L194.098 215.891L195.01 216.462L195.275 216.038L195.539 215.614L194.627 215.042L194.362 215.466ZM196.187 216.61L195.922 217.034L196.835 217.605L197.099 217.181L197.364 216.757L196.451 216.185L196.187 216.61ZM198.012 217.753L197.747 218.177L198.66 218.748L198.924 218.324L199.189 217.9L198.276 217.328L198.012 217.753ZM199.836 218.896L199.572 219.32L200.484 219.891L200.749 219.467L201.013 219.043L200.101 218.471L199.836 218.896ZM201.661 220.039L201.397 220.463L202.309 221.035L202.573 220.61L202.838 220.186L201.926 219.614L201.661 220.039ZM203.486 221.182L203.221 221.606L204.134 222.178L204.398 221.753L204.663 221.329L203.75 220.757L203.486 221.182ZM205.31 222.325L205.046 222.749L205.958 223.321L206.223 222.896L206.487 222.472L205.575 221.901L205.31 222.325ZM207.135 223.468L206.871 223.892L207.783 224.464L208.048 224.039L208.312 223.615L207.4 223.044L207.135 223.468ZM208.96 224.611L208.695 225.035L209.608 225.607L209.872 225.182L210.137 224.758L209.224 224.187L208.96 224.611ZM210.785 225.754L210.52 226.178L211.432 226.75L211.697 226.326L211.961 225.901L211.049 225.33L210.785 225.754ZM212.609 226.897L212.345 227.321L213.257 227.893L213.522 227.469L213.786 227.044L212.874 226.473L212.609 226.897ZM214.434 228.04L214.17 228.464L215.082 229.036L215.346 228.612L215.611 228.187L214.698 227.616L214.434 228.04ZM216.259 229.183L215.994 229.608L216.907 230.179L217.171 229.755L217.436 229.33L216.523 228.759L216.259 229.183ZM218.083 230.326L217.819 230.751L218.731 231.322L218.996 230.898L219.26 230.473L218.348 229.902L218.083 230.326ZM219.908 231.469L219.644 231.894L220.556 232.465L220.82 232.041L221.085 231.617L220.173 231.045L219.908 231.469ZM221.733 232.612L221.468 233.037L222.381 233.608L222.645 233.184L222.91 232.76L221.997 232.188L221.733 232.612ZM223.557 233.755L223.293 234.18L224.205 234.751L224.47 234.327L224.734 233.903L223.822 233.331L223.557 233.755ZM225.382 234.899L225.118 235.323L226.03 235.894L226.295 235.47L226.559 235.046L225.647 234.474L225.382 234.899ZM227.207 236.042L226.942 236.466L227.855 237.037L228.119 236.613L228.384 236.189L227.471 235.617L227.207 236.042ZM229.032 237.185L228.767 237.609L229.679 238.181L229.944 237.756L230.208 237.332L229.296 236.76L229.032 237.185ZM230.856 238.328L230.592 238.752L231.504 239.324L231.769 238.899L232.033 238.475L231.121 237.903L230.856 238.328ZM232.681 239.471L232.417 239.895L233.329 240.467L233.593 240.042L233.858 239.618L232.945 239.046L232.681 239.471ZM234.506 240.614L234.241 241.038L235.154 241.61L235.418 241.185L235.683 240.761L234.77 240.19L234.506 240.614ZM236.33 241.757L236.066 242.181L236.978 242.753L237.243 242.328L237.507 241.904L236.595 241.333L236.33 241.757ZM238.155 242.9L237.891 243.324L238.803 243.896L239.067 243.472L239.332 243.047L238.42 242.476L238.155 242.9ZM239.98 244.043L239.715 244.467L240.628 245.039L240.892 244.615L241.157 244.19L240.244 243.619L239.98 244.043ZM241.805 245.186L241.54 245.61L242.452 246.182L242.717 245.758L242.981 245.333L242.069 244.762L241.805 245.186ZM243.629 246.329L243.365 246.753L244.277 247.325L244.542 246.901L244.806 246.476L243.894 245.905L243.629 246.329ZM245.454 247.472L245.189 247.897L246.102 248.468L246.366 248.044L246.631 247.619L245.718 247.048L245.454 247.472ZM247.279 248.615L247.014 249.04L247.926 249.611L248.191 249.187L248.455 248.763L247.543 248.191L247.279 248.615ZM249.103 249.758L248.839 250.183L249.751 250.754L250.016 250.33L250.28 249.906L249.368 249.334L249.103 249.758ZM250.928 250.901L250.664 251.326L251.576 251.897L251.84 251.473L252.105 251.049L251.193 250.477L250.928 250.901ZM252.753 252.044L252.488 252.469L253.401 253.04L253.665 252.616L253.93 252.192L253.017 251.62L252.753 252.044ZM254.577 253.188L254.313 253.612L255.225 254.183L255.49 253.759L255.754 253.335L254.842 252.763L254.577 253.188ZM256.402 254.331L256.138 254.755L257.05 255.326L257.314 254.902L257.579 254.478L256.667 253.906L256.402 254.331ZM258.227 255.474L257.962 255.898L258.875 256.47L259.139 256.045L259.404 255.621L258.491 255.049L258.227 255.474ZM260.052 256.617L259.787 257.041L260.699 257.613L260.964 257.188L261.228 256.764L260.316 256.192L260.052 256.617ZM261.876 257.76L261.612 258.184L262.524 258.756L262.789 258.331L263.053 257.907L262.141 257.335L261.876 257.76ZM263.701 258.903L263.436 259.327L264.349 259.899L264.613 259.474L264.878 259.05L263.965 258.479L263.701 258.903ZM265.526 260.046L265.261 260.47L266.174 261.042L266.438 260.617L266.702 260.193L265.79 259.622L265.526 260.046ZM267.35 261.189L267.086 261.613L267.998 262.185L268.263 261.761L268.527 261.336L267.615 260.765L267.35 261.189ZM269.175 262.332L268.911 262.756L269.823 263.328L270.087 262.904L270.352 262.479L269.44 261.908L269.175 262.332ZM271 263.475L270.735 263.899L271.648 264.471L271.912 264.047L272.177 263.622L271.264 263.051L271 263.475ZM272.824 264.618L272.56 265.043L273.472 265.614L273.737 265.19L274.001 264.765L273.089 264.194L272.824 264.618ZM274.649 265.761L274.385 266.186L275.297 266.757L275.562 266.333L275.826 265.908L274.914 265.337L274.649 265.761ZM276.474 266.904L276.209 267.329L277.122 267.9L277.386 267.476L277.651 267.052L276.738 266.48L276.474 266.904ZM278.299 268.047L278.034 268.472L278.946 269.043L279.211 268.619L279.475 268.195L278.563 267.623L278.299 268.047ZM280.123 269.19L279.859 269.615L280.771 270.186L281.036 269.762L281.3 269.338L280.388 268.766L280.123 269.19ZM281.948 270.334L281.683 270.758L282.596 271.329L282.86 270.905L283.125 270.481L282.212 269.909L281.948 270.334ZM283.773 271.477L283.508 271.901L283.964 272.187L284.229 271.762L284.493 271.338L284.037 271.052L283.773 271.477Z" fill="#FF6B6B"/>
<path d="M120.439 94.4141C118.538 94.4141 116.858 94.1407 115.4 93.5938C113.942 93.047 112.796 92.2527 111.963 91.2111C111.156 90.1695 110.752 88.9196 110.752 87.4613C110.752 86.1072 111.103 84.8833 111.807 83.7896C112.536 82.6959 113.538 81.7064 114.814 80.821C116.116 79.9096 117.64 79.0633 119.384 78.282C121.155 77.4748 123.069 76.6936 125.126 75.9384L126.064 82.11C124.319 82.5266 122.861 82.9693 121.689 83.438C120.543 83.8807 119.632 84.3364 118.955 84.8052C118.278 85.2479 117.783 85.6775 117.47 86.0942C117.184 86.4848 117.041 86.8233 117.041 87.1097C117.041 87.4483 117.262 87.7347 117.705 87.9691C118.147 88.1774 118.981 88.2816 120.205 88.2816C120.465 88.2816 120.843 88.2685 121.337 88.2425C121.832 88.2165 122.405 88.1644 123.056 88.0863C123.707 87.9821 124.397 87.8389 125.126 87.6566L126.571 92.8126C125.53 93.3074 124.54 93.698 123.603 93.9844C122.691 94.2709 121.637 94.4141 120.439 94.4141ZM129.97 95C128.303 95 126.962 94.7787 125.946 94.336C124.957 93.8672 124.202 93.2813 123.681 92.5782C123.186 91.8491 122.848 91.0679 122.665 90.2346C122.509 89.4013 122.431 88.6201 122.431 87.891V74.1416H128.72V86.1332C128.72 87.1488 128.98 87.8649 129.501 88.2816C130.048 88.6722 130.92 88.8675 132.118 88.8675H133.407V95H129.97ZM117.509 71.9542L113.408 67.8138L117.275 63.6343L121.376 67.8138L117.509 71.9542ZM124.384 71.9542L120.283 67.8138L124.189 63.6343L128.29 67.8138L124.384 71.9542ZM133.393 95V88.8675H157.884C157.962 87.7477 157.858 86.7322 157.571 85.8207C157.285 84.8833 156.777 84.1411 156.048 83.5943C155.319 83.0214 154.277 82.735 152.923 82.735C151.569 82.735 150.098 83.1386 148.509 83.9458C146.921 84.7531 145.423 86.0291 144.017 87.7738C142.611 89.4924 141.478 91.758 140.619 94.5703L139.057 88.9847C140.15 86.2504 141.465 83.9719 143.002 82.149C144.538 80.3262 146.218 78.9591 148.04 78.0477C149.863 77.1102 151.751 76.6415 153.704 76.6415C156.204 76.6415 158.248 77.1623 159.837 78.2039C161.425 79.2195 162.584 80.5996 163.313 82.3443C164.042 84.0891 164.394 86.0551 164.368 88.2425C164.342 90.4299 163.964 92.6824 163.235 95H133.393ZM136.986 95V66.0951H143.275V95H136.986ZM133.393 88.8675H133.783V95H133.393C132.612 95 132.221 93.9844 132.221 91.9533C132.221 89.8961 132.612 88.8675 133.393 88.8675ZM170.835 105C169.663 105 168.387 104.778 167.007 104.335C165.653 103.893 164.351 103.112 163.101 101.992L165.054 98.0467C165.939 98.3853 166.772 98.6066 167.554 98.7108C168.335 98.8149 169.038 98.867 169.663 98.867C171.147 98.867 172.423 98.6066 173.491 98.0858C174.559 97.565 175.379 96.8098 175.952 95.8203C176.551 94.8307 176.85 93.6459 176.85 92.2658C176.85 91.5887 176.681 90.9247 176.342 90.2737C176.03 89.5966 175.483 88.7763 174.702 87.8128C173.921 86.8233 172.866 85.5343 171.538 83.9458L176.538 77.8133C177.918 79.7143 179.038 81.472 179.897 83.0865C180.756 84.701 181.381 86.2244 181.772 87.6566C182.188 89.0628 182.397 90.4559 182.397 91.8361C182.397 92.7996 182.28 93.8672 182.045 95.0391C181.811 96.2109 181.42 97.3697 180.873 98.5155C180.353 99.6873 179.649 100.755 178.764 101.718C177.879 102.708 176.772 103.502 175.444 104.101C174.142 104.7 172.606 105 170.835 105ZM194.511 95C193.209 95 192.09 94.8698 191.152 94.6094C190.215 94.349 189.433 93.9454 188.809 93.3985C188.21 92.8256 187.754 92.0965 187.441 91.2111C187.155 90.3257 187.012 89.2581 187.012 88.0081V66.0951H193.3V85.7426C193.3 86.3155 193.34 86.8103 193.418 87.2269C193.496 87.6175 193.639 87.943 193.847 88.2034C194.056 88.4378 194.342 88.6071 194.707 88.7112C195.097 88.8154 195.605 88.8675 196.23 88.8675H197.753V95H194.511ZM197.744 95V88.8675H198.642C201.012 88.8675 203.004 88.8154 204.618 88.7112C206.233 88.6071 207.6 88.4508 208.72 88.2425C209.839 88.0081 210.816 87.7217 211.649 87.3832C212.483 87.0446 213.303 86.641 214.11 86.1723C214.292 86.0681 214.449 85.977 214.579 85.8989C214.709 85.8207 214.826 85.7556 214.93 85.7036C215.061 85.6254 215.165 85.5734 215.243 85.5473C214.279 85.0526 213.407 84.6359 212.626 84.2974C211.845 83.9328 211.102 83.6464 210.399 83.438C209.722 83.2037 209.071 83.0344 208.446 82.9303C207.847 82.8261 207.235 82.774 206.61 82.774C205.803 82.774 205.061 82.9954 204.384 83.438C203.707 83.8807 202.991 84.6489 202.236 85.7426L198.212 83.6724C199.098 81.8235 200.048 80.3913 201.064 79.3757C202.079 78.3602 203.134 77.6571 204.228 77.2665C205.321 76.8498 206.402 76.6415 207.47 76.6415C208.876 76.6415 210.165 76.8498 211.337 77.2665C212.535 77.6831 213.654 78.2039 214.696 78.8289C215.738 79.4539 216.753 80.0788 217.743 80.7038C218.732 81.3027 219.722 81.8105 220.711 82.2272C221.701 82.6438 222.755 82.8391 223.875 82.8131L223.758 88.1253C223.081 88.3076 222.248 88.581 221.258 88.9456C220.269 89.2841 219.123 89.7919 217.821 90.469C216.779 91.0158 215.685 91.5627 214.54 92.1095C213.394 92.6303 212.079 93.1121 210.595 93.5548C209.11 93.9974 207.366 94.349 205.36 94.6094C203.355 94.8698 200.986 95 198.251 95H197.744ZM197.744 88.8675H198.134V95H197.744C196.962 95 196.572 93.9844 196.572 91.9533C196.572 89.8961 196.962 88.8675 197.744 88.8675ZM207.587 73.3604L203.446 69.22L207.392 65.0405L211.493 69.22L207.587 73.3604Z" fill="#4E02B2"/>
<path d="M27.6003 165.515L5.49192 165.554V151.57H2.83579V146.023H19.9444C24.7098 146.023 27.6003 148.758 27.6003 153.367V165.515ZM11.2729 151.57V159.929H21.8193V154.5C21.8193 152.273 21.2334 151.57 19.1631 151.57H11.2729ZM35.9742 157.429H29.9588V146.023H35.9742V157.429ZM38.1546 146.023H56.7084V151.57H53.7788V165.554H48.0369V151.57H38.1546V146.023ZM64.9264 157.429H58.911V146.023H64.9264V157.429ZM68.9426 165.905H66.7161V160.398C70.466 160.359 71.5987 159.929 71.5987 157.156V151.57H67.3411V146.023H91.6759V165.554H85.973V151.57H77.2235L77.3016 158.249C77.3406 162.624 74.4502 165.905 68.9426 165.905ZM108.258 165.554H93.7275V159.968H97.1648V146.023H102.829V159.968H107.399C109.625 159.968 110.914 159.226 110.914 156.296V146.023H116.578V157.742C116.578 162.663 112.984 165.554 108.258 165.554ZM139.307 165.554H133.565V151.57H118.956V146.023H139.307V165.554ZM124.932 165.554H119.151V154.968H124.932V165.554Z" fill="#930B9D"/>
<path d="M152.104 165.554C151.81 165.554 151.662 165.406 151.662 165.112V146.446C151.662 146.151 151.81 146.004 152.104 146.004H171.484C171.779 146.004 171.926 146.151 171.926 146.446V149.846C171.926 150.14 171.779 150.288 171.484 150.288H157.918C157.624 150.288 157.476 150.435 157.476 150.73V153.552C157.476 153.846 157.624 153.994 157.918 153.994H170.6C170.895 153.994 171.042 154.141 171.042 154.436V157.836C171.042 158.13 170.895 158.278 170.6 158.278H157.918C157.624 158.278 157.476 158.425 157.476 158.72V165.112C157.476 165.406 157.329 165.554 157.034 165.554H152.104ZM184.853 165.724C182.201 165.724 180.161 165.44 178.733 164.874C177.305 164.307 176.319 163.446 175.775 162.29C175.254 161.134 174.993 159.57 174.993 157.598V146.446C174.993 146.151 175.14 146.004 175.435 146.004H180.365C180.66 146.004 180.807 146.151 180.807 146.446V157.292C180.807 158.584 181.102 159.536 181.691 160.148C182.303 160.76 183.255 161.066 184.547 161.066H189.205C190.474 161.066 191.404 160.76 191.993 160.148C192.605 159.536 192.911 158.584 192.911 157.292V146.446C192.911 146.151 193.058 146.004 193.353 146.004H198.283C198.578 146.004 198.725 146.151 198.725 146.446V157.598C198.725 159.57 198.453 161.134 197.909 162.29C197.388 163.446 196.413 164.307 194.985 164.874C193.58 165.44 191.551 165.724 188.899 165.724H184.853ZM210.994 165.554C210.699 165.554 210.552 165.406 210.552 165.112V151.444C210.552 151.149 210.405 151.002 210.11 151.002H201.882C201.587 151.002 201.44 150.854 201.44 150.56V146.446C201.44 146.151 201.587 146.004 201.882 146.004H225.002C225.297 146.004 225.444 146.151 225.444 146.446V150.56C225.444 150.854 225.297 151.002 225.002 151.002H216.774C216.479 151.002 216.332 151.149 216.332 151.444V165.112C216.332 165.406 216.185 165.554 215.89 165.554H210.994ZM238.011 165.724C235.359 165.724 233.319 165.44 231.891 164.874C230.463 164.307 229.477 163.446 228.933 162.29C228.412 161.134 228.151 159.57 228.151 157.598V146.446C228.151 146.151 228.299 146.004 228.593 146.004H233.523C233.818 146.004 233.965 146.151 233.965 146.446V157.292C233.965 158.584 234.26 159.536 234.849 160.148C235.461 160.76 236.413 161.066 237.705 161.066H242.363C243.633 161.066 244.562 160.76 245.151 160.148C245.763 159.536 246.069 158.584 246.069 157.292V146.446C246.069 146.151 246.217 146.004 246.511 146.004H251.441C251.736 146.004 251.883 146.151 251.883 146.446V157.598C251.883 159.57 251.611 161.134 251.067 162.29C250.546 163.446 249.571 164.307 248.143 164.874C246.738 165.44 244.709 165.724 242.057 165.724H238.011ZM256.196 165.554C255.901 165.554 255.754 165.406 255.754 165.112V146.446C255.754 146.151 255.901 146.004 256.196 146.004H270.476C272.448 146.004 274.057 146.208 275.304 146.616C276.573 147.024 277.525 147.738 278.16 148.758C278.817 149.778 279.146 151.183 279.146 152.974V153.586C279.146 154.832 278.806 155.898 278.126 156.782C277.446 157.666 276.46 158.323 275.168 158.754C274.919 158.844 274.873 159.003 275.032 159.23L279.928 165.214L280.03 165.418C280.03 165.508 279.939 165.554 279.758 165.554H274.08C273.808 165.554 273.57 165.44 273.366 165.214L269.49 160.148C269.286 159.921 269.048 159.808 268.776 159.808H261.874C261.579 159.808 261.432 159.955 261.432 160.25V165.112C261.432 165.406 261.285 165.554 260.99 165.554H256.196ZM270.476 155.49C271.451 155.49 272.165 155.308 272.618 154.946C273.071 154.583 273.298 154.05 273.298 153.348V153.144C273.298 152.328 273.083 151.716 272.652 151.308C272.221 150.877 271.496 150.662 270.476 150.662H261.874C261.579 150.662 261.432 150.809 261.432 151.104V155.048C261.432 155.342 261.579 155.49 261.874 155.49H270.476ZM282.825 165.554C282.53 165.554 282.383 165.406 282.383 165.112V146.446C282.383 146.151 282.53 146.004 282.825 146.004H302.783C303.078 146.004 303.225 146.151 303.225 146.446V149.846C303.225 150.14 303.078 150.288 302.783 150.288H288.639C288.344 150.288 288.197 150.435 288.197 150.73V153.246C288.197 153.54 288.344 153.688 288.639 153.688H301.899C302.194 153.688 302.341 153.835 302.341 154.13V157.19C302.341 157.484 302.194 157.632 301.899 157.632H288.639C288.344 157.632 288.197 157.779 288.197 158.074V160.794C288.197 161.088 288.344 161.236 288.639 161.236H302.919C303.214 161.236 303.361 161.383 303.361 161.678V165.112C303.361 165.406 303.214 165.554 302.919 165.554H282.825ZM314.431 165.792C312.278 165.792 310.6 165.599 309.399 165.214C308.198 164.828 307.359 164.284 306.883 163.582C306.407 162.879 306.146 161.995 306.101 160.93L306.067 160.216C306.067 159.921 306.214 159.774 306.509 159.774H311.439C311.734 159.774 311.881 159.921 311.881 160.216V160.352C311.881 160.805 312.074 161.111 312.459 161.27C312.844 161.428 313.558 161.508 314.601 161.508H320.449C321.696 161.508 322.523 161.36 322.931 161.066C323.362 160.771 323.577 160.306 323.577 159.672C323.577 159.06 323.384 158.618 322.999 158.346C322.636 158.074 321.866 157.926 320.687 157.904L312.323 157.7C310.079 157.654 308.492 157.156 307.563 156.204C306.634 155.229 306.169 153.869 306.169 152.124C306.169 150.197 306.77 148.667 307.971 147.534C309.195 146.4 311.292 145.834 314.261 145.834H319.701C322.194 145.834 324.121 146.015 325.481 146.378C326.841 146.718 327.793 147.262 328.337 148.01C328.904 148.758 329.187 149.766 329.187 151.036V151.342C329.187 151.636 329.04 151.784 328.745 151.784H323.679C323.384 151.784 323.237 151.636 323.237 151.342V151.172C323.237 150.446 322.591 150.084 321.299 150.084H314.431C313.592 150.084 312.992 150.231 312.629 150.526C312.289 150.82 312.119 151.251 312.119 151.818C312.119 152.407 312.278 152.826 312.595 153.076C312.935 153.302 313.604 153.427 314.601 153.45L322.829 153.722C324.597 153.79 325.957 154.016 326.909 154.402C327.884 154.764 328.564 155.354 328.949 156.17C329.357 156.963 329.561 158.074 329.561 159.502C329.561 160.952 329.312 162.131 328.813 163.038C328.337 163.944 327.464 164.636 326.195 165.112C324.948 165.565 323.169 165.792 320.857 165.792H314.431Z" fill="#000A61"/>
<path d="M13.3602 130.355C9.45412 130.355 6.65477 129.652 4.96214 128.246C3.29555 126.814 2.46226 124.809 2.46226 122.231C2.46226 121.085 2.67058 119.77 3.08723 118.286C3.50388 116.801 4.24603 115.096 5.31369 113.169L9.92285 115.239C9.5062 116.411 9.20673 117.413 9.02445 118.247C8.84217 119.054 8.75103 119.783 8.75103 120.434C8.75103 121.45 8.97237 122.231 9.41506 122.778C9.85775 123.325 10.4697 123.702 11.2509 123.91C12.0582 124.119 12.9826 124.223 14.0242 124.223H28.2032L28.9454 130.355H13.3602ZM24.2972 130.355V124.223H31.1718C30.9635 123.312 30.5599 122.296 29.961 121.176C29.362 120.056 28.6069 118.924 27.6954 117.778L33.3202 112.036C34.1014 113.52 34.7784 115.148 35.3513 116.919C35.9242 118.689 36.2107 120.681 36.2107 122.895C36.2367 125.082 35.768 127.569 34.8045 130.355H24.2972ZM24.2972 124.223H24.6878V130.355H24.2972C23.516 130.355 23.1253 129.34 23.1253 127.309C23.1253 125.252 23.516 124.223 24.2972 124.223ZM16.2116 112.583L12.1102 108.442L15.9772 104.263L20.0786 108.442L16.2116 112.583ZM23.0863 112.583L18.9849 108.442L22.891 104.263L26.9924 108.442L23.0863 112.583ZM55.131 126.957C54.5581 126.072 53.842 125.16 52.9826 124.223C52.1233 123.285 51.1598 122.322 50.0922 121.332C49.0505 120.343 47.9308 119.34 46.7329 118.325C45.5611 117.283 44.3372 116.242 43.0612 115.2C41.8113 114.132 40.5483 113.078 39.2724 112.036L40.4442 105.161C42.7097 107.14 44.7278 108.95 46.4986 110.591C48.2693 112.205 49.8318 113.664 51.1859 114.966C52.566 116.268 53.7378 117.426 54.7013 118.442C55.6909 119.458 56.5111 120.343 57.1621 121.098L55.131 126.957ZM40.5614 130.355L39.3505 124.223H47.0454C47.436 124.223 47.9699 124.184 48.6469 124.106C49.324 124.002 50.014 123.806 50.7171 123.52C51.4463 123.207 52.0712 122.739 52.592 122.114C53.1389 121.489 53.4514 120.629 53.5295 119.536L58.1387 117.075C58.347 119.054 58.3991 120.786 58.2949 122.27C58.2168 123.754 57.9043 125.017 57.3574 126.059C56.8366 127.074 56.0164 127.908 54.8966 128.559C53.8029 129.184 52.3447 129.639 50.5218 129.926C48.699 130.212 46.4595 130.355 43.8034 130.355H40.5614ZM60.8338 130.355C59.0891 130.355 57.696 130.134 56.6543 129.691C55.6127 129.223 54.8315 128.637 54.3107 127.934C53.7899 127.205 53.4514 126.423 53.2951 125.59C53.1389 124.757 53.0608 123.976 53.0608 123.246V101.451H59.3495V121.489C59.3495 122.374 59.5058 123.051 59.8183 123.52C60.1307 123.989 60.8989 124.223 62.1228 124.223H62.5916V130.355H60.8338ZM62.5998 130.355V124.223H68.0292C68.1334 123.78 68.2245 123.181 68.3027 122.426C68.3808 121.671 68.4459 120.916 68.498 120.161C68.55 119.379 68.5631 118.728 68.537 118.208L75.8804 115.63C75.4117 117.531 74.943 119.314 74.4742 120.981C74.0316 122.621 73.4977 124.21 72.8728 125.746C72.2738 127.257 71.4926 128.793 70.5291 130.355H62.5998ZM78.6147 130.355C76.8179 130.355 75.2945 130.186 74.0446 129.848C72.8207 129.483 71.7921 129.066 70.9588 128.598C70.1255 128.103 69.4094 127.647 68.8105 127.231L72.1306 123.364C72.4952 123.546 72.9248 123.702 73.4196 123.832C73.9144 123.963 74.4612 124.067 75.0602 124.145C75.6591 124.197 76.2841 124.223 76.9351 124.223H78.6147V130.355ZM62.5998 124.223H62.9904V130.355H62.5998C61.8186 130.355 61.428 129.34 61.428 127.309C61.428 125.252 61.8186 124.223 62.5998 124.223ZM70.451 140.863L66.3106 136.683L70.2557 132.543L74.3571 136.683L70.451 140.863ZM78.6208 130.355V124.223H84.2455C84.1674 124.249 84.0632 124.288 83.933 124.34C83.8289 124.392 83.6987 124.444 83.5424 124.496C83.4122 124.522 83.282 124.548 83.1518 124.574C82.5789 123.819 82.1883 123.051 81.98 122.27C81.7717 121.489 81.6675 120.694 81.6675 119.887C81.6675 118.82 81.8628 117.791 82.2534 116.801C82.644 115.812 83.2299 114.913 84.0112 114.106C84.7924 113.299 85.7559 112.661 86.9016 112.192C88.0735 111.724 89.4145 111.489 90.9249 111.489C92.4613 111.489 93.8024 111.724 94.9481 112.192C96.12 112.661 97.0965 113.299 97.8777 114.106C98.6589 114.913 99.2448 115.812 99.6354 116.801C100.052 117.791 100.26 118.82 100.26 119.887C100.26 120.721 100.143 121.528 99.9088 122.309C99.7005 123.064 99.3099 123.819 98.737 124.574C98.5027 124.522 98.3725 124.47 98.3464 124.418C98.3204 124.366 98.1902 124.301 97.9558 124.223H102.526V130.355H101.549C99.7005 130.355 98.1641 130.342 96.9402 130.316C95.7163 130.264 94.6617 130.173 93.7763 130.043C92.917 129.913 92.0707 129.691 91.2374 129.379C90.8468 129.509 90.4692 129.639 90.1046 129.77C89.74 129.874 89.2974 129.978 88.7766 130.082C88.2818 130.16 87.6178 130.225 86.7845 130.277C85.9772 130.329 84.9095 130.355 83.5815 130.355H78.6208ZM90.9249 124.535C91.5499 124.249 92.0707 123.897 92.4873 123.481C92.904 123.064 93.2164 122.595 93.4248 122.075C93.6331 121.554 93.7373 121.007 93.7373 120.434C93.7373 119.913 93.6201 119.445 93.3857 119.028C93.1774 118.611 92.8649 118.273 92.4483 118.012C92.0316 117.752 91.5238 117.622 90.9249 117.622C90.352 117.622 89.8572 117.752 89.4406 118.012C89.0239 118.273 88.6984 118.624 88.4641 119.067C88.2557 119.484 88.1516 119.939 88.1516 120.434C88.1516 121.007 88.2557 121.554 88.4641 122.075C88.6724 122.569 88.9849 123.025 89.4015 123.442C89.8182 123.858 90.326 124.223 90.9249 124.535ZM78.6208 124.223H79.0114V130.355H78.6208C77.8396 130.355 77.449 129.34 77.449 127.309C77.449 125.252 77.8396 124.223 78.6208 124.223ZM87.6047 108.208L83.5034 104.068L87.3704 99.8882L91.4717 104.068L87.6047 108.208ZM94.4794 108.208L90.378 104.068L94.2841 99.8882L98.3855 104.068L94.4794 108.208ZM102.538 130.355V124.223H108.866C108.97 123.78 109.061 123.181 109.139 122.426C109.217 121.671 109.282 120.916 109.334 120.161C109.386 119.379 109.399 118.728 109.373 118.208L116.717 115.63C116.248 117.531 115.779 119.314 115.311 120.981C114.868 122.621 114.334 124.21 113.709 125.746C113.11 127.257 112.329 128.793 111.366 130.355H102.538ZM118.943 130.355C117.146 130.355 115.623 130.186 114.373 129.848C113.123 129.483 112.082 129.066 111.248 128.598C110.441 128.103 109.738 127.647 109.139 127.231L112.381 123.364C112.772 123.546 113.214 123.702 113.709 123.832C114.204 123.963 114.751 124.067 115.35 124.145C115.949 124.197 116.587 124.223 117.264 124.223H119.803V130.355H118.943ZM102.538 124.223H102.928V130.355H102.538C101.757 130.355 101.366 129.34 101.366 127.309C101.366 125.252 101.757 124.223 102.538 124.223ZM109.725 113.364L105.624 109.224L109.491 105.044L113.592 109.224L109.725 113.364ZM116.6 113.364L112.498 109.224L116.404 105.044L120.506 109.224L116.6 113.364ZM145.871 130.355C144.074 130.355 142.551 130.186 141.301 129.848C140.077 129.483 139.048 129.066 138.215 128.598C137.382 128.103 136.666 127.647 136.067 127.231L139.348 123.364C140.546 123.937 142.147 124.223 144.152 124.223H149.074C148.814 123.728 148.553 123.22 148.293 122.7C148.032 122.153 147.733 121.554 147.394 120.903C147.082 120.252 146.691 119.523 146.223 118.715L153.488 113.833C153.696 115.395 153.852 117.062 153.957 118.833C154.087 120.577 154.048 122.413 153.839 124.34C153.657 126.241 153.214 128.246 152.511 130.355H145.871ZM119.818 130.355V124.223H123.567C123.646 123.676 123.711 123.116 123.763 122.543C123.815 121.97 123.828 121.358 123.802 120.707C123.802 120.056 123.763 119.353 123.685 118.598L131.106 116.059C130.742 117.882 130.39 119.432 130.051 120.707C129.713 121.983 129.335 123.116 128.919 124.106C128.502 125.095 128.007 126.072 127.434 127.035C126.888 127.999 126.197 129.106 125.364 130.355H119.818ZM131.926 130.355C129.973 130.355 128.32 130.186 126.966 129.848C125.612 129.483 124.531 129.079 123.724 128.637C122.942 128.168 122.396 127.804 122.083 127.543L124.388 122.973C125.039 123.364 125.833 123.676 126.77 123.91C127.734 124.119 128.788 124.223 129.934 124.223H134.7C134.778 123.832 134.843 123.351 134.895 122.778C134.947 122.179 134.973 121.528 134.973 120.825C134.973 120.096 134.934 119.353 134.856 118.598L142.317 116.059C141.926 117.882 141.548 119.432 141.184 120.707C140.845 121.983 140.468 123.116 140.051 124.106C139.66 125.095 139.179 126.072 138.606 127.035C138.033 127.999 137.343 129.106 136.536 130.355H131.926ZM157.12 130.355C155.74 130.355 154.503 130.238 153.41 130.004C152.342 129.77 151.405 129.47 150.597 129.106C149.79 128.715 149.087 128.337 148.488 127.973L150.871 123.325C151.183 123.481 151.522 123.611 151.886 123.715C152.251 123.819 152.629 123.91 153.019 123.989C153.41 124.067 153.826 124.132 154.269 124.184C154.712 124.21 155.167 124.223 155.636 124.223H157.316V130.355H157.12ZM119.818 124.223H120.208V130.355H119.818C119.036 130.355 118.646 129.34 118.646 127.309C118.646 125.252 119.036 124.223 119.818 124.223ZM157.314 130.355V124.223H157.431C157.744 124.223 158.03 124.158 158.291 124.028C158.577 123.897 158.877 123.676 159.189 123.364C159.502 123.051 159.84 122.621 160.205 122.075C160.595 121.502 161.051 120.786 161.572 119.926C162.327 118.676 163.056 117.622 163.759 116.762C164.462 115.877 165.152 115.174 165.829 114.653C166.533 114.132 167.236 113.755 167.939 113.52C168.642 113.286 169.358 113.169 170.087 113.169C171.285 113.169 172.366 113.429 173.329 113.95C174.293 114.471 175.191 115.304 176.024 116.45C176.858 117.57 177.678 119.08 178.485 120.981C178.928 121.944 179.344 122.661 179.735 123.129C180.152 123.598 180.607 123.897 181.102 124.028C181.597 124.158 182.183 124.223 182.86 124.223H183.29V130.355H181.337C180.217 130.355 179.227 130.173 178.368 129.809C177.535 129.444 176.806 128.962 176.181 128.363C175.556 127.738 175.009 127.074 174.54 126.371C174.097 125.668 173.72 124.978 173.407 124.301C172.912 123.259 172.47 122.361 172.079 121.606C171.689 120.851 171.311 120.278 170.946 119.887C170.582 119.471 170.191 119.262 169.775 119.262C169.54 119.262 169.228 119.405 168.837 119.692C168.447 119.952 167.991 120.395 167.47 121.02C166.975 121.645 166.389 122.504 165.712 123.598C165.035 124.718 164.436 125.668 163.916 126.449C163.395 127.231 162.9 127.882 162.431 128.402C161.962 128.897 161.494 129.288 161.025 129.574C160.556 129.861 160.049 130.069 159.502 130.199C158.955 130.303 158.317 130.355 157.588 130.355H157.314ZM178.055 128.598C177.144 129.639 176.089 130.355 174.892 130.746C173.72 131.137 172.496 131.293 171.22 131.215C169.97 131.137 168.746 130.889 167.548 130.473C166.376 130.056 165.309 129.535 164.345 128.91C163.408 128.285 162.666 127.634 162.119 126.957L165.283 123.246C165.621 123.533 166.142 123.858 166.845 124.223C167.574 124.588 168.421 124.926 169.384 125.239C170.374 125.525 171.428 125.72 172.548 125.824C173.668 125.903 174.8 125.811 175.946 125.551L178.055 128.598ZM157.314 124.223H157.705V130.355H157.314C156.533 130.355 156.142 129.34 156.142 127.309C156.142 125.252 156.533 124.223 157.314 124.223ZM183.291 130.355V124.223H187.08V101.451H193.369V130.355H183.291ZM183.291 124.223H183.682V130.355H183.291C182.51 130.355 182.119 129.34 182.119 127.309C182.119 125.252 182.51 124.223 183.291 124.223ZM198.765 101.451H205.054V130.355H198.765V101.451Z" fill="#4E02B2"/>
<path d="M219.395 130.707H217.169V125.199C220.918 125.16 222.051 124.731 222.051 121.957V116.372H217.794V110.825H242.128V130.355H236.426V116.372H227.676L227.754 123.051C227.793 127.426 224.903 130.707 219.395 130.707ZM258.672 130.355H244.766V124.809H257.695C259.921 124.809 260.351 124.145 260.351 121.684V116.45H250.508V121.879H244.766V110.825H266.171V122.895C266.171 127.465 263.281 130.355 258.672 130.355ZM277.348 130.355H271.606V116.372H268.481V110.825H285.98C290.824 110.825 293.832 113.52 293.832 118.129V130.355H281.098V124.731H288.129V119.34C288.129 116.919 287.387 116.372 285.238 116.372H277.348V130.355Z" fill="#930B9D"/>
<path d="M106.563 200.321C106.269 200.321 106.121 200.174 106.121 199.879V181.213C106.121 180.919 106.269 180.771 106.563 180.771H115.709C116.004 180.771 116.219 180.896 116.355 181.145L122.883 193.487C123.019 193.714 123.155 193.714 123.291 193.487L129.853 181.145C129.989 180.896 130.205 180.771 130.499 180.771H139.611C139.906 180.771 140.053 180.919 140.053 181.213V199.879C140.053 200.174 139.906 200.321 139.611 200.321H135.055C134.761 200.321 134.613 200.174 134.613 199.879V185.701C134.613 185.407 134.466 185.259 134.171 185.259H133.695C133.401 185.259 133.185 185.384 133.049 185.633L125.399 199.947C125.263 200.197 125.048 200.321 124.753 200.321H121.455C121.161 200.321 120.945 200.197 120.809 199.947L113.125 185.633C112.989 185.384 112.774 185.259 112.479 185.259H112.003C111.709 185.259 111.561 185.407 111.561 185.701V199.879C111.561 200.174 111.414 200.321 111.119 200.321H106.563ZM142.671 200.321C142.376 200.321 142.297 200.197 142.433 199.947L152.429 181.145C152.565 180.896 152.78 180.771 153.075 180.771H160.113C160.407 180.771 160.623 180.896 160.759 181.145L170.823 199.947C170.868 200.038 170.891 200.106 170.891 200.151C170.891 200.265 170.789 200.321 170.585 200.321H165.077C164.782 200.321 164.567 200.185 164.431 199.913L162.833 196.717C162.697 196.445 162.481 196.309 162.187 196.309H151.069C150.774 196.309 150.559 196.445 150.423 196.717L148.825 199.913C148.689 200.185 148.473 200.321 148.179 200.321H142.671ZM160.113 192.127C160.407 192.127 160.487 191.991 160.351 191.719L157.495 186.211C157.359 185.939 157.143 185.803 156.849 185.803H156.373C156.078 185.803 155.863 185.939 155.727 186.211L152.905 191.719C152.859 191.855 152.837 191.935 152.837 191.957C152.837 192.071 152.939 192.127 153.143 192.127H160.113ZM173.634 200.321C173.339 200.321 173.192 200.174 173.192 199.879V181.213C173.192 180.919 173.339 180.771 173.634 180.771H187.914C189.886 180.771 191.495 180.987 192.742 181.417C194.011 181.825 194.974 182.551 195.632 183.593C196.289 184.613 196.618 186.053 196.618 187.911V188.149C196.618 189.849 196.278 191.187 195.598 192.161C194.94 193.113 193.977 193.793 192.708 194.201C191.461 194.587 189.863 194.779 187.914 194.779H179.312C179.017 194.779 178.87 194.927 178.87 195.221V199.879C178.87 200.174 178.722 200.321 178.428 200.321H173.634ZM187.914 190.257C188.911 190.257 189.636 190.076 190.09 189.713C190.543 189.351 190.77 188.807 190.77 188.081V187.911C190.77 187.095 190.543 186.483 190.09 186.075C189.659 185.645 188.934 185.429 187.914 185.429H179.312C179.017 185.429 178.87 185.577 178.87 185.871V189.815C178.87 190.11 179.017 190.257 179.312 190.257H187.914Z" fill="#000A61"/>
</svg>
