<svg width="106" height="30" viewBox="0 0 106 30" fill="none" xmlns="http://www.w3.org/2000/svg">
<mask id="path-1-inside-1_1262_227370" fill="white">
<path d="M0.711425 3.00879C0.711425 2.38427 1.22473 1.88094 1.84912 1.89355L66.5208 3.20096C67.1001 3.21267 67.5524 3.68381 67.7961 4.20952C68.2363 5.15934 69.1971 5.81823 70.313 5.81836C71.3892 5.81836 72.3217 5.20565 72.782 4.31018C73.047 3.7947 73.5183 3.34201 74.0978 3.35372L104.146 3.96093C104.753 3.97319 105.239 4.46735 105.239 5.07421L105.239 8.73339C105.239 10.9866 99.1787 15.8603 95.7358 15.8603L81.5913 15.8603C81.3457 15.8603 81.1133 15.7794 80.9106 15.6406C80.0514 15.0517 77.5177 13.4853 74.8833 13.4853C72.2881 13.4854 69.9599 15.0051 69.1323 15.6133C68.9209 15.7687 68.6682 15.8603 68.4058 15.8603L52.1235 15.8603C52.0574 15.8603 51.9914 15.8545 51.9263 15.8428L46.8123 14.9229C46.3712 14.8436 46.0315 14.5027 45.8674 14.0857C45.1595 12.2874 43.4087 11.0146 41.3589 11.0146C39.9258 11.0147 38.6386 11.6368 37.7516 12.6256C37.4529 12.9586 37.0164 13.1585 36.5761 13.0792L1.62842 6.78711C1.09772 6.6914 0.71157 6.2297 0.711425 5.69043L0.711425 3.00879Z"/>
</mask>
<path d="M0.711425 3.00879C0.711425 2.38427 1.22473 1.88094 1.84912 1.89355L66.5208 3.20096C67.1001 3.21267 67.5524 3.68381 67.7961 4.20952C68.2363 5.15934 69.1971 5.81823 70.313 5.81836C71.3892 5.81836 72.3217 5.20565 72.782 4.31018C73.047 3.7947 73.5183 3.34201 74.0978 3.35372L104.146 3.96093C104.753 3.97319 105.239 4.46735 105.239 5.07421L105.239 8.73339C105.239 10.9866 99.1787 15.8603 95.7358 15.8603L81.5913 15.8603C81.3457 15.8603 81.1133 15.7794 80.9106 15.6406C80.0514 15.0517 77.5177 13.4853 74.8833 13.4853C72.2881 13.4854 69.9599 15.0051 69.1323 15.6133C68.9209 15.7687 68.6682 15.8603 68.4058 15.8603L52.1235 15.8603C52.0574 15.8603 51.9914 15.8545 51.9263 15.8428L46.8123 14.9229C46.3712 14.8436 46.0315 14.5027 45.8674 14.0857C45.1595 12.2874 43.4087 11.0146 41.3589 11.0146C39.9258 11.0147 38.6386 11.6368 37.7516 12.6256C37.4529 12.9586 37.0164 13.1585 36.5761 13.0792L1.62842 6.78711C1.09772 6.6914 0.71157 6.2297 0.711425 5.69043L0.711425 3.00879Z" fill="#698CFF"/>
<path d="M0.711425 3.00879L1.26884 3.00879L0.711425 3.00879ZM1.84912 1.89355L1.86039 1.33625L1.86038 1.33625L1.84912 1.89355ZM70.313 5.81836L70.3129 6.37577L70.313 6.37577L70.313 5.81836ZM104.146 3.96093L104.135 4.51824L104.146 3.96093ZM105.239 5.07421L105.796 5.07421L105.796 5.07414L105.239 5.07421ZM95.7358 15.8603L95.7358 16.4178L95.7358 15.8603ZM81.5913 15.8603L81.5913 15.3029L81.5913 15.8603ZM80.9106 15.6406L80.5955 16.1004L80.5956 16.1005L80.9106 15.6406ZM74.8833 13.4853L74.8833 12.9279L74.8833 12.9279L74.8833 13.4853ZM69.1323 15.6133L68.8022 15.1641L68.8022 15.1641L69.1323 15.6133ZM51.9263 15.8428L51.8276 16.3914L51.8276 16.3914L51.9263 15.8428ZM41.3589 11.0146L41.3589 10.4572L41.3589 10.4572L41.3589 11.0146ZM1.62842 6.78711L1.52948 7.33568L1.52965 7.33571L1.62842 6.78711ZM0.711425 5.69043L0.154007 5.69043L0.154007 5.69058L0.711425 5.69043ZM37.7516 12.6256L37.3366 12.2534L37.7516 12.6256ZM36.5761 13.0792L36.6749 12.5306L36.5761 13.0792ZM46.8123 14.9229L46.7136 15.4715L46.8123 14.9229ZM45.8674 14.0857L46.386 13.8815L45.8674 14.0857ZM72.782 4.31018L73.2778 4.56502L72.782 4.31018ZM74.0978 3.35372L74.1091 2.79641L74.0978 3.35372ZM66.5208 3.20096L66.5095 3.75827L66.5208 3.20096ZM0.711425 3.00879L1.26884 3.00879C1.26884 2.69634 1.52586 2.44456 1.83786 2.45086L1.84912 1.89355L1.86038 1.33625C0.9236 1.31733 0.154007 2.0722 0.154007 3.00879L0.711425 3.00879ZM1.84912 1.89355L1.83785 2.45086L66.5095 3.75827L66.5208 3.20096L66.532 2.64366L1.86039 1.33625L1.84912 1.89355ZM67.7961 4.20952L67.2903 4.44392C67.8184 5.58312 68.9717 6.37562 70.3129 6.37577L70.313 5.81836L70.313 5.26094C69.4224 5.26084 68.6543 4.73556 68.3018 3.97511L67.7961 4.20952ZM70.313 5.81836L70.313 6.37577C71.6063 6.37577 72.7258 5.63884 73.2778 4.56502L72.782 4.31018L72.2863 4.05533C71.9176 4.77247 71.172 5.26094 70.313 5.26094L70.313 5.81836ZM74.0978 3.35372L74.0866 3.91102L104.135 4.51824L104.146 3.96093L104.157 3.40363L74.1091 2.79641L74.0978 3.35372ZM104.146 3.96093L104.135 4.51824C104.439 4.52439 104.681 4.77192 104.681 5.07429L105.239 5.07421L105.796 5.07414C105.796 4.16279 105.066 3.42199 104.157 3.40363L104.146 3.96093ZM105.239 5.07421L104.681 5.07421L104.681 8.73339L105.239 8.73339L105.796 8.73339L105.796 5.07421L105.239 5.07421ZM105.239 8.73339L104.681 8.73339C104.681 8.89722 104.624 9.1322 104.472 9.43957C104.323 9.74179 104.098 10.0826 103.804 10.4483C103.216 11.1798 102.385 11.9702 101.438 12.7004C100.492 13.4298 99.4465 14.0866 98.437 14.5587C97.4182 15.0351 96.4798 15.3029 95.7358 15.3029L95.7358 15.8603L95.7358 16.4178C96.7134 16.4178 97.8235 16.0763 98.9093 15.5685C100.004 15.0564 101.119 14.3539 102.119 13.5832C103.117 12.8133 104.017 11.9628 104.673 11.1467C105.001 10.7387 105.276 10.3291 105.471 9.9335C105.664 9.54306 105.796 9.13286 105.796 8.73339L105.239 8.73339ZM95.7358 15.8603L95.7358 15.3029L81.5913 15.3029L81.5913 15.8603L81.5913 16.4178L95.7358 16.4178L95.7358 15.8603ZM81.5913 15.8603L81.5913 15.3029C81.4716 15.3029 81.3473 15.2641 81.2257 15.1808L80.9106 15.6406L80.5956 16.1005C80.8793 16.2948 81.2198 16.4178 81.5913 16.4178L81.5913 15.8603ZM80.9106 15.6406L81.2258 15.1808C80.3564 14.585 77.7002 12.9279 74.8833 12.9279L74.8833 13.4853L74.8833 14.0428C77.3351 14.0428 79.7463 15.5184 80.5955 16.1004L80.9106 15.6406ZM74.8833 13.4853L74.8833 12.9279C72.0994 12.928 69.647 14.5432 68.8022 15.1641L69.1323 15.6133L69.4624 16.0624C70.2727 15.4669 72.4769 14.0428 74.8833 14.0428L74.8833 13.4853ZM69.1323 15.6133L68.8022 15.1641C68.6761 15.2568 68.5371 15.3029 68.4058 15.3029L68.4058 15.8603L68.4058 16.4178C68.7992 16.4178 69.1657 16.2805 69.4624 16.0624L69.1323 15.6133ZM68.4058 15.8603L68.4058 15.3029L52.1235 15.3029L52.1235 15.8603L52.1235 16.4178L68.4058 16.4178L68.4058 15.8603ZM52.1235 15.8603L52.1235 15.3029C52.0904 15.3029 52.0574 15.3 52.0249 15.2942L51.9263 15.8428L51.8276 16.3914C51.9254 16.409 52.0244 16.4178 52.1235 16.4178L52.1235 15.8603ZM51.9263 15.8428L52.025 15.2942L46.911 14.3743L46.8123 14.9229L46.7136 15.4715L51.8276 16.3914L51.9263 15.8428ZM45.8674 14.0857L46.386 13.8815C45.5972 11.8774 43.6456 10.4572 41.3589 10.4572L41.3589 11.0146L41.3589 11.5721C43.1718 11.5721 44.7218 12.6973 45.3487 14.2898L45.8674 14.0857ZM41.3589 11.0146L41.3589 10.4572C39.7608 10.4572 38.3249 11.1517 37.3366 12.2534L37.7516 12.6256L38.1665 12.9978C38.9523 12.1218 40.0908 11.5721 41.3589 11.5721L41.3589 11.0146ZM36.5761 13.0792L36.6749 12.5306L1.72719 6.23851L1.62842 6.78711L1.52965 7.33571L36.4773 13.6278L36.5761 13.0792ZM1.62842 6.78711L1.72735 6.23854C1.46189 6.19067 1.26892 5.9598 1.26884 5.69028L0.711425 5.69043L0.154007 5.69058C0.154224 6.49959 0.73354 7.19213 1.52948 7.33568L1.62842 6.78711ZM0.711425 5.69043L1.26884 5.69043L1.26884 3.00879L0.711425 3.00879L0.154007 3.00879L0.154007 5.69043L0.711425 5.69043ZM37.7516 12.6256L37.3366 12.2534C37.1345 12.4786 36.8815 12.5678 36.6749 12.5306L36.5761 13.0792L36.4773 13.6278C37.1512 13.7491 37.7712 13.4385 38.1665 12.9978L37.7516 12.6256ZM46.8123 14.9229L46.911 14.3743C46.7041 14.3371 46.4975 14.1646 46.386 13.8815L45.8674 14.0857L45.3487 14.2898C45.5656 14.8408 46.0383 15.35 46.7136 15.4715L46.8123 14.9229ZM72.782 4.31018L73.2778 4.56502C73.5027 4.12756 73.8216 3.90567 74.0866 3.91102L74.0978 3.35372L74.1091 2.79641C73.2151 2.77835 72.5914 3.46183 72.2863 4.05533L72.782 4.31018ZM66.5208 3.20096L66.5095 3.75827C66.7743 3.76362 67.0836 3.99794 67.2903 4.44392L67.7961 4.20952L68.3018 3.97511C68.0212 3.36969 67.4259 2.66173 66.532 2.64366L66.5208 3.20096Z" fill="black" fill-opacity="0.4" mask="url(#path-1-inside-1_1262_227370)"/>
<mask id="path-3-inside-2_1262_227370" fill="white">
<path d="M0.711426 28.7119C0.711426 29.3364 1.22473 29.8398 1.84912 29.8271L66.5208 28.5197C67.1001 28.508 67.5524 28.0369 67.7961 27.5112C68.2363 26.5614 69.1971 25.9025 70.313 25.9023C71.3892 25.9023 72.3217 26.515 72.782 27.4105C73.047 27.926 73.5183 28.3787 74.0978 28.367L104.146 27.7598C104.753 27.7475 105.239 27.2533 105.239 26.6465L105.239 22.9873C105.239 20.7341 99.1787 15.8603 95.7358 15.8603L81.5913 15.8603C81.3457 15.8603 81.1133 15.9413 80.9106 16.0801C80.0514 16.669 77.5177 18.2353 74.8833 18.2353C72.2881 18.2353 69.9599 16.7156 69.1323 16.1074C68.9209 15.952 68.6682 15.8603 68.4058 15.8603L52.1235 15.8603C52.0574 15.8603 51.9914 15.8662 51.9263 15.8779L46.8123 16.7978C46.3712 16.8771 46.0315 17.218 45.8674 17.635C45.1595 19.4333 43.4087 20.7061 41.3589 20.7061C39.9258 20.706 38.6386 20.0839 37.7516 19.0951C37.4529 18.7621 37.0164 18.5622 36.5761 18.6415L1.62842 24.9336C1.09772 25.0293 0.711571 25.491 0.711426 26.0303L0.711426 28.7119Z"/>
</mask>
<path d="M0.711426 28.7119C0.711426 29.3364 1.22473 29.8398 1.84912 29.8271L66.5208 28.5197C67.1001 28.508 67.5524 28.0369 67.7961 27.5112C68.2363 26.5614 69.1971 25.9025 70.313 25.9023C71.3892 25.9023 72.3217 26.515 72.782 27.4105C73.047 27.926 73.5183 28.3787 74.0978 28.367L104.146 27.7598C104.753 27.7475 105.239 27.2533 105.239 26.6465L105.239 22.9873C105.239 20.7341 99.1787 15.8603 95.7358 15.8603L81.5913 15.8603C81.3457 15.8603 81.1133 15.9413 80.9106 16.0801C80.0514 16.669 77.5177 18.2353 74.8833 18.2353C72.2881 18.2353 69.9599 16.7156 69.1323 16.1074C68.9209 15.952 68.6682 15.8603 68.4058 15.8603L52.1235 15.8603C52.0574 15.8603 51.9914 15.8662 51.9263 15.8779L46.8123 16.7978C46.3712 16.8771 46.0315 17.218 45.8674 17.635C45.1595 19.4333 43.4087 20.7061 41.3589 20.7061C39.9258 20.706 38.6386 20.0839 37.7516 19.0951C37.4529 18.7621 37.0164 18.5622 36.5761 18.6415L1.62842 24.9336C1.09772 25.0293 0.711571 25.491 0.711426 26.0303L0.711426 28.7119Z" fill="#698CFF"/>
<path d="M1.84912 29.8271L1.86039 30.3845L1.86038 30.3845L1.84912 29.8271ZM70.313 25.9023L70.3129 25.3449L70.313 25.3449L70.313 25.9023ZM104.146 27.7598L104.135 27.2025L104.146 27.7598ZM105.239 26.6465L105.796 26.6465L105.796 26.6466L105.239 26.6465ZM95.7358 15.8603L95.7358 16.4178L95.7358 15.8603ZM81.5913 15.8603L81.5913 15.3029L81.5913 15.8603ZM80.9106 16.0801L80.5955 15.6203L80.5956 15.6202L80.9106 16.0801ZM74.8833 18.2353L74.8833 18.7928L74.8833 18.7928L74.8833 18.2353ZM69.1323 16.1074L68.8022 16.5566L68.8022 16.5566L69.1323 16.1074ZM51.9263 15.8779L51.8276 15.3293L51.8276 15.3293L51.9263 15.8779ZM41.3589 20.7061L41.3589 21.2635L41.3589 21.2635L41.3589 20.7061ZM1.62842 24.9336L1.52949 24.385L1.52965 24.385L1.62842 24.9336ZM0.711426 26.0303L0.154008 26.0303L0.154008 26.0301L0.711426 26.0303ZM37.7516 19.0951L37.3366 19.4673L37.7516 19.0951ZM36.5761 18.6415L36.6749 19.1901L36.5761 18.6415ZM46.8123 16.7978L46.7136 16.2492L46.8123 16.7978ZM45.8674 17.635L46.386 17.8392L45.8674 17.635ZM72.782 27.4105L72.2863 27.6654L72.782 27.4105ZM74.0978 28.367L74.1091 28.9243L74.0978 28.367ZM66.5208 28.5197L66.5095 27.9624L66.5208 28.5197ZM0.711426 28.7119L1.26884 28.7119C1.26884 29.0244 1.52586 29.2761 1.83786 29.2698L1.84912 29.8271L1.86038 30.3845C0.923601 30.4034 0.154008 29.6485 0.154008 28.7119L0.711426 28.7119ZM1.84912 29.8271L1.83786 29.2698L66.5095 27.9624L66.5208 28.5197L66.532 29.077L1.86039 30.3845L1.84912 29.8271ZM67.7961 27.5112L67.2903 27.2768C67.8184 26.1376 68.9717 25.3451 70.3129 25.3449L70.313 25.9023L70.313 26.4598C69.4224 26.4599 68.6543 26.9851 68.3018 27.7456L67.7961 27.5112ZM70.313 25.9023L70.313 25.3449C71.6063 25.3449 72.7258 26.0819 73.2778 27.1557L72.782 27.4105L72.2863 27.6654C71.9176 26.9482 71.172 26.4598 70.313 26.4598L70.313 25.9023ZM74.0978 28.367L74.0866 27.8097L104.135 27.2025L104.146 27.7598L104.157 28.3171L74.1091 28.9243L74.0978 28.367ZM104.146 27.7598L104.135 27.2025C104.439 27.1963 104.681 26.9488 104.681 26.6464L105.239 26.6465L105.796 26.6466C105.796 27.5579 105.066 28.2987 104.157 28.3171L104.146 27.7598ZM105.239 26.6465L104.681 26.6465L104.681 22.9873L105.239 22.9873L105.796 22.9873L105.796 26.6465L105.239 26.6465ZM105.239 22.9873L104.681 22.9873C104.681 22.8235 104.624 22.5885 104.472 22.2811C104.323 21.9789 104.098 21.6381 103.804 21.2724C103.216 20.5409 102.385 19.7505 101.438 19.0203C100.492 18.2909 99.4465 17.6341 98.437 17.162C97.4182 16.6856 96.4798 16.4178 95.7358 16.4178L95.7358 15.8603L95.7358 15.3029C96.7134 15.3029 97.8235 15.6444 98.9093 16.1522C100.004 16.6643 101.119 17.3667 102.119 18.1375C103.117 18.9073 104.017 19.7578 104.673 20.5739C105.001 20.982 105.276 21.3916 105.471 21.7872C105.664 22.1776 105.796 22.5878 105.796 22.9873L105.239 22.9873ZM95.7358 15.8603L95.7358 16.4178L81.5913 16.4178L81.5913 15.8603L81.5913 15.3029L95.7358 15.3029L95.7358 15.8603ZM81.5913 15.8603L81.5913 16.4178C81.4716 16.4178 81.3473 16.4566 81.2257 16.5399L80.9106 16.0801L80.5956 15.6202C80.8793 15.4259 81.2198 15.3029 81.5913 15.3029L81.5913 15.8603ZM80.9106 16.0801L81.2258 16.5399C80.3564 17.1357 77.7002 18.7928 74.8833 18.7928L74.8833 18.2353L74.8833 17.6779C77.3351 17.6779 79.7463 16.2023 80.5955 15.6203L80.9106 16.0801ZM74.8833 18.2353L74.8833 18.7928C72.0994 18.7927 69.647 17.1775 68.8022 16.5566L69.1323 16.1074L69.4624 15.6583C70.2727 16.2538 72.4769 17.6779 74.8833 17.6779L74.8833 18.2353ZM69.1323 16.1074L68.8022 16.5566C68.6761 16.4639 68.5371 16.4178 68.4058 16.4178L68.4058 15.8603L68.4058 15.3029C68.7992 15.3029 69.1657 15.4402 69.4624 15.6583L69.1323 16.1074ZM68.4058 15.8603L68.4058 16.4178L52.1235 16.4178L52.1235 15.8603L52.1235 15.3029L68.4058 15.3029L68.4058 15.8603ZM52.1235 15.8603L52.1235 16.4178C52.0904 16.4178 52.0574 16.4207 52.0249 16.4265L51.9263 15.8779L51.8276 15.3293C51.9254 15.3117 52.0244 15.3029 52.1235 15.3029L52.1235 15.8603ZM51.9263 15.8779L52.025 16.4265L46.911 17.3464L46.8123 16.7978L46.7136 16.2492L51.8276 15.3293L51.9263 15.8779ZM45.8674 17.635L46.386 17.8392C45.5972 19.8433 43.6456 21.2635 41.3589 21.2635L41.3589 20.7061L41.3589 20.1486C43.1718 20.1486 44.7218 19.0234 45.3487 17.4309L45.8674 17.635ZM41.3589 20.7061L41.3589 21.2635C39.7608 21.2635 38.3249 20.569 37.3366 19.4673L37.7516 19.0951L38.1665 18.7229C38.9523 19.5989 40.0908 20.1486 41.3589 20.1486L41.3589 20.7061ZM36.5761 18.6415L36.6749 19.1901L1.72719 25.4822L1.62842 24.9336L1.52965 24.385L36.4773 18.0929L36.5761 18.6415ZM1.62842 24.9336L1.72735 25.4822C1.46189 25.53 1.26892 25.7609 1.26884 26.0304L0.711426 26.0303L0.154008 26.0301C0.154225 25.2211 0.73354 24.5286 1.52949 24.385L1.62842 24.9336ZM0.711426 26.0303L1.26884 26.0303L1.26884 28.7119L0.711426 28.7119L0.154008 28.7119L0.154008 26.0303L0.711426 26.0303ZM37.7516 19.0951L37.3366 19.4673C37.1345 19.2421 36.8815 19.1529 36.6749 19.1901L36.5761 18.6415L36.4773 18.0929C37.1512 17.9716 37.7712 18.2822 38.1665 18.7229L37.7516 19.0951ZM46.8123 16.7978L46.911 17.3464C46.7041 17.3836 46.4975 17.5561 46.386 17.8392L45.8674 17.635L45.3487 17.4309C45.5656 16.8799 46.0383 16.3707 46.7136 16.2492L46.8123 16.7978ZM72.782 27.4105L73.2778 27.1557C73.5027 27.5931 73.8216 27.815 74.0866 27.8097L74.0978 28.367L74.1091 28.9243C73.2151 28.9423 72.5914 28.2589 72.2863 27.6654L72.782 27.4105ZM66.5208 28.5197L66.5095 27.9624C66.7743 27.9571 67.0836 27.7228 67.2903 27.2768L67.7961 27.5112L68.3018 27.7456C68.0212 28.351 67.4259 29.059 66.532 29.077L66.5208 28.5197Z" fill="black" fill-opacity="0.4" mask="url(#path-3-inside-2_1262_227370)"/>
<path d="M44.6547 13.2731C44.917 13.8089 45.0642 14.4114 45.0642 15.0482C45.0642 17.2807 43.2544 19.0905 41.0219 19.0905C38.7893 19.0905 36.9795 17.2807 36.9795 15.0482C36.9795 12.8156 38.7893 11.0058 41.0219 11.0058C41.7396 11.0058 42.4136 11.1928 42.9979 11.5208C53.2008 17.2488 60.4085 21.3953 70.5124 27.3564" stroke="#7E7E7E" stroke-width="3.34451" stroke-linecap="round"/>
<g filter="url(#filter0_i_1262_227370)">
<path d="M46.1791 15.0484C46.1791 14.4327 45.6799 13.9336 45.0642 13.9336C44.4485 13.9336 43.9494 14.4327 43.9494 15.0484L46.1791 15.0484ZM41.0219 17.976L39.907 17.976L39.907 20.2057L41.0219 20.2057L41.0219 17.976ZM45.0642 15.0484L43.9494 15.0484C43.9494 16.6653 42.6387 17.976 41.0219 17.976L41.0219 19.0908L41.0219 20.2057C43.8701 20.2057 46.1791 17.8967 46.1791 15.0484L45.0642 15.0484Z" fill="#7E7E7E"/>
</g>
<g filter="url(#filter1_i_1262_227370)">
<path d="M41.0219 19.0905C38.7893 19.0905 36.9795 17.2807 36.9795 15.0482C36.9795 12.8156 38.7893 11.0058 41.0219 11.0058C41.7396 11.0058 42.4136 11.1928 42.9979 11.5208C53.2008 17.2488 60.4085 21.3953 70.5124 27.3564" stroke="#7E7E7E" stroke-width="2.22967" stroke-linecap="round"/>
</g>
<circle cx="70.5125" cy="3.02832" r="1.45635" transform="rotate(-90 70.5125 3.02832)" stroke="#7E7E7E" stroke-width="1.67225" stroke-linecap="round"/>
<g filter="url(#filter2_i_1262_227370)">
<circle cx="70.5123" cy="3.0283" r="0.869945" transform="rotate(-90 70.5123 3.0283)" stroke="#7E7E7E" stroke-width="1.67225" stroke-linecap="round"/>
</g>
<path d="M35.5856 15.0488C35.5856 12.0467 38.02 9.6123 41.0221 9.6123C41.923 9.61234 42.776 9.83316 43.527 10.2236L43.6803 10.3066C52.0555 15.0085 58.2202 18.4771 65.9293 23.0215L69.3395 25.042L71.2203 26.1562C71.8418 26.5229 72.0745 27.297 71.7789 27.9385L71.7125 28.0645C71.3214 28.7273 70.4671 28.9477 69.8043 28.5566L69.8033 28.5576L67.8981 27.4287L67.899 27.4277C59.8956 22.6624 54.8187 19.9612 46.8512 15.3311L46.4733 15.1113L46.4342 15.5469C46.1827 18.3153 43.856 20.4843 41.0221 20.4844C38.1138 20.4844 35.739 18.2003 35.5934 15.3281L35.5856 15.0488Z" stroke="#787878" stroke-width="0.557418" stroke-linecap="round"/>
<defs>
<filter id="filter0_i_1262_227370" x="39.907" y="13.9336" width="6.27209" height="6.82939" filterUnits="userSpaceOnUse" color-interpolation-filters="sRGB">
<feFlood flood-opacity="0" result="BackgroundImageFix"/>
<feBlend mode="normal" in="SourceGraphic" in2="BackgroundImageFix" result="shape"/>
<feColorMatrix in="SourceAlpha" type="matrix" values="0 0 0 0 0 0 0 0 0 0 0 0 0 0 0 0 0 0 127 0" result="hardAlpha"/>
<feOffset dy="1.67225"/>
<feGaussianBlur stdDeviation="0.278709"/>
<feComposite in2="hardAlpha" operator="arithmetic" k2="-1" k3="1"/>
<feColorMatrix type="matrix" values="0 0 0 0 1 0 0 0 0 1 0 0 0 0 1 0 0 0 0.95 0"/>
<feBlend mode="normal" in2="shape" result="effect1_innerShadow_1262_227370"/>
</filter>
<filter id="filter1_i_1262_227370" x="35.8646" y="9.89111" width="35.7628" height="19.138" filterUnits="userSpaceOnUse" color-interpolation-filters="sRGB">
<feFlood flood-opacity="0" result="BackgroundImageFix"/>
<feBlend mode="normal" in="SourceGraphic" in2="BackgroundImageFix" result="shape"/>
<feColorMatrix in="SourceAlpha" type="matrix" values="0 0 0 0 0 0 0 0 0 0 0 0 0 0 0 0 0 0 127 0" result="hardAlpha"/>
<feOffset dy="1.67225"/>
<feGaussianBlur stdDeviation="0.278709"/>
<feComposite in2="hardAlpha" operator="arithmetic" k2="-1" k3="1"/>
<feColorMatrix type="matrix" values="0 0 0 0 1 0 0 0 0 1 0 0 0 0 1 0 0 0 0.95 0"/>
<feBlend mode="normal" in2="shape" result="effect1_innerShadow_1262_227370"/>
</filter>
<filter id="filter2_i_1262_227370" x="68.8063" y="1.32227" width="3.41211" height="3.96953" filterUnits="userSpaceOnUse" color-interpolation-filters="sRGB">
<feFlood flood-opacity="0" result="BackgroundImageFix"/>
<feBlend mode="normal" in="SourceGraphic" in2="BackgroundImageFix" result="shape"/>
<feColorMatrix in="SourceAlpha" type="matrix" values="0 0 0 0 0 0 0 0 0 0 0 0 0 0 0 0 0 0 127 0" result="hardAlpha"/>
<feOffset dy="1.67225"/>
<feGaussianBlur stdDeviation="0.278709"/>
<feComposite in2="hardAlpha" operator="arithmetic" k2="-1" k3="1"/>
<feColorMatrix type="matrix" values="0 0 0 0 1 0 0 0 0 1 0 0 0 0 1 0 0 0 0.95 0"/>
<feBlend mode="normal" in2="shape" result="effect1_innerShadow_1262_227370"/>
</filter>
</defs>
</svg>
