<svg width="24" height="24" viewBox="0 0 24 24" fill="none" xmlns="http://www.w3.org/2000/svg">
<path d="M17.4082 18.5729C17.8764 18.8656 18.019 19.4825 17.7266 19.9508C17.4339 20.4189 16.8169 20.5615 16.3486 20.2692L13.3975 18.4255C13.8026 17.8974 14.1581 17.3302 14.459 16.7301L17.4082 18.5729ZM12.542 6.10222C12.9525 6.62599 13.3109 7.19226 13.6064 7.79558L11.5381 9.08854L13.8818 8.41569C14.1293 9.0279 14.3148 9.6711 14.4316 10.3385L12.1299 10.9997H14.5254C14.5595 11.3282 14.5781 11.6621 14.5781 11.9997C14.5781 12.3374 14.5595 12.671 14.5254 12.9997H12.1484L14.4316 13.654C14.3153 14.3214 14.1308 14.9646 13.8838 15.5768L11.5381 14.905L13.6084 16.1979C13.3132 16.8015 12.9553 17.3682 12.5449 17.8923L8.96973 15.6589C9.7996 14.7609 10.3294 13.5815 10.3955 12.279L10.4023 12.0016C10.4023 10.5867 9.85633 9.29956 8.96484 8.33757L12.542 6.10222ZM19.0049 14.9655C19.5357 15.1178 19.8427 15.6719 19.6904 16.2028C19.5381 16.7335 18.9839 17.0405 18.4531 16.8883L14.8486 15.8542C15.0898 15.2389 15.2755 14.5965 15.3984 13.9313L19.0049 14.9655ZM8.09863 8.87858C8.90349 9.67478 9.40234 10.7801 9.40234 12.0016C9.40219 13.2199 8.90479 14.3212 8.10352 15.1169L4.47559 12.8503C4.47402 12.8493 4.47227 12.8483 4.4707 12.8473C4.18834 12.6707 4.00025 12.3572 4 11.9997C4 11.6434 4.18635 11.3301 4.4668 11.153C4.48873 11.1366 4.51156 11.1209 4.53516 11.1061L8.09863 8.87858ZM19 10.9997C19.5523 10.9997 20 11.4474 20 11.9997C19.9996 12.5516 19.552 12.9997 19 12.9997H15.5293C15.5602 12.6704 15.5781 12.337 15.5781 11.9997C15.5781 11.6625 15.5602 11.3288 15.5293 10.9997H19ZM18.4502 7.1071C18.9811 6.95487 19.5353 7.26176 19.6875 7.79265C19.8394 8.32338 19.5317 8.87679 19.001 9.02897L15.3975 10.0622C15.2742 9.39709 15.0891 8.75443 14.8477 8.13933L18.4502 7.1071ZM16.4082 3.68718C16.8766 3.39451 17.4935 3.53717 17.7861 4.00554C18.0785 4.47386 17.936 5.09087 17.4678 5.38347L14.458 7.26335C14.1569 6.66364 13.8007 6.09678 13.3955 5.56901L16.4082 3.68718Z" fill="#4E02B2"/>
</svg>
