<svg width="106" height="30" viewBox="0 0 106 30" fill="none" xmlns="http://www.w3.org/2000/svg">
<mask id="path-1-inside-1_1262_227386" fill="white">
<path d="M105.239 27.4111C105.239 28.0357 104.725 28.539 104.101 28.5264L39.4294 27.219C38.8501 27.2072 38.3978 26.7361 38.1541 26.2104C37.7139 25.2606 36.7531 24.6017 35.6372 24.6016C34.561 24.6016 33.6285 25.2143 33.1682 26.1097C32.9032 26.6252 32.4318 27.0779 31.8524 27.0662L1.8042 26.459C1.19745 26.4467 0.711509 25.9526 0.711425 25.3457L0.711425 21.6865C0.711426 19.4334 6.77148 14.5596 10.2144 14.5596L24.3589 14.5596C24.6045 14.5596 24.8369 14.6405 25.0396 14.7793C25.8988 15.3682 28.4325 16.9346 31.0669 16.9346C33.6621 16.9345 35.9903 15.4148 36.8179 14.8066C37.0293 14.6512 37.282 14.5596 37.5444 14.5596L53.8267 14.5596C53.8928 14.5596 53.9588 14.5654 54.0239 14.5771L59.1379 15.497C59.579 15.5764 59.9187 15.9172 60.0828 16.3343C60.7907 18.1326 62.5415 19.4053 64.5913 19.4053C66.0244 19.4053 67.3116 18.7832 68.1986 17.7943C68.4973 17.4614 68.9338 17.2614 69.3741 17.3407L104.322 23.6328C104.852 23.7285 105.239 24.1902 105.239 24.7295L105.239 27.4111Z"/>
</mask>
<path d="M105.239 27.4111C105.239 28.0357 104.725 28.539 104.101 28.5264L39.4294 27.219C38.8501 27.2072 38.3978 26.7361 38.1541 26.2104C37.7139 25.2606 36.7531 24.6017 35.6372 24.6016C34.561 24.6016 33.6285 25.2143 33.1682 26.1097C32.9032 26.6252 32.4318 27.0779 31.8524 27.0662L1.8042 26.459C1.19745 26.4467 0.711509 25.9526 0.711425 25.3457L0.711425 21.6865C0.711426 19.4334 6.77148 14.5596 10.2144 14.5596L24.3589 14.5596C24.6045 14.5596 24.8369 14.6405 25.0396 14.7793C25.8988 15.3682 28.4325 16.9346 31.0669 16.9346C33.6621 16.9345 35.9903 15.4148 36.8179 14.8066C37.0293 14.6512 37.282 14.5596 37.5444 14.5596L53.8267 14.5596C53.8928 14.5596 53.9588 14.5654 54.0239 14.5771L59.1379 15.497C59.579 15.5764 59.9187 15.9172 60.0828 16.3343C60.7907 18.1326 62.5415 19.4053 64.5913 19.4053C66.0244 19.4053 67.3116 18.7832 68.1986 17.7943C68.4973 17.4614 68.9338 17.2614 69.3741 17.3407L104.322 23.6328C104.852 23.7285 105.239 24.1902 105.239 24.7295L105.239 27.4111Z" fill="#FF6B6B"/>
<path d="M104.101 28.5264L104.09 29.0837L104.09 29.0837L104.101 28.5264ZM35.6372 24.6016L35.6373 24.0441L35.6372 24.0441L35.6372 24.6016ZM1.8042 26.459L1.81546 25.9017L1.8042 26.459ZM0.711425 25.3457L0.154006 25.3457L0.154006 25.3458L0.711425 25.3457ZM10.2144 14.5596L10.2144 15.117L10.2144 14.5596ZM24.3589 14.5596L24.3589 14.0021L24.3589 14.5596ZM25.0396 14.7793L25.3547 14.3195L25.3546 14.3194L25.0396 14.7793ZM31.0669 16.9346L31.0669 17.492L31.0669 17.492L31.0669 16.9346ZM36.8179 14.8066L37.148 15.2558L37.148 15.2558L36.8179 14.8066ZM54.0239 14.5771L54.1226 14.0285L54.1226 14.0285L54.0239 14.5771ZM64.5913 19.4053L64.5913 19.9627L64.5913 19.9627L64.5913 19.4053ZM104.322 23.6328L104.421 23.0842L104.421 23.0842L104.322 23.6328ZM105.239 24.7295L105.796 24.7295L105.796 24.7293L105.239 24.7295ZM68.1986 17.7943L68.6136 18.1666L68.1986 17.7943ZM69.3741 17.3407L69.2753 17.8893L69.3741 17.3407ZM59.1379 15.497L59.0392 16.0456L59.1379 15.497ZM33.1682 26.1097L32.6724 25.8549L33.1682 26.1097ZM31.8524 27.0662L31.8411 27.6235L31.8524 27.0662ZM39.4294 27.219L39.4407 26.6616L39.4294 27.219ZM105.239 27.4111L104.681 27.4111C104.681 27.7236 104.424 27.9754 104.112 27.9691L104.101 28.5264L104.09 29.0837C105.027 29.1026 105.796 28.3477 105.796 27.4111L105.239 27.4111ZM104.101 28.5264L104.112 27.9691L39.4407 26.6616L39.4294 27.219L39.4182 27.7763L104.09 29.0837L104.101 28.5264ZM38.1541 26.2104L38.6599 25.976C38.1318 24.8368 36.9785 24.0443 35.6373 24.0441L35.6372 24.6016L35.6371 25.159C36.5278 25.1591 37.2959 25.6844 37.6484 26.4448L38.1541 26.2104ZM35.6372 24.6016L35.6372 24.0441C34.3439 24.0441 33.2244 24.7811 32.6724 25.8549L33.1682 26.1097L33.6639 26.3646C34.0326 25.6474 34.7782 25.159 35.6372 25.159L35.6372 24.6016ZM31.8524 27.0662L31.8636 26.5089L1.81546 25.9017L1.8042 26.459L1.79294 27.0163L31.8411 27.6235L31.8524 27.0662ZM1.8042 26.459L1.81546 25.9017C1.51102 25.8955 1.26888 25.648 1.26884 25.3456L0.711425 25.3457L0.154006 25.3458C0.154136 26.2571 0.883872 26.9979 1.79294 27.0163L1.8042 26.459ZM0.711425 25.3457L1.26884 25.3457L1.26884 21.6865L0.711425 21.6865L0.154007 21.6865L0.154006 25.3457L0.711425 25.3457ZM0.711425 21.6865L1.26884 21.6865C1.26884 21.5227 1.32636 21.2877 1.47826 20.9803C1.62762 20.6781 1.85261 20.3373 2.14658 19.9716C2.73447 19.2402 3.56524 18.4497 4.5122 17.7195C5.45808 16.9902 6.50369 16.3333 7.5132 15.8612C8.53197 15.3848 9.47044 15.117 10.2144 15.117L10.2144 14.5596L10.2144 14.0021C9.23684 14.0021 8.12672 14.3436 7.04092 14.8514C5.94586 15.3635 4.83092 16.066 3.83143 16.8367C2.83302 17.6066 1.93359 18.4571 1.27763 19.2732C0.949676 19.6812 0.674324 20.0908 0.478821 20.4864C0.285866 20.8769 0.154007 21.2871 0.154007 21.6865L0.711425 21.6865ZM10.2144 14.5596L10.2144 15.117L24.3589 15.117L24.3589 14.5596L24.3589 14.0021L10.2144 14.0021L10.2144 14.5596ZM24.3589 14.5596L24.3589 15.117C24.4786 15.117 24.6029 15.1559 24.7245 15.2392L25.0396 14.7793L25.3546 14.3194C25.0709 14.1251 24.7304 14.0021 24.3589 14.0021L24.3589 14.5596ZM25.0396 14.7793L24.7244 15.2391C25.5938 15.8349 28.25 17.492 31.0669 17.492L31.0669 16.9346L31.0669 16.3771C28.6151 16.3771 26.2039 14.9015 25.3547 14.3195L25.0396 14.7793ZM31.0669 16.9346L31.0669 17.492C33.8508 17.4919 36.3032 15.8767 37.148 15.2558L36.8179 14.8066L36.4878 14.3575C35.6775 14.953 33.4733 16.3771 31.0669 16.3771L31.0669 16.9346ZM36.8179 14.8066L37.148 15.2558C37.2741 15.1631 37.4131 15.117 37.5444 15.117L37.5444 14.5596L37.5444 14.0021C37.151 14.0021 36.7845 14.1394 36.4878 14.3575L36.8179 14.8066ZM37.5444 14.5596L37.5444 15.117L53.8267 15.117L53.8267 14.5596L53.8267 14.0021L37.5444 14.0021L37.5444 14.5596ZM53.8267 14.5596L53.8267 15.117C53.8598 15.117 53.8928 15.1199 53.9253 15.1258L54.0239 14.5771L54.1226 14.0285C54.0248 14.0109 53.9258 14.0021 53.8267 14.0021L53.8267 14.5596ZM54.0239 14.5771L53.9252 15.1258L59.0392 16.0456L59.1379 15.497L59.2366 14.9484L54.1226 14.0285L54.0239 14.5771ZM60.0828 16.3343L59.5642 16.5384C60.353 18.5425 62.3046 19.9627 64.5913 19.9627L64.5913 19.4053L64.5913 18.8479C62.7784 18.8479 61.2284 17.7226 60.6015 16.1301L60.0828 16.3343ZM64.5913 19.4053L64.5913 19.9627C66.1893 19.9627 67.6253 19.2682 68.6136 18.1666L68.1986 17.7943L67.7837 17.4221C66.9979 18.2981 65.8594 18.8478 64.5913 18.8479L64.5913 19.4053ZM69.3741 17.3407L69.2753 17.8893L104.223 24.1814L104.322 23.6328L104.421 23.0842L69.4729 16.7921L69.3741 17.3407ZM104.322 23.6328L104.223 24.1814C104.488 24.2293 104.681 24.4601 104.681 24.7296L105.239 24.7295L105.796 24.7293C105.796 23.9203 105.217 23.2278 104.421 23.0842L104.322 23.6328ZM105.239 24.7295L104.681 24.7295L104.681 27.4111L105.239 27.4111L105.796 27.4111L105.796 24.7295L105.239 24.7295ZM68.1986 17.7943L68.6136 18.1666C68.8156 17.9413 69.0687 17.8521 69.2753 17.8893L69.3741 17.3407L69.4729 16.7921C68.799 16.6708 68.179 16.9814 67.7837 17.4221L68.1986 17.7943ZM59.1379 15.497L59.0392 16.0456C59.2461 16.0828 59.4527 16.2553 59.5642 16.5384L60.0828 16.3343L60.6015 16.1301C60.3846 15.5791 59.9119 15.0699 59.2366 14.9484L59.1379 15.497ZM33.1682 26.1097L32.6724 25.8549C32.4475 26.2924 32.1286 26.5142 31.8636 26.5089L31.8524 27.0662L31.8411 27.6235C32.7351 27.6416 33.3588 26.9581 33.6639 26.3646L33.1682 26.1097ZM39.4294 27.219L39.4407 26.6616C39.1759 26.6563 38.8666 26.422 38.6599 25.976L38.1541 26.2104L37.6484 26.4448C37.929 27.0502 38.5243 27.7582 39.4182 27.7763L39.4294 27.219Z" fill="black" fill-opacity="0.4" mask="url(#path-1-inside-1_1262_227386)"/>
<mask id="path-3-inside-2_1262_227386" fill="white">
<path d="M105.239 1.70801C105.239 1.08349 104.725 0.58016 104.101 0.592773L39.4294 1.90018C38.8501 1.91189 38.3978 2.38303 38.1541 2.90874C37.7139 3.85856 36.7531 4.51745 35.6372 4.51758C34.561 4.51758 33.6285 3.90487 33.1682 3.0094C32.9032 2.49391 32.4318 2.04123 31.8524 2.05294L1.8042 2.66015C1.19745 2.67241 0.71151 3.16657 0.711426 3.77343L0.711426 7.43261C0.711426 9.68578 6.77148 14.5596 10.2144 14.5596L24.3589 14.5596C24.6045 14.5596 24.8369 14.4786 25.0396 14.3398C25.8988 13.7509 28.4325 12.1846 31.0669 12.1846C33.6621 12.1847 35.9903 13.7043 36.8179 14.3125C37.0293 14.4679 37.282 14.5596 37.5444 14.5596L53.8267 14.5596C53.8928 14.5596 53.9588 14.5537 54.0239 14.542L59.1379 13.6221C59.579 13.5428 59.9187 13.2019 60.0828 12.7849C60.7907 10.9866 62.5415 9.71387 64.5913 9.71387C66.0244 9.71388 67.3116 10.336 68.1986 11.3248C68.4973 11.6578 68.9338 11.8577 69.3741 11.7784L104.322 5.48633C104.852 5.39062 105.239 4.92891 105.239 4.38965L105.239 1.70801Z"/>
</mask>
<path d="M105.239 1.70801C105.239 1.08349 104.725 0.58016 104.101 0.592773L39.4294 1.90018C38.8501 1.91189 38.3978 2.38303 38.1541 2.90874C37.7139 3.85856 36.7531 4.51745 35.6372 4.51758C34.561 4.51758 33.6285 3.90487 33.1682 3.0094C32.9032 2.49391 32.4318 2.04123 31.8524 2.05294L1.8042 2.66015C1.19745 2.67241 0.71151 3.16657 0.711426 3.77343L0.711426 7.43261C0.711426 9.68578 6.77148 14.5596 10.2144 14.5596L24.3589 14.5596C24.6045 14.5596 24.8369 14.4786 25.0396 14.3398C25.8988 13.7509 28.4325 12.1846 31.0669 12.1846C33.6621 12.1847 35.9903 13.7043 36.8179 14.3125C37.0293 14.4679 37.282 14.5596 37.5444 14.5596L53.8267 14.5596C53.8928 14.5596 53.9588 14.5537 54.0239 14.542L59.1379 13.6221C59.579 13.5428 59.9187 13.2019 60.0828 12.7849C60.7907 10.9866 62.5415 9.71387 64.5913 9.71387C66.0244 9.71388 67.3116 10.336 68.1986 11.3248C68.4973 11.6578 68.9338 11.8577 69.3741 11.7784L104.322 5.48633C104.852 5.39062 105.239 4.92891 105.239 4.38965L105.239 1.70801Z" fill="#FF6B6B"/>
<path d="M105.239 1.70801L104.681 1.70801L105.239 1.70801ZM104.101 0.592773L104.09 0.035469L104.09 0.035469L104.101 0.592773ZM35.6372 4.51758L35.6373 5.07499L35.6372 5.07499L35.6372 4.51758ZM1.8042 2.66015L1.81546 3.21746L1.8042 2.66015ZM0.711426 3.77343L0.154007 3.77343L0.154007 3.77336L0.711426 3.77343ZM0.711426 7.43261L0.154007 7.43261L0.711426 7.43261ZM10.2144 14.5596L10.2144 15.117L10.2144 14.5596ZM24.3589 14.5596L24.3589 14.0021L24.3589 14.5596ZM25.0396 14.3398L25.3547 14.7996L25.3546 14.7997L25.0396 14.3398ZM31.0669 12.1846L31.0669 11.6271L31.0669 11.6271L31.0669 12.1846ZM36.8179 14.3125L37.148 13.8633L37.148 13.8633L36.8179 14.3125ZM54.0239 14.542L54.1226 15.0906L54.1226 15.0906L54.0239 14.542ZM64.5913 9.71387L64.5913 9.15645L64.5913 9.15645L64.5913 9.71387ZM104.322 5.48633L104.421 6.0349L104.421 6.03493L104.322 5.48633ZM105.239 4.38965L105.796 4.38965L105.796 4.3898L105.239 4.38965ZM68.1986 11.3248L67.7837 11.697L68.1986 11.3248ZM69.3741 11.7784L69.2753 11.2298L69.3741 11.7784ZM59.1379 13.6221L59.0392 13.0735L59.1379 13.6221ZM60.0828 12.7849L59.5642 12.5807L60.0828 12.7849ZM33.1682 3.0094L32.6724 3.26424L33.1682 3.0094ZM31.8524 2.05294L31.8411 1.49563L31.8524 2.05294ZM39.4294 1.90018L39.4407 2.45749L39.4294 1.90018ZM105.239 1.70801L104.681 1.70801C104.681 1.39556 104.424 1.14377 104.112 1.15008L104.101 0.592773L104.09 0.035469C105.027 0.0165453 105.796 0.771419 105.796 1.70801L105.239 1.70801ZM104.101 0.592773L104.112 1.15008L39.4407 2.45749L39.4294 1.90018L39.4182 1.34288L104.09 0.035469L104.101 0.592773ZM38.1541 2.90874L38.6599 3.14314C38.1318 4.28234 36.9785 5.07484 35.6373 5.07499L35.6372 4.51758L35.6371 3.96016C36.5278 3.96006 37.2959 3.43478 37.6484 2.67433L38.1541 2.90874ZM35.6372 4.51758L35.6372 5.07499C34.3439 5.07499 33.2244 4.33806 32.6724 3.26424L33.1682 3.0094L33.6639 2.75455C34.0326 3.47169 34.7782 3.96016 35.6372 3.96016L35.6372 4.51758ZM31.8524 2.05294L31.8636 2.61024L1.81546 3.21746L1.8042 2.66015L1.79294 2.10285L31.8411 1.49563L31.8524 2.05294ZM1.8042 2.66015L1.81546 3.21746C1.51102 3.22361 1.26888 3.47114 1.26885 3.77351L0.711426 3.77343L0.154007 3.77336C0.154137 2.86201 0.883874 2.12121 1.79294 2.10285L1.8042 2.66015ZM0.711426 3.77343L1.26885 3.77343L1.26884 7.43261L0.711426 7.43261L0.154007 7.43261L0.154007 3.77343L0.711426 3.77343ZM0.711426 7.43261L1.26884 7.43261C1.26884 7.59644 1.32636 7.83142 1.47826 8.13879C1.62762 8.44101 1.85261 8.7818 2.14658 9.14754C2.73447 9.87897 3.56524 10.6694 4.5122 11.3996C5.45808 12.129 6.50369 12.7858 7.5132 13.2579C8.53197 13.7344 9.47044 14.0021 10.2144 14.0021L10.2144 14.5596L10.2144 15.117C9.23684 15.117 8.12672 14.7756 7.04092 14.2678C5.94586 13.7556 4.83093 13.0532 3.83143 12.2824C2.83302 11.5126 1.93359 10.6621 1.27763 9.84596C0.949677 9.43794 0.674324 9.0283 0.478821 8.63272C0.285866 8.24228 0.154007 7.83208 0.154007 7.43261L0.711426 7.43261ZM10.2144 14.5596L10.2144 14.0021L24.3589 14.0021L24.3589 14.5596L24.3589 15.117L10.2144 15.117L10.2144 14.5596ZM24.3589 14.5596L24.3589 14.0021C24.4786 14.0021 24.6029 13.9633 24.7245 13.88L25.0396 14.3398L25.3546 14.7997C25.0709 14.994 24.7304 15.117 24.3589 15.117L24.3589 14.5596ZM25.0396 14.3398L24.7244 13.88C25.5938 13.2842 28.25 11.6271 31.0669 11.6271L31.0669 12.1846L31.0669 12.742C28.6151 12.742 26.2039 14.2176 25.3547 14.7996L25.0396 14.3398ZM31.0669 12.1846L31.0669 11.6271C33.8508 11.6272 36.3032 13.2425 37.148 13.8633L36.8179 14.3125L36.4878 14.7617C35.6775 14.1661 33.4733 12.7421 31.0669 12.742L31.0669 12.1846ZM36.8179 14.3125L37.148 13.8633C37.2741 13.9561 37.4131 14.0021 37.5444 14.0021L37.5444 14.5596L37.5444 15.117C37.151 15.117 36.7845 14.9797 36.4878 14.7617L36.8179 14.3125ZM37.5444 14.5596L37.5444 14.0021L53.8267 14.0021L53.8267 14.5596L53.8267 15.117L37.5444 15.117L37.5444 14.5596ZM53.8267 14.5596L53.8267 14.0021C53.8598 14.0021 53.8928 13.9992 53.9253 13.9934L54.0239 14.542L54.1226 15.0906C54.0248 15.1082 53.9258 15.117 53.8267 15.117L53.8267 14.5596ZM54.0239 14.542L53.9252 13.9934L59.0392 13.0735L59.1379 13.6221L59.2366 14.1707L54.1226 15.0906L54.0239 14.542ZM60.0828 12.7849L59.5642 12.5807C60.353 10.5767 62.3046 9.15645 64.5913 9.15645L64.5913 9.71387L64.5913 10.2713C62.7784 10.2713 61.2284 11.3965 60.6015 12.989L60.0828 12.7849ZM64.5913 9.71387L64.5913 9.15645C66.1894 9.15646 67.6253 9.85092 68.6136 10.9526L68.1986 11.3248L67.7837 11.697C66.9979 10.821 65.8594 10.2713 64.5913 10.2713L64.5913 9.71387ZM69.3741 11.7784L69.2753 11.2298L104.223 4.93773L104.322 5.48633L104.421 6.03493L69.4729 12.327L69.3741 11.7784ZM104.322 5.48633L104.223 4.93776C104.488 4.88988 104.681 4.65902 104.681 4.3895L105.239 4.38965L105.796 4.3898C105.796 5.19881 105.217 5.89135 104.421 6.0349L104.322 5.48633ZM105.239 4.38965L104.681 4.38965L104.681 1.70801L105.239 1.70801L105.796 1.70801L105.796 4.38965L105.239 4.38965ZM68.1986 11.3248L68.6136 10.9526C68.8156 11.1778 69.0687 11.267 69.2753 11.2298L69.3741 11.7784L69.4729 12.327C68.799 12.4484 68.179 12.1377 67.7837 11.697L68.1986 11.3248ZM59.1379 13.6221L59.0392 13.0735C59.2461 13.0363 59.4527 12.8638 59.5642 12.5807L60.0828 12.7849L60.6015 12.989C60.3846 13.54 59.9119 14.0493 59.2366 14.1707L59.1379 13.6221ZM33.1682 3.0094L32.6724 3.26424C32.4475 2.82678 32.1286 2.60489 31.8636 2.61024L31.8524 2.05294L31.8411 1.49563C32.7351 1.47757 33.3588 2.16105 33.6639 2.75455L33.1682 3.0094ZM39.4294 1.90018L39.4407 2.45749C39.1759 2.46284 38.8666 2.69716 38.6599 3.14314L38.1541 2.90874L37.6484 2.67433C37.929 2.06891 38.5243 1.36095 39.4182 1.34288L39.4294 1.90018Z" fill="black" fill-opacity="0.4" mask="url(#path-3-inside-2_1262_227386)"/>
<path d="M61.2955 17.1468C61.0332 16.611 60.886 16.0086 60.886 15.3718C60.886 13.1392 62.6958 11.3294 64.9283 11.3294C67.1609 11.3294 68.9707 13.1392 68.9707 15.3718C68.9707 17.6043 67.1609 19.4141 64.9283 19.4141C64.2106 19.4141 63.5366 19.2271 62.9523 18.8991C52.7494 13.1711 45.5417 9.02464 35.4377 3.06348" stroke="#7E7E7E" stroke-width="3.34451" stroke-linecap="round"/>
<g filter="url(#filter0_i_1262_227386)">
<path d="M59.7711 15.3715C59.7711 15.9872 60.2703 16.4863 60.886 16.4863C61.5017 16.4863 62.0008 15.9872 62.0008 15.3715L59.7711 15.3715ZM64.9283 12.4439L66.0432 12.4439L66.0432 10.2143L64.9283 10.2143L64.9283 12.4439ZM60.886 15.3715L62.0008 15.3715C62.0008 13.7546 63.3115 12.4439 64.9283 12.4439L64.9283 11.3291L64.9283 10.2143C62.0801 10.2143 59.7711 12.5232 59.7711 15.3715L60.886 15.3715Z" fill="#7E7E7E"/>
</g>
<g filter="url(#filter1_i_1262_227386)">
<path d="M64.9283 11.3294C67.1609 11.3294 68.9707 13.1392 68.9707 15.3718C68.9707 17.6043 67.1609 19.4141 64.9283 19.4141C64.2106 19.4141 63.5366 19.2271 62.9523 18.8991C52.7494 13.1711 45.5417 9.02464 35.4377 3.06348" stroke="#7E7E7E" stroke-width="2.22967" stroke-linecap="round"/>
</g>
<circle cx="35.4377" cy="27.3916" r="1.45635" transform="rotate(90 35.4377 27.3916)" stroke="#7E7E7E" stroke-width="1.67225" stroke-linecap="round"/>
<g filter="url(#filter2_i_1262_227386)">
<circle cx="35.4378" cy="27.3911" r="0.869945" transform="rotate(90 35.4378 27.3911)" stroke="#7E7E7E" stroke-width="1.67225" stroke-linecap="round"/>
</g>
<path d="M70.3646 15.3711C70.3646 18.3732 67.9302 20.8076 64.9281 20.8076C64.0271 20.8076 63.1741 20.5868 62.4232 20.1963L62.2699 20.1133C53.8947 15.4114 47.73 11.9428 40.0209 7.39844L36.6107 5.37793L34.7299 4.26367C34.1084 3.89703 33.8757 3.12291 34.1713 2.48144L34.2377 2.35547C34.6288 1.69261 35.4831 1.47222 36.1459 1.86328L36.1469 1.8623L38.0521 2.99121L38.0511 2.99219C46.0546 7.75751 51.1315 10.4587 59.099 15.0889L59.4769 15.3086L59.516 14.873C59.7675 12.1047 62.0942 9.93566 64.9281 9.93555C67.8364 9.93555 70.2112 12.2197 70.3568 15.0918L70.3646 15.3711Z" stroke="#787878" stroke-width="0.557418" stroke-linecap="round"/>
<defs>
<filter id="filter0_i_1262_227386" x="59.7711" y="10.2144" width="6.27209" height="6.82939" filterUnits="userSpaceOnUse" color-interpolation-filters="sRGB">
<feFlood flood-opacity="0" result="BackgroundImageFix"/>
<feBlend mode="normal" in="SourceGraphic" in2="BackgroundImageFix" result="shape"/>
<feColorMatrix in="SourceAlpha" type="matrix" values="0 0 0 0 0 0 0 0 0 0 0 0 0 0 0 0 0 0 127 0" result="hardAlpha"/>
<feOffset dy="1.67225"/>
<feGaussianBlur stdDeviation="0.278709"/>
<feComposite in2="hardAlpha" operator="arithmetic" k2="-1" k3="1"/>
<feColorMatrix type="matrix" values="0 0 0 0 1 0 0 0 0 1 0 0 0 0 1 0 0 0 0.95 0"/>
<feBlend mode="normal" in2="shape" result="effect1_innerShadow_1262_227386"/>
</filter>
<filter id="filter1_i_1262_227386" x="34.3228" y="1.94824" width="35.7628" height="19.138" filterUnits="userSpaceOnUse" color-interpolation-filters="sRGB">
<feFlood flood-opacity="0" result="BackgroundImageFix"/>
<feBlend mode="normal" in="SourceGraphic" in2="BackgroundImageFix" result="shape"/>
<feColorMatrix in="SourceAlpha" type="matrix" values="0 0 0 0 0 0 0 0 0 0 0 0 0 0 0 0 0 0 127 0" result="hardAlpha"/>
<feOffset dy="1.67225"/>
<feGaussianBlur stdDeviation="0.278709"/>
<feComposite in2="hardAlpha" operator="arithmetic" k2="-1" k3="1"/>
<feColorMatrix type="matrix" values="0 0 0 0 1 0 0 0 0 1 0 0 0 0 1 0 0 0 0.95 0"/>
<feBlend mode="normal" in2="shape" result="effect1_innerShadow_1262_227386"/>
</filter>
<filter id="filter2_i_1262_227386" x="33.7318" y="25.6851" width="3.41211" height="3.96953" filterUnits="userSpaceOnUse" color-interpolation-filters="sRGB">
<feFlood flood-opacity="0" result="BackgroundImageFix"/>
<feBlend mode="normal" in="SourceGraphic" in2="BackgroundImageFix" result="shape"/>
<feColorMatrix in="SourceAlpha" type="matrix" values="0 0 0 0 0 0 0 0 0 0 0 0 0 0 0 0 0 0 127 0" result="hardAlpha"/>
<feOffset dy="1.67225"/>
<feGaussianBlur stdDeviation="0.278709"/>
<feComposite in2="hardAlpha" operator="arithmetic" k2="-1" k3="1"/>
<feColorMatrix type="matrix" values="0 0 0 0 1 0 0 0 0 1 0 0 0 0 1 0 0 0 0.95 0"/>
<feBlend mode="normal" in2="shape" result="effect1_innerShadow_1262_227386"/>
</filter>
</defs>
</svg>
