<svg width="165" height="138" viewBox="0 0 165 138" fill="none" xmlns="http://www.w3.org/2000/svg">
<path d="M160.671 69.1172C160.768 69.0196 160.768 68.8613 160.671 68.7637L159.08 67.1727C158.982 67.075 158.824 67.075 158.726 67.1727C158.629 67.2703 158.629 67.4286 158.726 67.5262L160.14 68.9404L158.726 70.3546C158.629 70.4523 158.629 70.6106 158.726 70.7082C158.824 70.8058 158.982 70.8058 159.08 70.7082L160.671 69.1172ZM33.5469 68.9404V69.1904H160.494V68.9404V68.6904H33.5469V68.9404Z" fill="#8F8F8F"/>
<path d="M141.457 1.55594C141.488 1.42125 141.404 1.28692 141.27 1.2559L139.08 0.750328C138.946 0.719305 138.812 0.803335 138.78 0.938021C138.749 1.07271 138.833 1.20704 138.968 1.23806L140.914 1.68745L140.464 3.63839C140.433 3.77308 140.516 3.90741 140.651 3.93843C140.785 3.96945 140.919 3.88542 140.95 3.75074L141.457 1.55594ZM33.5564 68.9404L33.6886 69.1526L33.9167 69.0097L33.7845 68.7975L33.6522 68.5854L33.4242 68.7283L33.5564 68.9404ZM34.2407 68.5118L34.3729 68.7239L34.8291 68.4382L34.6968 68.226L34.5646 68.0139L34.1084 68.2996L34.2407 68.5118ZM35.153 67.9403L35.2852 68.1524L35.7414 67.8666L35.6092 67.6545L35.4769 67.4423L35.0208 67.7281L35.153 67.9403ZM36.0654 67.3687L36.1976 67.5809L36.6538 67.2951L36.5215 67.083L36.3893 66.8708L35.9331 67.1566L36.0654 67.3687ZM36.9777 66.7972L37.1099 67.0093L37.5661 66.7236L37.4339 66.5114L37.3016 66.2993L36.8455 66.585L36.9777 66.7972ZM37.8901 66.2257L38.0223 66.4378L38.4785 66.1521L38.3462 65.9399L38.214 65.7277L37.7578 66.0135L37.8901 66.2257ZM38.8024 65.6541L38.9346 65.8663L39.3908 65.5805L39.2586 65.3684L39.1263 65.1562L38.6702 65.442L38.8024 65.6541ZM39.7148 65.0826L39.847 65.2948L40.3032 65.009L40.1709 64.7968L40.0387 64.5847L39.5825 64.8704L39.7148 65.0826ZM40.6271 64.5111L40.7593 64.7232L41.2155 64.4375L41.0833 64.2253L40.951 64.0131L40.4949 64.2989L40.6271 64.5111ZM41.5395 63.9395L41.6717 64.1517L42.1279 63.8659L41.9956 63.6538L41.8634 63.4416L41.4072 63.7274L41.5395 63.9395ZM42.4518 63.368L42.584 63.5802L43.0402 63.2944L42.908 63.0822L42.7757 62.8701L42.3196 63.1558L42.4518 63.368ZM43.3642 62.7965L43.4964 63.0086L43.9526 62.7229L43.8203 62.5107L43.6881 62.2985L43.2319 62.5843L43.3642 62.7965ZM44.2765 62.2249L44.4087 62.4371L44.8649 62.1513L44.7327 61.9392L44.6004 61.727L44.1443 62.0128L44.2765 62.2249ZM45.1889 61.6534L45.3211 61.8656L45.7773 61.5798L45.645 61.3676L45.5128 61.1555L45.0566 61.4412L45.1889 61.6534ZM46.1012 61.0819L46.2334 61.294L46.6896 61.0083L46.5574 60.7961L46.4251 60.584L45.969 60.8697L46.1012 61.0819ZM47.0136 60.5103L47.1458 60.7225L47.602 60.4367L47.4697 60.2246L47.3375 60.0124L46.8813 60.2982L47.0136 60.5103ZM47.9259 59.9388L48.0581 60.151L48.5143 59.8652L48.3821 59.653L48.2498 59.4409L47.7937 59.7267L47.9259 59.9388ZM48.8383 59.3673L48.9705 59.5794L49.4267 59.2937L49.2944 59.0815L49.1622 58.8694L48.706 59.1551L48.8383 59.3673ZM49.7506 58.7958L49.8828 59.0079L50.339 58.7221L50.2068 58.51L50.0745 58.2978L49.6184 58.5836L49.7506 58.7958ZM50.663 58.2242L50.7952 58.4364L51.2514 58.1506L51.1191 57.9385L50.9869 57.7263L50.5307 58.0121L50.663 58.2242ZM51.5753 57.6527L51.7075 57.8648L52.1637 57.5791L52.0315 57.3669L51.8992 57.1548L51.4431 57.4405L51.5753 57.6527ZM52.4877 57.0812L52.6199 57.2933L53.0761 57.0076L52.9438 56.7954L52.8116 56.5832L52.3554 56.869L52.4877 57.0812ZM53.4 56.5096L53.5323 56.7218L53.9884 56.436L53.8562 56.2239L53.7239 56.0117L53.2678 56.2975L53.4 56.5096ZM54.3124 55.9381L54.4446 56.1503L54.9008 55.8645L54.7685 55.6523L54.6363 55.4402L54.1801 55.7259L54.3124 55.9381ZM55.2247 55.3666L55.357 55.5787L55.8131 55.293L55.6809 55.0808L55.5486 54.8686L55.0925 55.1544L55.2247 55.3666ZM56.1371 54.795L56.2693 55.0072L56.7255 54.7214L56.5932 54.5093L56.461 54.2971L56.0048 54.5829L56.1371 54.795ZM57.0494 54.2235L57.1817 54.4357L57.6378 54.1499L57.5056 53.9377L57.3733 53.7256L56.9172 54.0113L57.0494 54.2235ZM57.9618 53.652L58.094 53.8641L58.5502 53.5784L58.4179 53.3662L58.2857 53.154L57.8295 53.4398L57.9618 53.652ZM58.8741 53.0804L59.0064 53.2926L59.4625 53.0068L59.3303 52.7947L59.1981 52.5825L58.7419 52.8683L58.8741 53.0804ZM59.7865 52.5089L59.9187 52.7211L60.3749 52.4353L60.2426 52.2231L60.1104 52.011L59.6542 52.2967L59.7865 52.5089ZM60.6988 51.9374L60.8311 52.1495L61.2872 51.8638L61.155 51.6516L61.0227 51.4394L60.5666 51.7252L60.6988 51.9374ZM61.6112 51.3658L61.7434 51.578L62.1996 51.2922L62.0673 51.0801L61.9351 50.8679L61.4789 51.1537L61.6112 51.3658ZM62.5235 50.7943L62.6558 51.0065L63.1119 50.7207L62.9797 50.5085L62.8475 50.2964L62.3913 50.5821L62.5235 50.7943ZM63.4359 50.2228L63.5681 50.4349L64.0243 50.1492L63.892 49.937L63.7598 49.7248L63.3036 50.0106L63.4359 50.2228ZM64.3482 49.6512L64.4805 49.8634L64.9366 49.5776L64.8044 49.3655L64.6722 49.1533L64.216 49.4391L64.3482 49.6512ZM65.2606 49.0797L65.3928 49.2919L65.849 49.0061L65.7167 48.7939L65.5845 48.5818L65.1283 48.8676L65.2606 49.0797ZM66.1729 48.5082L66.3052 48.7203L66.7613 48.4346L66.6291 48.2224L66.4969 48.0103L66.0407 48.296L66.1729 48.5082ZM67.0853 47.9366L67.2175 48.1488L67.6737 47.863L67.5414 47.6509L67.4092 47.4387L66.953 47.7245L67.0853 47.9366ZM67.9976 47.3651L68.1299 47.5773L68.586 47.2915L68.4538 47.0794L68.3216 46.8672L67.8654 47.153L67.9976 47.3651ZM68.91 46.7936L69.0422 47.0057L69.4984 46.72L69.3662 46.5078L69.2339 46.2957L68.7777 46.5814L68.91 46.7936ZM69.8223 46.2221L69.9546 46.4342L70.4107 46.1484L70.2785 45.9363L70.1463 45.7241L69.6901 46.0099L69.8223 46.2221ZM70.7347 45.6505L70.8669 45.8627L71.3231 45.5769L71.1909 45.3648L71.0586 45.1526L70.6024 45.4384L70.7347 45.6505ZM71.647 45.079L71.7793 45.2911L72.2354 45.0054L72.1032 44.7932L71.971 44.5811L71.5148 44.8668L71.647 45.079ZM72.5594 44.5075L72.6916 44.7196L73.1478 44.4339L73.0156 44.2217L72.8833 44.0095L72.4271 44.2953L72.5594 44.5075ZM73.4717 43.9359L73.604 44.1481L74.0601 43.8623L73.9279 43.6502L73.7957 43.438L73.3395 43.7238L73.4717 43.9359ZM74.3841 43.3644L74.5163 43.5766L74.9725 43.2908L74.8403 43.0786L74.708 42.8665L74.2518 43.1522L74.3841 43.3644ZM75.2964 42.7929L75.4287 43.005L75.8848 42.7193L75.7526 42.5071L75.6204 42.2949L75.1642 42.5807L75.2964 42.7929ZM76.2088 42.2213L76.341 42.4335L76.7972 42.1477L76.665 41.9356L76.5327 41.7234L76.0765 42.0092L76.2088 42.2213ZM77.1211 41.6498L77.2534 41.862L77.7096 41.5762L77.5773 41.364L77.4451 41.1519L76.9889 41.4376L77.1211 41.6498ZM78.0335 41.0783L78.1657 41.2904L78.6219 41.0047L78.4897 40.7925L78.3574 40.5803L77.9012 40.8661L78.0335 41.0783ZM78.9458 40.5067L79.0781 40.7189L79.5343 40.4331L79.402 40.221L79.2698 40.0088L78.8136 40.2946L78.9458 40.5067ZM79.8582 39.9352L79.9904 40.1474L80.4466 39.8616L80.3144 39.6494L80.1821 39.4373L79.7259 39.723L79.8582 39.9352ZM80.7705 39.3637L80.9028 39.5758L81.359 39.2901L81.2267 39.0779L81.0945 38.8657L80.6383 39.1515L80.7705 39.3637ZM81.6829 38.7921L81.8151 39.0043L82.2713 38.7185L82.1391 38.5064L82.0068 38.2942L81.5506 38.58L81.6829 38.7921ZM82.5952 38.2206L82.7275 38.4328L83.1837 38.147L83.0514 37.9348L82.9192 37.7227L82.463 38.0084L82.5952 38.2206ZM83.5076 37.6491L83.6398 37.8612L84.096 37.5755L83.9638 37.3633L83.8315 37.1511L83.3754 37.4369L83.5076 37.6491ZM84.4199 37.0775L84.5522 37.2897L85.0084 37.0039L84.8761 36.7918L84.7439 36.5796L84.2877 36.8654L84.4199 37.0775ZM85.3323 36.506L85.4645 36.7182L85.9207 36.4324L85.7885 36.2202L85.6562 36.0081L85.2001 36.2939L85.3323 36.506ZM86.2446 35.9345L86.3769 36.1466L86.8331 35.8609L86.7008 35.6487L86.5686 35.4366L86.1124 35.7223L86.2446 35.9345ZM87.157 35.3629L87.2892 35.5751L87.7454 35.2893L87.6132 35.0772L87.4809 34.865L87.0248 35.1508L87.157 35.3629ZM88.0693 34.7914L88.2016 35.0036L88.6578 34.7178L88.5255 34.5057L88.3933 34.2935L87.9371 34.5793L88.0693 34.7914ZM88.9817 34.2199L89.1139 34.432L89.5701 34.1463L89.4379 33.9341L89.3056 33.722L88.8495 34.0077L88.9817 34.2199ZM89.894 33.6484L90.0263 33.8605L90.4825 33.5747L90.3502 33.3626L90.218 33.1504L89.7618 33.4362L89.894 33.6484ZM90.8064 33.0768L90.9386 33.289L91.3948 33.0032L91.2626 32.7911L91.1303 32.5789L90.6742 32.8647L90.8064 33.0768ZM91.7187 32.5053L91.851 32.7175L92.3072 32.4317L92.1749 32.2195L92.0427 32.0074L91.5865 32.2931L91.7187 32.5053ZM92.6311 31.9338L92.7633 32.1459L93.2195 31.8602L93.0873 31.648L92.955 31.4358L92.4989 31.7216L92.6311 31.9338ZM93.5434 31.3622L93.6757 31.5744L94.1319 31.2886L93.9996 31.0765L93.8674 30.8643L93.4112 31.1501L93.5434 31.3622ZM94.4558 30.7907L94.588 31.0029L95.0442 30.7171L94.912 30.5049L94.7797 30.2928L94.3236 30.5785L94.4558 30.7907ZM95.3682 30.2192L95.5004 30.4313L95.9566 30.1456L95.8243 29.9334L95.6921 29.7212L95.2359 30.007L95.3682 30.2192ZM96.2805 29.6476L96.4127 29.8598L96.8689 29.574L96.7367 29.3619L96.6044 29.1497L96.1483 29.4355L96.2805 29.6476ZM97.1929 29.0761L97.3251 29.2883L97.7813 29.0025L97.649 28.7903L97.5168 28.5782L97.0606 28.8639L97.1929 29.0761ZM98.1052 28.5046L98.2374 28.7167L98.6936 28.431L98.5614 28.2188L98.4291 28.0066L97.973 28.2924L98.1052 28.5046ZM99.0176 27.933L99.1498 28.1452L99.606 27.8594L99.4737 27.6473L99.3415 27.4351L98.8853 27.7209L99.0176 27.933ZM99.9299 27.3615L100.062 27.5737L100.518 27.2879L100.386 27.0757L100.254 26.8636L99.7977 27.1493L99.9299 27.3615ZM100.842 26.79L100.974 27.0021L101.431 26.7164L101.298 26.5042L101.166 26.292L100.71 26.5778L100.842 26.79ZM101.755 26.2184L101.887 26.4306L102.343 26.1448L102.211 25.9327L102.079 25.7205L101.622 26.0063L101.755 26.2184ZM102.667 25.6469L102.799 25.8591L103.255 25.5733L103.123 25.3611L102.991 25.149L102.535 25.4347L102.667 25.6469ZM103.579 25.0754L103.712 25.2875L104.168 25.0018L104.035 24.7896L103.903 24.5775L103.447 24.8632L103.579 25.0754ZM104.492 24.5038L104.624 24.716L105.08 24.4302L104.948 24.2181L104.816 24.0059L104.359 24.2917L104.492 24.5038ZM105.404 23.9323L105.536 24.1445L105.992 23.8587L105.86 23.6465L105.728 23.4344L105.272 23.7202L105.404 23.9323ZM106.316 23.3608L106.449 23.5729L106.905 23.2872L106.773 23.075L106.64 22.8629L106.184 23.1486L106.316 23.3608ZM107.229 22.7893L107.361 23.0014L107.817 22.7156L107.685 22.5035L107.553 22.2913L107.096 22.5771L107.229 22.7893ZM108.141 22.2177L108.273 22.4299L108.729 22.1441L108.597 21.932L108.465 21.7198L108.009 22.0056L108.141 22.2177ZM109.053 21.6462L109.186 21.8584L109.642 21.5726L109.51 21.3604L109.377 21.1483L108.921 21.434L109.053 21.6462ZM109.966 21.0747L110.098 21.2868L110.554 21.0011L110.422 20.7889L110.29 20.5767L109.834 20.8625L109.966 21.0747ZM110.878 20.5031L111.01 20.7153L111.467 20.4295L111.334 20.2174L111.202 20.0052L110.746 20.291L110.878 20.5031ZM111.79 19.9316L111.923 20.1438L112.379 19.858L112.247 19.6458L112.114 19.4337L111.658 19.7194L111.79 19.9316ZM112.703 19.3601L112.835 19.5722L113.291 19.2865L113.159 19.0743L113.027 18.8621L112.571 19.1479L112.703 19.3601ZM113.615 18.7885L113.747 19.0007L114.204 18.7149L114.071 18.5028L113.939 18.2906L113.483 18.5764L113.615 18.7885ZM114.528 18.217L114.66 18.4292L115.116 18.1434L114.984 17.9312L114.851 17.7191L114.395 18.0048L114.528 18.217ZM115.44 17.6455L115.572 17.8576L116.028 17.5719L115.896 17.3597L115.764 17.1475L115.308 17.4333L115.44 17.6455ZM116.352 17.0739L116.484 17.2861L116.941 17.0003L116.808 16.7882L116.676 16.576L116.22 16.8618L116.352 17.0739ZM117.265 16.5024L117.397 16.7146L117.853 16.4288L117.721 16.2166L117.589 16.0045L117.132 16.2902L117.265 16.5024ZM118.177 15.9309L118.309 16.143L118.765 15.8573L118.633 15.6451L118.501 15.4329L118.045 15.7187L118.177 15.9309ZM119.089 15.3593L119.222 15.5715L119.678 15.2857L119.545 15.0736L119.413 14.8614L118.957 15.1472L119.089 15.3593ZM120.002 14.7878L120.134 15L120.59 14.7142L120.458 14.502L120.326 14.2899L119.869 14.5756L120.002 14.7878ZM120.914 14.2163L121.046 14.4284L121.502 14.1427L121.37 13.9305L121.238 13.7183L120.782 14.0041L120.914 14.2163ZM121.826 13.6447L121.959 13.8569L122.415 13.5711L122.283 13.359L122.15 13.1468L121.694 13.4326L121.826 13.6447ZM122.739 13.0732L122.871 13.2854L123.327 12.9996L123.195 12.7874L123.063 12.5753L122.606 12.861L122.739 13.0732ZM123.651 12.5017L123.783 12.7138L124.239 12.4281L124.107 12.2159L123.975 12.0038L123.519 12.2895L123.651 12.5017ZM124.563 11.9301L124.696 12.1423L125.152 11.8565L125.02 11.6444L124.887 11.4322L124.431 11.718L124.563 11.9301ZM125.476 11.3586L125.608 11.5708L126.064 11.285L125.932 11.0728L125.8 10.8607L125.343 11.1465L125.476 11.3586ZM126.388 10.7871L126.52 10.9992L126.976 10.7135L126.844 10.5013L126.712 10.2892L126.256 10.5749L126.388 10.7871ZM127.3 10.2156L127.433 10.4277L127.889 10.1419L127.757 9.92978L127.624 9.71762L127.168 10.0034L127.3 10.2156ZM128.213 9.64402L128.345 9.85618L128.801 9.57041L128.669 9.35825L128.537 9.14609L128.081 9.43186L128.213 9.64402ZM129.125 9.07249L129.257 9.28465L129.714 8.99888L129.581 8.78672L129.449 8.57456L128.993 8.86033L129.125 9.07249ZM130.037 8.50096L130.17 8.71312L130.626 8.42735L130.494 8.21519L130.361 8.00303L129.905 8.28879L130.037 8.50096ZM130.95 7.92942L131.082 8.14158L131.538 7.85582L131.406 7.64366L131.274 7.4315L130.818 7.71726L130.95 7.92942ZM131.862 7.35789L131.994 7.57005L132.451 7.28429L132.318 7.07213L132.186 6.85996L131.73 7.14573L131.862 7.35789ZM132.775 6.78636L132.907 6.99852L133.363 6.71275L133.231 6.50059L133.098 6.28843L132.642 6.5742L132.775 6.78636ZM133.687 6.21483L133.819 6.42699L134.275 6.14122L134.143 5.92906L134.011 5.7169L133.555 6.00267L133.687 6.21483ZM134.599 5.6433L134.731 5.85546L135.188 5.56969L135.055 5.35753L134.923 5.14537L134.467 5.43114L134.599 5.6433ZM135.512 5.07176L135.644 5.28393L136.1 4.99816L135.968 4.786L135.836 4.57384L135.379 4.8596L135.512 5.07176ZM136.424 4.50023L136.556 4.71239L137.012 4.42663L136.88 4.21447L136.748 4.00231L136.292 4.28807L136.424 4.50023ZM137.336 3.9287L137.469 4.14086L137.925 3.8551L137.792 3.64293L137.66 3.43077L137.204 3.71654L137.336 3.9287ZM138.249 3.35717L138.381 3.56933L138.837 3.28356L138.705 3.0714L138.573 2.85924L138.116 3.14501L138.249 3.35717ZM139.161 2.78564L139.293 2.9978L139.749 2.71203L139.617 2.49987L139.485 2.28771L139.029 2.57348L139.161 2.78564ZM140.073 2.21411L140.206 2.42627L140.662 2.1405L140.53 1.92834L140.397 1.71618L139.941 2.00194L140.073 2.21411ZM140.986 1.64257L141.118 1.85473L141.346 1.71192L141.214 1.49976L141.081 1.2876L140.853 1.43041L140.986 1.64257Z" fill="#698CFF"/>
<path d="M159.468 51.3788C159.551 51.2685 159.529 51.1118 159.419 51.0287L157.622 49.6751C157.512 49.592 157.355 49.6141 157.272 49.7244C157.189 49.8347 157.211 49.9915 157.321 50.0745L158.918 51.2778L157.714 52.8756C157.631 52.9859 157.653 53.1427 157.763 53.2257C157.873 53.3088 158.03 53.2867 158.113 53.1764L159.468 51.3788ZM33.5564 68.9404L33.5911 69.188L159.303 51.476L159.268 51.2284L159.233 50.9809L33.5217 68.6929L33.5564 68.9404Z" fill="#698CFF"/>
<path d="M155.707 104.238C155.828 104.172 155.871 104.019 155.804 103.899L154.713 101.929C154.646 101.808 154.494 101.765 154.373 101.832C154.252 101.899 154.209 102.051 154.276 102.172L155.246 103.922L153.498 104.891C153.377 104.958 153.334 105.11 153.401 105.231C153.468 105.352 153.62 105.395 153.74 105.329L155.707 104.238ZM33.5564 68.9404L33.4876 69.1808L155.517 104.26L155.586 104.02L155.655 103.779L33.6251 68.7001L33.5564 68.9404Z" fill="#FF6B6B"/>
<path d="M155.804 33.9823C155.871 33.8615 155.828 33.7093 155.707 33.6424L153.741 32.5523C153.62 32.4854 153.468 32.5291 153.401 32.65C153.334 32.7708 153.377 32.923 153.498 32.9899L155.246 33.9589L154.276 35.7093C154.209 35.8301 154.252 35.9823 154.373 36.0492C154.494 36.1161 154.646 36.0723 154.713 35.9515L155.804 33.9823ZM33.5564 68.9404L33.6251 69.1808L155.655 34.1015L155.586 33.8612L155.517 33.6208L33.4876 68.7001L33.5564 68.9404Z" fill="#698CFF"/>
<path d="M159.428 86.8522C159.538 86.7691 159.56 86.6123 159.477 86.502L158.123 84.7045C158.04 84.5942 157.883 84.5721 157.773 84.6551C157.662 84.7382 157.64 84.895 157.723 85.0053L158.928 86.6031L157.331 87.8063C157.221 87.8894 157.199 88.0461 157.282 88.1564C157.365 88.2668 157.522 88.2888 157.632 88.2058L159.428 86.8522ZM33.5659 68.9404L33.5312 69.188L159.243 86.9L159.278 86.6524L159.312 86.4048L33.6006 68.6929L33.5659 68.9404Z" fill="#FF6B6B"/>
<path d="M149.618 120.936C149.747 120.886 149.811 120.742 149.762 120.613L148.954 118.51C148.905 118.381 148.76 118.317 148.632 118.366C148.503 118.416 148.439 118.56 148.488 118.689L149.206 120.558L147.34 121.274C147.211 121.324 147.147 121.468 147.197 121.597C147.246 121.726 147.391 121.791 147.519 121.741L149.618 120.936ZM33.5564 68.9385L33.4549 69.167L149.427 120.931L149.528 120.702L149.63 120.474L33.6579 68.71L33.5564 68.9385Z" fill="#FF6B6B"/>
<path d="M149.762 17.2584C149.811 17.1294 149.747 16.9847 149.618 16.9353L147.519 16.1297C147.391 16.0803 147.246 16.1448 147.197 16.2738C147.147 16.4028 147.211 16.5475 147.34 16.5969L149.206 17.313L148.488 19.1819C148.439 19.3109 148.503 19.4556 148.632 19.505C148.76 19.5545 148.905 19.4899 148.954 19.3609L149.762 17.2584ZM33.5564 68.9326L33.6579 69.1611L149.63 17.3974L149.528 17.1689L149.427 16.9404L33.4549 68.7041L33.5564 68.9326Z" fill="#698CFF"/>
<path d="M141.27 136.625C141.404 136.594 141.488 136.46 141.457 136.325L140.95 134.13C140.919 133.995 140.785 133.911 140.651 133.942C140.516 133.973 140.433 134.108 140.464 134.242L140.914 136.193L138.968 136.643C138.833 136.674 138.749 136.808 138.78 136.943C138.812 137.078 138.946 137.162 139.08 137.131L141.27 136.625ZM33.5564 68.9404L33.4242 69.1526L33.6522 69.2955L33.7845 69.0833L33.9167 68.8712L33.6886 68.7283L33.5564 68.9404ZM34.2407 69.3691L34.1084 69.5812L34.5646 69.867L34.6968 69.6548L34.8291 69.4427L34.3729 69.1569L34.2407 69.3691ZM35.153 69.9406L35.0208 70.1528L35.4769 70.4385L35.6092 70.2264L35.7414 70.0142L35.2852 69.7284L35.153 69.9406ZM36.0654 70.5121L35.9331 70.7243L36.3893 71.0101L36.5215 70.7979L36.6538 70.5857L36.1976 70.3L36.0654 70.5121ZM36.9777 71.0837L36.8455 71.2958L37.3016 71.5816L37.4339 71.3694L37.5661 71.1573L37.1099 70.8715L36.9777 71.0837ZM37.8901 71.6552L37.7578 71.8674L38.214 72.1531L38.3462 71.941L38.4785 71.7288L38.0223 71.443L37.8901 71.6552ZM38.8024 72.2267L38.6702 72.4389L39.1263 72.7247L39.2586 72.5125L39.3908 72.3003L38.9346 72.0146L38.8024 72.2267ZM39.7148 72.7983L39.5825 73.0104L40.0387 73.2962L40.1709 73.084L40.3032 72.8719L39.847 72.5861L39.7148 72.7983ZM40.6271 73.3698L40.4949 73.582L40.951 73.8677L41.0833 73.6556L41.2155 73.4434L40.7593 73.1576L40.6271 73.3698ZM41.5395 73.9413L41.4072 74.1535L41.8634 74.4393L41.9956 74.2271L42.1279 74.0149L41.6717 73.7292L41.5395 73.9413ZM42.4518 74.5129L42.3196 74.725L42.7757 75.0108L42.908 74.7986L43.0402 74.5865L42.584 74.3007L42.4518 74.5129ZM43.3642 75.0844L43.2319 75.2965L43.6881 75.5823L43.8203 75.3702L43.9526 75.158L43.4964 74.8722L43.3642 75.0844ZM44.2765 75.6559L44.1443 75.8681L44.6004 76.1538L44.7327 75.9417L44.8649 75.7295L44.4087 75.4438L44.2765 75.6559ZM45.1889 76.2274L45.0566 76.4396L45.5128 76.7254L45.645 76.5132L45.7773 76.3011L45.3211 76.0153L45.1889 76.2274ZM46.1012 76.799L45.969 77.0111L46.4251 77.2969L46.5574 77.0847L46.6896 76.8726L46.2334 76.5868L46.1012 76.799ZM47.0136 77.3705L46.8813 77.5827L47.3375 77.8684L47.4697 77.6563L47.602 77.4441L47.1458 77.1584L47.0136 77.3705ZM47.9259 77.942L47.7937 78.1542L48.2498 78.44L48.3821 78.2278L48.5143 78.0156L48.0581 77.7299L47.9259 77.942ZM48.8383 78.5136L48.706 78.7257L49.1622 79.0115L49.2944 78.7993L49.4267 78.5872L48.9705 78.3014L48.8383 78.5136ZM49.7506 79.0851L49.6184 79.2973L50.0745 79.583L50.2068 79.3709L50.339 79.1587L49.8828 78.8729L49.7506 79.0851ZM50.663 79.6566L50.5307 79.8688L50.9869 80.1546L51.1191 79.9424L51.2514 79.7302L50.7952 79.4445L50.663 79.6566ZM51.5753 80.2282L51.4431 80.4403L51.8992 80.7261L52.0315 80.5139L52.1637 80.3018L51.7075 80.016L51.5753 80.2282ZM52.4877 80.7997L52.3554 81.0119L52.8116 81.2976L52.9438 81.0855L53.0761 80.8733L52.6199 80.5875L52.4877 80.7997ZM53.4 81.3712L53.2678 81.5834L53.7239 81.8692L53.8562 81.657L53.9884 81.4448L53.5323 81.1591L53.4 81.3712ZM54.3124 81.9428L54.1801 82.1549L54.6363 82.4407L54.7685 82.2285L54.9008 82.0164L54.4446 81.7306L54.3124 81.9428ZM55.2247 82.5143L55.0925 82.7265L55.5486 83.0122L55.6809 82.8001L55.8131 82.5879L55.357 82.3021L55.2247 82.5143ZM56.1371 83.0858L56.0048 83.298L56.461 83.5838L56.5932 83.3716L56.7255 83.1594L56.2693 82.8737L56.1371 83.0858ZM57.0494 83.6574L56.9172 83.8695L57.3733 84.1553L57.5056 83.9431L57.6378 83.731L57.1817 83.4452L57.0494 83.6574ZM57.9618 84.2289L57.8295 84.4411L58.2857 84.7268L58.4179 84.5147L58.5502 84.3025L58.094 84.0167L57.9618 84.2289ZM58.8741 84.8004L58.7419 85.0126L59.1981 85.2984L59.3303 85.0862L59.4625 84.874L59.0064 84.5883L58.8741 84.8004ZM59.7865 85.372L59.6542 85.5841L60.1104 85.8699L60.2426 85.6577L60.3749 85.4456L59.9187 85.1598L59.7865 85.372ZM60.6988 85.9435L60.5666 86.1556L61.0227 86.4414L61.155 86.2293L61.2872 86.0171L60.8311 85.7313L60.6988 85.9435ZM61.6112 86.515L61.4789 86.7272L61.9351 87.0129L62.0673 86.8008L62.1996 86.5886L61.7434 86.3029L61.6112 86.515ZM62.5235 87.0866L62.3913 87.2987L62.8475 87.5845L62.9797 87.3723L63.1119 87.1602L62.6558 86.8744L62.5235 87.0866ZM63.4359 87.6581L63.3036 87.8702L63.7598 88.156L63.892 87.9439L64.0243 87.7317L63.5681 87.4459L63.4359 87.6581ZM64.3482 88.2296L64.216 88.4418L64.6722 88.7275L64.8044 88.5154L64.9366 88.3032L64.4805 88.0175L64.3482 88.2296ZM65.2606 88.8011L65.1283 89.0133L65.5845 89.2991L65.7167 89.0869L65.849 88.8748L65.3928 88.589L65.2606 88.8011ZM66.1729 89.3727L66.0407 89.5848L66.4969 89.8706L66.6291 89.6584L66.7613 89.4463L66.3052 89.1605L66.1729 89.3727ZM67.0853 89.9442L66.953 90.1564L67.4092 90.4421L67.5414 90.23L67.6737 90.0178L67.2175 89.7321L67.0853 89.9442ZM67.9976 90.5157L67.8654 90.7279L68.3216 91.0137L68.4538 90.8015L68.586 90.5893L68.1299 90.3036L67.9976 90.5157ZM68.91 91.0873L68.7777 91.2994L69.2339 91.5852L69.3662 91.373L69.4984 91.1609L69.0422 90.8751L68.91 91.0873ZM69.8223 91.6588L69.6901 91.871L70.1463 92.1567L70.2785 91.9446L70.4107 91.7324L69.9546 91.4466L69.8223 91.6588ZM70.7347 92.2303L70.6024 92.4425L71.0586 92.7283L71.1909 92.5161L71.3231 92.3039L70.8669 92.0182L70.7347 92.2303ZM71.647 92.8019L71.5148 93.014L71.971 93.2998L72.1032 93.0876L72.2354 92.8755L71.7793 92.5897L71.647 92.8019ZM72.5594 93.3734L72.4271 93.5856L72.8833 93.8713L73.0156 93.6592L73.1478 93.447L72.6916 93.1612L72.5594 93.3734ZM73.4717 93.9449L73.3395 94.1571L73.7957 94.4429L73.9279 94.2307L74.0601 94.0185L73.604 93.7328L73.4717 93.9449ZM74.3841 94.5165L74.2518 94.7286L74.708 95.0144L74.8403 94.8022L74.9725 94.5901L74.5163 94.3043L74.3841 94.5165ZM75.2964 95.088L75.1642 95.3002L75.6204 95.5859L75.7526 95.3738L75.8848 95.1616L75.4287 94.8758L75.2964 95.088ZM76.2088 95.6595L76.0765 95.8717L76.5327 96.1575L76.665 95.9453L76.7972 95.7331L76.341 95.4474L76.2088 95.6595ZM77.1211 96.2311L76.9889 96.4432L77.4451 96.729L77.5773 96.5168L77.7096 96.3047L77.2534 96.0189L77.1211 96.2311ZM78.0335 96.8026L77.9012 97.0148L78.3574 97.3005L78.4897 97.0884L78.6219 96.8762L78.1657 96.5904L78.0335 96.8026ZM78.9458 97.3741L78.8136 97.5863L79.2698 97.8721L79.402 97.6599L79.5343 97.4477L79.0781 97.162L78.9458 97.3741ZM79.8582 97.9457L79.7259 98.1578L80.1821 98.4436L80.3144 98.2314L80.4466 98.0193L79.9904 97.7335L79.8582 97.9457ZM80.7705 98.5172L80.6383 98.7293L81.0945 99.0151L81.2267 98.803L81.359 98.5908L80.9028 98.305L80.7705 98.5172ZM81.6829 99.0887L81.5506 99.3009L82.0068 99.5866L82.1391 99.3745L82.2713 99.1623L81.8151 98.8766L81.6829 99.0887ZM82.5952 99.6603L82.463 99.8724L82.9192 100.158L83.0514 99.946L83.1837 99.7339L82.7275 99.4481L82.5952 99.6603ZM83.5076 100.232L83.3754 100.444L83.8315 100.73L83.9638 100.518L84.096 100.305L83.6398 100.02L83.5076 100.232ZM84.4199 100.803L84.2877 101.015L84.7439 101.301L84.8761 101.089L85.0084 100.877L84.5522 100.591L84.4199 100.803ZM85.3323 101.375L85.2001 101.587L85.6562 101.873L85.7885 101.661L85.9207 101.448L85.4645 101.163L85.3323 101.375ZM86.2446 101.946L86.1124 102.159L86.5686 102.444L86.7008 102.232L86.8331 102.02L86.3769 101.734L86.2446 101.946ZM87.157 102.518L87.0248 102.73L87.4809 103.016L87.6132 102.804L87.7454 102.592L87.2892 102.306L87.157 102.518ZM88.0693 103.089L87.9371 103.302L88.3933 103.587L88.5255 103.375L88.6578 103.163L88.2016 102.877L88.0693 103.089ZM88.9817 103.661L88.8495 103.873L89.3056 104.159L89.4379 103.947L89.5701 103.735L89.1139 103.449L88.9817 103.661ZM89.894 104.233L89.7618 104.445L90.218 104.73L90.3502 104.518L90.4825 104.306L90.0263 104.02L89.894 104.233ZM90.8064 104.804L90.6742 105.016L91.1303 105.302L91.2626 105.09L91.3948 104.878L90.9386 104.592L90.8064 104.804ZM91.7187 105.376L91.5865 105.588L92.0427 105.873L92.1749 105.661L92.3072 105.449L91.851 105.163L91.7187 105.376ZM92.6311 105.947L92.4989 106.159L92.955 106.445L93.0873 106.233L93.2195 106.021L92.7633 105.735L92.6311 105.947ZM93.5434 106.519L93.4112 106.731L93.8674 107.017L93.9996 106.804L94.1319 106.592L93.6757 106.306L93.5434 106.519ZM94.4558 107.09L94.3236 107.302L94.7797 107.588L94.912 107.376L95.0442 107.164L94.588 106.878L94.4558 107.09ZM95.3682 107.662L95.2359 107.874L95.6921 108.16L95.8243 107.947L95.9566 107.735L95.5004 107.45L95.3682 107.662ZM96.2805 108.233L96.1483 108.445L96.6044 108.731L96.7367 108.519L96.8689 108.307L96.4127 108.021L96.2805 108.233ZM97.1929 108.805L97.0606 109.017L97.5168 109.303L97.649 109.091L97.7813 108.878L97.3251 108.593L97.1929 108.805ZM98.1052 109.376L97.973 109.588L98.4291 109.874L98.5614 109.662L98.6936 109.45L98.2374 109.164L98.1052 109.376ZM99.0176 109.948L98.8853 110.16L99.3415 110.446L99.4737 110.234L99.606 110.021L99.1498 109.736L99.0176 109.948ZM99.9299 110.519L99.7977 110.732L100.254 111.017L100.386 110.805L100.518 110.593L100.062 110.307L99.9299 110.519ZM100.842 111.091L100.71 111.303L101.166 111.589L101.298 111.377L101.431 111.164L100.974 110.879L100.842 111.091ZM101.755 111.662L101.622 111.875L102.079 112.16L102.211 111.948L102.343 111.736L101.887 111.45L101.755 111.662ZM102.667 112.234L102.535 112.446L102.991 112.732L103.123 112.52L103.255 112.308L102.799 112.022L102.667 112.234ZM103.579 112.805L103.447 113.018L103.903 113.303L104.035 113.091L104.168 112.879L103.712 112.593L103.579 112.805ZM104.492 113.377L104.359 113.589L104.816 113.875L104.948 113.663L105.08 113.451L104.624 113.165L104.492 113.377ZM105.404 113.949L105.272 114.161L105.728 114.446L105.86 114.234L105.992 114.022L105.536 113.736L105.404 113.949ZM106.316 114.52L106.184 114.732L106.64 115.018L106.773 114.806L106.905 114.594L106.449 114.308L106.316 114.52ZM107.229 115.092L107.096 115.304L107.553 115.59L107.685 115.377L107.817 115.165L107.361 114.879L107.229 115.092ZM108.141 115.663L108.009 115.875L108.465 116.161L108.597 115.949L108.729 115.737L108.273 115.451L108.141 115.663ZM109.053 116.235L108.921 116.447L109.377 116.733L109.51 116.52L109.642 116.308L109.186 116.023L109.053 116.235ZM109.966 116.806L109.834 117.018L110.29 117.304L110.422 117.092L110.554 116.88L110.098 116.594L109.966 116.806ZM110.878 117.378L110.746 117.59L111.202 117.876L111.334 117.663L111.467 117.451L111.01 117.166L110.878 117.378ZM111.79 117.949L111.658 118.161L112.114 118.447L112.247 118.235L112.379 118.023L111.923 117.737L111.79 117.949ZM112.703 118.521L112.571 118.733L113.027 119.019L113.159 118.807L113.291 118.594L112.835 118.309L112.703 118.521ZM113.615 119.092L113.483 119.304L113.939 119.59L114.071 119.378L114.204 119.166L113.747 118.88L113.615 119.092ZM114.528 119.664L114.395 119.876L114.851 120.162L114.984 119.95L115.116 119.737L114.66 119.452L114.528 119.664ZM115.44 120.235L115.308 120.448L115.764 120.733L115.896 120.521L116.028 120.309L115.572 120.023L115.44 120.235ZM116.352 120.807L116.22 121.019L116.676 121.305L116.808 121.093L116.941 120.881L116.484 120.595L116.352 120.807ZM117.265 121.378L117.132 121.591L117.589 121.876L117.721 121.664L117.853 121.452L117.397 121.166L117.265 121.378ZM118.177 121.95L118.045 122.162L118.501 122.448L118.633 122.236L118.765 122.024L118.309 121.738L118.177 121.95ZM119.089 122.522L118.957 122.734L119.413 123.019L119.545 122.807L119.678 122.595L119.222 122.309L119.089 122.522ZM120.002 123.093L119.869 123.305L120.326 123.591L120.458 123.379L120.59 123.167L120.134 122.881L120.002 123.093ZM120.914 123.665L120.782 123.877L121.238 124.163L121.37 123.95L121.502 123.738L121.046 123.452L120.914 123.665ZM121.826 124.236L121.694 124.448L122.15 124.734L122.283 124.522L122.415 124.31L121.959 124.024L121.826 124.236ZM122.739 124.808L122.606 125.02L123.063 125.306L123.195 125.093L123.327 124.881L122.871 124.595L122.739 124.808ZM123.651 125.379L123.519 125.591L123.975 125.877L124.107 125.665L124.239 125.453L123.783 125.167L123.651 125.379ZM124.563 125.951L124.431 126.163L124.887 126.449L125.02 126.236L125.152 126.024L124.696 125.739L124.563 125.951ZM125.476 126.522L125.343 126.734L125.8 127.02L125.932 126.808L126.064 126.596L125.608 126.31L125.476 126.522ZM126.388 127.094L126.256 127.306L126.712 127.592L126.844 127.38L126.976 127.167L126.52 126.882L126.388 127.094ZM127.3 127.665L127.168 127.877L127.624 128.163L127.757 127.951L127.889 127.739L127.433 127.453L127.3 127.665ZM128.213 128.237L128.081 128.449L128.537 128.735L128.669 128.523L128.801 128.31L128.345 128.025L128.213 128.237ZM129.125 128.808L128.993 129.021L129.449 129.306L129.581 129.094L129.714 128.882L129.257 128.596L129.125 128.808ZM130.037 129.38L129.905 129.592L130.361 129.878L130.494 129.666L130.626 129.454L130.17 129.168L130.037 129.38ZM130.95 129.951L130.818 130.164L131.274 130.449L131.406 130.237L131.538 130.025L131.082 129.739L130.95 129.951ZM131.862 130.523L131.73 130.735L132.186 131.021L132.318 130.809L132.451 130.597L131.994 130.311L131.862 130.523ZM132.775 131.094L132.642 131.307L133.098 131.592L133.231 131.38L133.363 131.168L132.907 130.882L132.775 131.094ZM133.687 131.666L133.555 131.878L134.011 132.164L134.143 131.952L134.275 131.74L133.819 131.454L133.687 131.666ZM134.599 132.238L134.467 132.45L134.923 132.735L135.055 132.523L135.188 132.311L134.731 132.025L134.599 132.238ZM135.512 132.809L135.379 133.021L135.836 133.307L135.968 133.095L136.1 132.883L135.644 132.597L135.512 132.809ZM136.424 133.381L136.292 133.593L136.748 133.879L136.88 133.666L137.012 133.454L136.556 133.168L136.424 133.381ZM137.336 133.952L137.204 134.164L137.66 134.45L137.792 134.238L137.925 134.026L137.469 133.74L137.336 133.952ZM138.249 134.524L138.116 134.736L138.573 135.022L138.705 134.809L138.837 134.597L138.381 134.312L138.249 134.524ZM139.161 135.095L139.029 135.307L139.485 135.593L139.617 135.381L139.749 135.169L139.293 134.883L139.161 135.095ZM140.073 135.667L139.941 135.879L140.397 136.165L140.53 135.953L140.662 135.74L140.206 135.455L140.073 135.667ZM140.986 136.238L140.853 136.45L141.081 136.593L141.214 136.381L141.346 136.169L141.118 136.026L140.986 136.238Z" fill="#FF6B6B"/>
<path d="M69.0575 82.5C68.9102 82.5 68.8365 82.4263 68.8365 82.279V72.946C68.8365 72.7987 68.9102 72.725 69.0575 72.725H73.6305C73.7779 72.725 73.8855 72.7873 73.9535 72.912L77.2175 79.083C77.2855 79.1963 77.3535 79.1963 77.4215 79.083L80.7025 72.912C80.7705 72.7873 80.8782 72.725 81.0255 72.725H85.5815C85.7289 72.725 85.8025 72.7987 85.8025 72.946V82.279C85.8025 82.4263 85.7289 82.5 85.5815 82.5H83.3035C83.1562 82.5 83.0825 82.4263 83.0825 82.279V75.19C83.0825 75.0427 83.0089 74.969 82.8615 74.969H82.6235C82.4762 74.969 82.3685 75.0313 82.3005 75.156L78.4755 82.313C78.4075 82.4377 78.2999 82.5 78.1525 82.5H76.5035C76.3562 82.5 76.2485 82.4377 76.1805 82.313L72.3385 75.156C72.2705 75.0313 72.1629 74.969 72.0155 74.969H71.7775C71.6302 74.969 71.5565 75.0427 71.5565 75.19V82.279C71.5565 82.4263 71.4829 82.5 71.3355 82.5H69.0575ZM87.1111 82.5C86.9638 82.5 86.9241 82.4377 86.9921 82.313L91.9901 72.912C92.0581 72.7873 92.1658 72.725 92.3131 72.725H95.8321C95.9795 72.725 96.0871 72.7873 96.1551 72.912L101.187 82.313C101.21 82.3583 101.221 82.3923 101.221 82.415C101.221 82.4717 101.17 82.5 101.068 82.5H98.3141C98.1668 82.5 98.0591 82.432 97.9911 82.296L97.1921 80.698C97.1241 80.562 97.0165 80.494 96.8691 80.494H91.3101C91.1628 80.494 91.0551 80.562 90.9871 80.698L90.1881 82.296C90.1201 82.432 90.0125 82.5 89.8651 82.5H87.1111ZM95.8321 78.403C95.9795 78.403 96.0191 78.335 95.9511 78.199L94.5231 75.445C94.4551 75.309 94.3475 75.241 94.2001 75.241H93.9621C93.8148 75.241 93.7071 75.309 93.6391 75.445L92.2281 78.199C92.2055 78.267 92.1941 78.3067 92.1941 78.318C92.1941 78.3747 92.2451 78.403 92.3471 78.403H95.8321ZM102.593 82.5C102.445 82.5 102.372 82.4263 102.372 82.279V72.946C102.372 72.7987 102.445 72.725 102.593 72.725H109.733C110.719 72.725 111.523 72.8327 112.147 73.048C112.781 73.252 113.263 73.6147 113.592 74.136C113.92 74.646 114.085 75.3657 114.085 76.295V76.414C114.085 77.264 113.915 77.9327 113.575 78.42C113.246 78.896 112.764 79.236 112.13 79.44C111.506 79.6327 110.707 79.729 109.733 79.729H105.432C105.284 79.729 105.211 79.8027 105.211 79.95V82.279C105.211 82.4263 105.137 82.5 104.99 82.5H102.593ZM109.733 77.468C110.231 77.468 110.594 77.3773 110.821 77.196C111.047 77.0147 111.161 76.7427 111.161 76.38V76.295C111.161 75.887 111.047 75.581 110.821 75.377C110.605 75.1617 110.243 75.054 109.733 75.054H105.432C105.284 75.054 105.211 75.1277 105.211 75.275V77.247C105.211 77.3943 105.284 77.468 105.432 77.468H109.733Z" fill="#000A61"/>
<path d="M3.56437 65.6777C3.41704 65.6777 3.34337 65.6041 3.34337 65.4567V56.1237C3.34337 55.9764 3.41704 55.9027 3.56437 55.9027H13.2544C13.4017 55.9027 13.4754 55.9764 13.4754 56.1237V57.8237C13.4754 57.9711 13.4017 58.0447 13.2544 58.0447H6.47137C6.32404 58.0447 6.25037 58.1184 6.25037 58.2657V59.6767C6.25037 59.8241 6.32404 59.8977 6.47137 59.8977H12.8124C12.9597 59.8977 13.0334 59.9714 13.0334 60.1187V61.8187C13.0334 61.9661 12.9597 62.0397 12.8124 62.0397H6.47137C6.32404 62.0397 6.25037 62.1134 6.25037 62.2607V65.4567C6.25037 65.6041 6.1767 65.6777 6.02937 65.6777H3.56437ZM19.9387 65.7627C18.6127 65.7627 17.5927 65.6211 16.8787 65.3377C16.1647 65.0544 15.6717 64.6237 15.3997 64.0457C15.139 63.4677 15.0087 62.6857 15.0087 61.6997V56.1237C15.0087 55.9764 15.0824 55.9027 15.2297 55.9027H17.6947C17.842 55.9027 17.9157 55.9764 17.9157 56.1237V61.5467C17.9157 62.1927 18.063 62.6687 18.3577 62.9747C18.6637 63.2807 19.1397 63.4337 19.7857 63.4337H22.1147C22.7494 63.4337 23.214 63.2807 23.5087 62.9747C23.8147 62.6687 23.9677 62.1927 23.9677 61.5467V56.1237C23.9677 55.9764 24.0414 55.9027 24.1887 55.9027H26.6537C26.801 55.9027 26.8747 55.9764 26.8747 56.1237V61.6997C26.8747 62.6857 26.7387 63.4677 26.4667 64.0457C26.206 64.6237 25.7187 65.0544 25.0047 65.3377C24.302 65.6211 23.2877 65.7627 21.9617 65.7627H19.9387ZM33.0092 65.6777C32.8618 65.6777 32.7882 65.6041 32.7882 65.4567V58.6227C32.7882 58.4754 32.7145 58.4017 32.5672 58.4017H28.4532C28.3058 58.4017 28.2322 58.3281 28.2322 58.1807V56.1237C28.2322 55.9764 28.3058 55.9027 28.4532 55.9027H40.0132C40.1605 55.9027 40.2342 55.9764 40.2342 56.1237V58.1807C40.2342 58.3281 40.1605 58.4017 40.0132 58.4017H35.8992C35.7518 58.4017 35.6782 58.4754 35.6782 58.6227V65.4567C35.6782 65.6041 35.6045 65.6777 35.4572 65.6777H33.0092ZM46.5178 65.7627C45.1918 65.7627 44.1718 65.6211 43.4578 65.3377C42.7438 65.0544 42.2508 64.6237 41.9788 64.0457C41.7181 63.4677 41.5878 62.6857 41.5878 61.6997V56.1237C41.5878 55.9764 41.6615 55.9027 41.8088 55.9027H44.2738C44.4211 55.9027 44.4948 55.9764 44.4948 56.1237V61.5467C44.4948 62.1927 44.6421 62.6687 44.9368 62.9747C45.2428 63.2807 45.7188 63.4337 46.3648 63.4337H48.6938C49.3285 63.4337 49.7931 63.2807 50.0878 62.9747C50.3938 62.6687 50.5468 62.1927 50.5468 61.5467V56.1237C50.5468 55.9764 50.6205 55.9027 50.7678 55.9027H53.2328C53.3801 55.9027 53.4538 55.9764 53.4538 56.1237V61.6997C53.4538 62.6857 53.3178 63.4677 53.0458 64.0457C52.7851 64.6237 52.2978 65.0544 51.5838 65.3377C50.8811 65.6211 49.8668 65.7627 48.5408 65.7627H46.5178ZM55.6103 65.6777C55.4629 65.6777 55.3893 65.6041 55.3893 65.4567V56.1237C55.3893 55.9764 55.4629 55.9027 55.6103 55.9027H62.7503C63.7363 55.9027 64.5409 56.0047 65.1643 56.2087C65.7989 56.4127 66.2749 56.7697 66.5923 57.2797C66.9209 57.7897 67.0853 58.4924 67.0853 59.3877V59.6937C67.0853 60.3171 66.9153 60.8497 66.5753 61.2917C66.2353 61.7337 65.7423 62.0624 65.0963 62.2777C64.9716 62.3231 64.9489 62.4024 65.0283 62.5157L67.4763 65.5077L67.5273 65.6097C67.5273 65.6551 67.4819 65.6777 67.3913 65.6777H64.5523C64.4163 65.6777 64.2973 65.6211 64.1953 65.5077L62.2573 62.9747C62.1553 62.8614 62.0363 62.8047 61.9003 62.8047H58.4493C58.3019 62.8047 58.2283 62.8784 58.2283 63.0257V65.4567C58.2283 65.6041 58.1546 65.6777 58.0073 65.6777H55.6103ZM62.7503 60.6457C63.2376 60.6457 63.5946 60.5551 63.8213 60.3737C64.0479 60.1924 64.1613 59.9261 64.1613 59.5747V59.4727C64.1613 59.0647 64.0536 58.7587 63.8383 58.5547C63.6229 58.3394 63.2603 58.2317 62.7503 58.2317H58.4493C58.3019 58.2317 58.2283 58.3054 58.2283 58.4527V60.4247C58.2283 60.5721 58.3019 60.6457 58.4493 60.6457H62.7503ZM68.9247 65.6777C68.7774 65.6777 68.7037 65.6041 68.7037 65.4567V56.1237C68.7037 55.9764 68.7774 55.9027 68.9247 55.9027H78.9037C79.0511 55.9027 79.1247 55.9764 79.1247 56.1237V57.8237C79.1247 57.9711 79.0511 58.0447 78.9037 58.0447H71.8317C71.6844 58.0447 71.6107 58.1184 71.6107 58.2657V59.5237C71.6107 59.6711 71.6844 59.7447 71.8317 59.7447H78.4617C78.6091 59.7447 78.6827 59.8184 78.6827 59.9657V61.4957C78.6827 61.6431 78.6091 61.7167 78.4617 61.7167H71.8317C71.6844 61.7167 71.6107 61.7904 71.6107 61.9377V63.2977C71.6107 63.4451 71.6844 63.5187 71.8317 63.5187H78.9717C79.1191 63.5187 79.1927 63.5924 79.1927 63.7397V65.4567C79.1927 65.6041 79.1191 65.6777 78.9717 65.6777H68.9247ZM84.7277 65.7967C83.651 65.7967 82.8124 65.7004 82.2117 65.5077C81.611 65.3151 81.1917 65.0431 80.9537 64.6917C80.7157 64.3404 80.5854 63.8984 80.5627 63.3657L80.5457 63.0087C80.5457 62.8614 80.6194 62.7877 80.7667 62.7877H83.2317C83.379 62.7877 83.4527 62.8614 83.4527 63.0087V63.0767C83.4527 63.3034 83.549 63.4564 83.7417 63.5357C83.9344 63.6151 84.2914 63.6547 84.8127 63.6547H87.7367C88.36 63.6547 88.7737 63.5811 88.9777 63.4337C89.193 63.2864 89.3007 63.0541 89.3007 62.7367C89.3007 62.4307 89.2044 62.2097 89.0117 62.0737C88.8304 61.9377 88.445 61.8641 87.8557 61.8527L83.6737 61.7507C82.5517 61.7281 81.7584 61.4787 81.2937 61.0027C80.829 60.5154 80.5967 59.8354 80.5967 58.9627C80.5967 57.9994 80.897 57.2344 81.4977 56.6677C82.1097 56.1011 83.158 55.8177 84.6427 55.8177H87.3627C88.6094 55.8177 89.5727 55.9084 90.2527 56.0897C90.9327 56.2597 91.4087 56.5317 91.6807 56.9057C91.964 57.2797 92.1057 57.7841 92.1057 58.4187V58.5717C92.1057 58.7191 92.032 58.7927 91.8847 58.7927H89.3517C89.2044 58.7927 89.1307 58.7191 89.1307 58.5717V58.4867C89.1307 58.1241 88.8077 57.9427 88.1617 57.9427H84.7277C84.3084 57.9427 84.008 58.0164 83.8267 58.1637C83.6567 58.3111 83.5717 58.5264 83.5717 58.8097C83.5717 59.1044 83.651 59.3141 83.8097 59.4387C83.9797 59.5521 84.314 59.6144 84.8127 59.6257L88.9267 59.7617C89.8107 59.7957 90.4907 59.9091 90.9667 60.1017C91.454 60.2831 91.794 60.5777 91.9867 60.9857C92.1907 61.3824 92.2927 61.9377 92.2927 62.6517C92.2927 63.3771 92.168 63.9664 91.9187 64.4197C91.6807 64.8731 91.2444 65.2187 90.6097 65.4567C89.9864 65.6834 89.0967 65.7967 87.9407 65.7967H84.7277Z" fill="#000A61"/>
</svg>
