<svg width="132" height="10" viewBox="0 0 132 10" fill="none" xmlns="http://www.w3.org/2000/svg">
<path d="M0.344 9.5C0.205333 9.5 0.136 9.43067 0.136 9.292V0.507999C0.136 0.369333 0.205333 0.299999 0.344 0.299999H9.256C9.39467 0.299999 9.464 0.369333 9.464 0.507999V1.532C9.464 1.67067 9.39467 1.74 9.256 1.74H2.136C1.99733 1.74 1.928 1.80933 1.928 1.948V4.012C1.928 4.15067 1.99733 4.22 2.136 4.22H8.872C9.01067 4.22 9.08 4.28933 9.08 4.428V5.452C9.08 5.59067 9.01067 5.66 8.872 5.66H2.136C1.99733 5.66 1.928 5.72933 1.928 5.868V9.292C1.928 9.43067 1.85867 9.5 1.72 9.5H0.344ZM14.7977 9.532C13.7631 9.532 12.9738 9.41467 12.4298 9.18C11.8858 8.93467 11.5124 8.56667 11.3098 8.076C11.1178 7.57467 11.0218 6.89733 11.0218 6.044V0.507999C11.0218 0.369333 11.0911 0.299999 11.2298 0.299999H12.5898C12.7284 0.299999 12.7978 0.369333 12.7978 0.507999V5.98C12.7978 6.57733 12.8564 7.02 12.9738 7.308C13.0911 7.58533 13.3044 7.77733 13.6138 7.884C13.9338 7.98 14.4244 8.028 15.0858 8.028H17.9018C18.5631 8.028 19.0484 7.98 19.3578 7.884C19.6778 7.77733 19.8964 7.58533 20.0138 7.308C20.1311 7.02 20.1898 6.57733 20.1898 5.98V0.507999C20.1898 0.369333 20.2591 0.299999 20.3978 0.299999H21.7418C21.8804 0.299999 21.9498 0.369333 21.9498 0.507999V6.044C21.9498 6.89733 21.8484 7.57467 21.6458 8.076C21.4538 8.56667 21.0858 8.93467 20.5418 9.18C20.0084 9.41467 19.2244 9.532 18.1898 9.532H14.7977ZM28.7146 9.5C28.576 9.5 28.5066 9.43067 28.5066 9.292V2.076C28.5066 1.93733 28.4373 1.868 28.2986 1.868H23.6746C23.536 1.868 23.4666 1.79867 23.4666 1.66V0.507999C23.4666 0.369333 23.536 0.299999 23.6746 0.299999H35.0986C35.2373 0.299999 35.3066 0.369333 35.3066 0.507999V1.66C35.3066 1.79867 35.2373 1.868 35.0986 1.868H30.4746C30.336 1.868 30.2666 1.93733 30.2666 2.076V9.292C30.2666 9.43067 30.1973 9.5 30.0586 9.5H28.7146ZM40.579 9.532C39.5443 9.532 38.755 9.41467 38.211 9.18C37.667 8.93467 37.2937 8.56667 37.091 8.076C36.899 7.57467 36.803 6.89733 36.803 6.044V0.507999C36.803 0.369333 36.8723 0.299999 37.011 0.299999H38.371C38.5097 0.299999 38.579 0.369333 38.579 0.507999V5.98C38.579 6.57733 38.6377 7.02 38.755 7.308C38.8723 7.58533 39.0857 7.77733 39.395 7.884C39.715 7.98 40.2057 8.028 40.867 8.028H43.683C44.3443 8.028 44.8297 7.98 45.139 7.884C45.459 7.77733 45.6777 7.58533 45.795 7.308C45.9123 7.02 45.971 6.57733 45.971 5.98V0.507999C45.971 0.369333 46.0403 0.299999 46.179 0.299999H47.523C47.6617 0.299999 47.731 0.369333 47.731 0.507999V6.044C47.731 6.89733 47.6297 7.57467 47.427 8.076C47.235 8.56667 46.867 8.93467 46.323 9.18C45.7897 9.41467 45.0057 9.532 43.971 9.532H40.579ZM50.0159 9.5C49.8772 9.5 49.8079 9.43067 49.8079 9.292V0.507999C49.8079 0.369333 49.8772 0.299999 50.0159 0.299999H57.1679C58.3625 0.299999 59.2052 0.534666 59.6959 1.004C60.1972 1.46267 60.4479 2.13467 60.4479 3.02V3.692C60.4479 4.37467 60.2932 4.908 59.9839 5.292C59.6852 5.676 59.1625 5.93733 58.4159 6.076C58.2772 6.09733 58.2559 6.16133 58.3519 6.268L60.8159 9.34L60.8639 9.436C60.8639 9.47867 60.8212 9.5 60.7359 9.5H59.0559C58.9065 9.5 58.7945 9.44667 58.7199 9.34L56.4319 6.46C56.3572 6.35333 56.2452 6.3 56.0959 6.3H51.7599C51.6212 6.3 51.5519 6.36933 51.5519 6.508V9.292C51.5519 9.43067 51.4825 9.5 51.3439 9.5H50.0159ZM56.7839 4.844C57.4559 4.844 57.9412 4.764 58.2399 4.604C58.5385 4.43333 58.6879 4.15067 58.6879 3.756V3.148C58.6879 2.68933 58.5759 2.35333 58.3519 2.14C58.1279 1.916 57.7012 1.804 57.0719 1.804H51.7599C51.6212 1.804 51.5519 1.87333 51.5519 2.012V4.636C51.5519 4.77467 51.6212 4.844 51.7599 4.844H56.7839ZM62.4378 9.5C62.2991 9.5 62.2298 9.43067 62.2298 9.292V0.507999C62.2298 0.369333 62.2991 0.299999 62.4378 0.299999H71.4618C71.6004 0.299999 71.6698 0.369333 71.6698 0.507999V1.532C71.6698 1.67067 71.6004 1.74 71.4618 1.74H64.2138C64.0751 1.74 64.0058 1.80933 64.0058 1.948V3.884C64.0058 4.02267 64.0751 4.092 64.2138 4.092H71.0938C71.2324 4.092 71.3018 4.16133 71.3018 4.3V5.26C71.3018 5.39867 71.2324 5.468 71.0938 5.468H64.2138C64.0751 5.468 64.0058 5.53733 64.0058 5.676V7.852C64.0058 7.99067 64.0751 8.06 64.2138 8.06H71.5258C71.6644 8.06 71.7338 8.12933 71.7338 8.268V9.292C71.7338 9.43067 71.6644 9.5 71.5258 9.5H62.4378ZM76.3229 9.548C75.2135 9.548 74.4189 9.36133 73.9389 8.988C73.4589 8.61467 73.2135 8.06533 73.2029 7.34L73.1869 6.94C73.1869 6.80133 73.2562 6.732 73.3949 6.732H74.7549C74.8935 6.732 74.9629 6.80133 74.9629 6.94V7.228C74.9629 7.548 75.0642 7.788 75.2669 7.948C75.4802 8.09733 75.8215 8.172 76.2909 8.172H80.1949C80.7815 8.172 81.2189 8.12933 81.5069 8.044C81.8055 7.948 81.9975 7.80933 82.0829 7.628C82.1789 7.44667 82.2269 7.19067 82.2269 6.86C82.2269 6.43333 82.1202 6.124 81.9069 5.932C81.6935 5.74 81.2669 5.63867 80.6269 5.628L76.1789 5.548C75.1122 5.52667 74.3602 5.30267 73.9229 4.876C73.4855 4.43867 73.2669 3.804 73.2669 2.972C73.2669 1.16933 74.4935 0.268 76.9469 0.268H80.1149C81.4695 0.268 82.4189 0.454666 82.9629 0.827999C83.5175 1.20133 83.7949 1.75067 83.7949 2.476V2.764C83.7949 2.90267 83.7255 2.972 83.5869 2.972H82.2109C82.0722 2.972 82.0029 2.90267 82.0029 2.764V2.572C82.0029 2.26267 81.8962 2.028 81.6829 1.868C81.4802 1.708 81.1069 1.628 80.5629 1.628H76.7389C76.1309 1.628 75.6935 1.72933 75.4269 1.932C75.1709 2.13467 75.0429 2.46 75.0429 2.908C75.0429 3.21733 75.0802 3.45733 75.1549 3.628C75.2402 3.788 75.3949 3.91067 75.6189 3.996C75.8429 4.08133 76.1735 4.12933 76.6109 4.14L81.0109 4.252C81.8002 4.27333 82.4082 4.38 82.8349 4.572C83.2722 4.75333 83.5762 5.02533 83.7469 5.388C83.9175 5.74 84.0029 6.20933 84.0029 6.796C84.0029 7.468 83.8962 8.00133 83.6829 8.396C83.4695 8.79067 83.1122 9.084 82.6109 9.276C82.1202 9.45733 81.4429 9.548 80.5789 9.548H76.3229ZM90.9846 9.5C90.846 9.5 90.7766 9.43067 90.7766 9.292V0.492C90.7766 0.353333 90.846 0.283999 90.9846 0.283999H93.8806C94.0086 0.283999 94.1153 0.342666 94.2006 0.46L98.2966 7.276C98.3286 7.32933 98.3606 7.356 98.3926 7.356C98.4353 7.356 98.4726 7.32933 98.5046 7.276L102.617 0.46C102.681 0.342666 102.782 0.283999 102.921 0.283999H105.817C105.955 0.283999 106.025 0.353333 106.025 0.492V9.292C106.025 9.43067 105.955 9.5 105.817 9.5H104.537C104.398 9.5 104.329 9.43067 104.329 9.292V2.028C104.329 1.88933 104.259 1.82 104.121 1.82H103.897C103.758 1.82 103.651 1.87867 103.577 1.996L99.1606 9.324C99.086 9.44133 98.9793 9.5 98.8406 9.5H97.9606C97.822 9.5 97.7153 9.44133 97.6406 9.324L93.2246 1.996C93.15 1.87867 93.0433 1.82 92.9046 1.82H92.6806C92.542 1.82 92.4726 1.88933 92.4726 2.028V9.292C92.4726 9.43067 92.4033 9.5 92.2646 9.5H90.9846ZM107.38 9.5C107.242 9.5 107.204 9.44133 107.268 9.324L112.036 0.476C112.1 0.358666 112.202 0.299999 112.34 0.299999H114.5C114.639 0.299999 114.74 0.358666 114.804 0.476L119.636 9.324C119.658 9.36667 119.668 9.39867 119.668 9.42C119.668 9.47333 119.62 9.5 119.524 9.5H117.988C117.85 9.5 117.748 9.44133 117.684 9.324L116.884 7.788C116.82 7.67067 116.719 7.612 116.58 7.612H110.308C110.17 7.612 110.068 7.67067 110.004 7.788L109.204 9.324C109.14 9.44133 109.039 9.5 108.9 9.5H107.38ZM115.844 6.204C115.983 6.204 116.02 6.14533 115.956 6.028L113.828 2.092C113.764 1.97467 113.663 1.916 113.524 1.916H113.332C113.194 1.916 113.092 1.97467 113.028 2.092L110.932 6.028C110.911 6.07067 110.9 6.10267 110.9 6.124C110.9 6.17733 110.948 6.204 111.044 6.204H115.844ZM121.094 9.5C120.955 9.5 120.886 9.43067 120.886 9.292V0.507999C120.886 0.369333 120.955 0.299999 121.094 0.299999H128.054C129.249 0.299999 130.097 0.534666 130.598 1.004C131.099 1.46267 131.35 2.14533 131.35 3.052V3.66C131.35 4.332 131.233 4.86 130.998 5.244C130.774 5.628 130.406 5.90533 129.894 6.076C129.393 6.24667 128.699 6.332 127.814 6.332H122.838C122.699 6.332 122.63 6.40133 122.63 6.54V9.292C122.63 9.43067 122.561 9.5 122.422 9.5H121.094ZM127.67 4.844C128.342 4.844 128.827 4.764 129.126 4.604C129.425 4.43333 129.574 4.15067 129.574 3.756V3.148C129.574 2.68933 129.462 2.35333 129.238 2.14C129.014 1.916 128.587 1.804 127.958 1.804H122.838C122.699 1.804 122.63 1.87333 122.63 2.012V4.636C122.63 4.77467 122.699 4.844 122.838 4.844H127.67Z" fill="#4E02B2"/>
</svg>
